solid Created by Gmsh
facet normal 0.219759 -0.970937 -0.0948037
  outer loop
    vertex 1.7484 0.41464 -0.10816
    vertex 1.8456 0.4373 -0.11492
    vertex 1.8474 0.43387 -0.07561900000000001
  endloop
endfacet
facet normal 0.230547 -0.964114 -0.131656
  outer loop
    vertex 1.7484 0.41464 -0.10816
    vertex 1.8474 0.43387 -0.07561900000000001
    vertex 1.7502 0.41042 -0.074105
  endloop
endfacet
facet normal 0.971483 0.235901 -0.023906
  outer loop
    vertex 1.8706 0.33721 -0.08665299999999999
    vertex 1.8456 0.4373 -0.11492
    vertex 1.8474 0.43387 -0.07561900000000001
  endloop
endfacet
facet normal 0.972301 0.225708 -0.060721
  outer loop
    vertex 1.8674 0.34038 -0.12611
    vertex 1.8456 0.4373 -0.11492
    vertex 1.8706 0.33721 -0.08665299999999999
  endloop
endfacet
facet normal 0.969037 0.239477 -0.0601584
  outer loop
    vertex 1.7703 0.31772 -0.11935
    vertex 1.7502 0.41042 -0.074105
    vertex 1.7734 0.31377 -0.08513900000000001
  endloop
endfacet
facet normal 0.974534 0.222963 -0.0238808
  outer loop
    vertex 1.7703 0.31772 -0.11935
    vertex 1.7484 0.41464 -0.10816
    vertex 1.7502 0.41042 -0.074105
  endloop
endfacet
facet normal 0.231914 -0.96793 -0.0965726
  outer loop
    vertex 1.7734 0.31377 -0.08513900000000001
    vertex 1.8674 0.34038 -0.12611
    vertex 1.8706 0.33721 -0.08665299999999999
  endloop
endfacet
facet normal 0.216614 -0.967385 -0.131322
  outer loop
    vertex 1.7703 0.31772 -0.11935
    vertex 1.8674 0.34038 -0.12611
    vertex 1.7734 0.31377 -0.08513900000000001
  endloop
endfacet
facet normal 0.232168 -0.968291 -0.0922521
  outer loop
    vertex 1.7502 0.41042 -0.074105
    vertex 1.8474 0.43387 -0.07561900000000001
    vertex 1.8472 0.43007 -0.036237
  endloop
endfacet
facet normal 0.244333 -0.961336 -0.127022
  outer loop
    vertex 1.7502 0.41042 -0.074105
    vertex 1.8472 0.43007 -0.036237
    vertex 1.7502 0.40595 -0.040275
  endloop
endfacet
facet normal 0.969768 0.24238 0.0283124
  outer loop
    vertex 1.8716 0.33366 -0.046638
    vertex 1.8474 0.43387 -0.07561900000000001
    vertex 1.8472 0.43007 -0.036237
  endloop
endfacet
facet normal 0.972285 0.233771 -0.00355864
  outer loop
    vertex 1.8706 0.33721 -0.08665299999999999
    vertex 1.8474 0.43387 -0.07561900000000001
    vertex 1.8716 0.33366 -0.046638
  endloop
endfacet
facet normal 0.969336 0.245713 -0.00359326
  outer loop
    vertex 1.7734 0.31377 -0.08513900000000001
    vertex 1.7502 0.40595 -0.040275
    vertex 1.7746 0.30954 -0.050675
  endloop
endfacet
facet normal 0.972711 0.230021 0.030393
  outer loop
    vertex 1.7734 0.31377 -0.08513900000000001
    vertex 1.7502 0.41042 -0.074105
    vertex 1.7502 0.40595 -0.040275
  endloop
endfacet
facet normal 0.243888 -0.965454 -0.0917468
  outer loop
    vertex 1.7746 0.30954 -0.050675
    vertex 1.8706 0.33721 -0.08665299999999999
    vertex 1.8716 0.33366 -0.046638
  endloop
endfacet
facet normal 0.230689 -0.964777 -0.126446
  outer loop
    vertex 1.7734 0.31377 -0.08513900000000001
    vertex 1.8706 0.33721 -0.08665299999999999
    vertex 1.7746 0.30954 -0.050675
  endloop
endfacet
facet normal 0.243737 -0.966257 -0.0833036
  outer loop
    vertex 1.7502 0.40595 -0.040275
    vertex 1.8472 0.43007 -0.036237
    vertex 1.8448 0.42611 0.0026738
  endloop
endfacet
facet normal 0.257863 -0.958969 -0.117839
  outer loop
    vertex 1.7502 0.40595 -0.040275
    vertex 1.8448 0.42611 0.0026738
    vertex 1.7484 0.40134 -0.0066979
  endloop
endfacet
facet normal 0.964921 0.248466 0.0848025
  outer loop
    vertex 1.8704 0.32991 -0.0067552
    vertex 1.8472 0.43007 -0.036237
    vertex 1.8448 0.42611 0.0026738
  endloop
endfacet
facet normal 0.96945 0.239775 0.0517139
  outer loop
    vertex 1.8716 0.33366 -0.046638
    vertex 1.8472 0.43007 -0.036237
    vertex 1.8704 0.32991 -0.0067552
  endloop
endfacet
facet normal 0.966392 0.252373 0.0489255
  outer loop
    vertex 1.7746 0.30954 -0.050675
    vertex 1.7484 0.40134 -0.0066979
    vertex 1.774 0.30514 -0.016127
  endloop
endfacet
facet normal 0.968109 0.235922 0.0842895
  outer loop
    vertex 1.7746 0.30954 -0.050675
    vertex 1.7502 0.40595 -0.040275
    vertex 1.7484 0.40134 -0.0066979
  endloop
endfacet
facet normal 0.255561 -0.963234 -0.0828792
  outer loop
    vertex 1.774 0.30514 -0.016127
    vertex 1.8716 0.33366 -0.046638
    vertex 1.8704 0.32991 -0.0067552
  endloop
endfacet
facet normal 0.244251 -0.962464 -0.118337
  outer loop
    vertex 1.7746 0.30954 -0.050675
    vertex 1.8716 0.33366 -0.046638
    vertex 1.774 0.30514 -0.016127
  endloop
endfacet
facet normal 0.254898 -0.964162 -0.0736149
  outer loop
    vertex 1.7484 0.40134 -0.0066979
    vertex 1.8448 0.42611 0.0026738
    vertex 1.8405 0.42205 0.04096
  endloop
endfacet
facet normal 0.270015 -0.957011 -0.105936
  outer loop
    vertex 1.7484 0.40134 -0.0066979
    vertex 1.8405 0.42205 0.04096
    vertex 1.7448 0.39662 0.026766
  endloop
endfacet
facet normal 0.957667 0.254504 0.134546
  outer loop
    vertex 1.8672 0.32608 0.03245
    vertex 1.8448 0.42611 0.0026738
    vertex 1.8405 0.42205 0.04096
  endloop
endfacet
facet normal 0.963712 0.246387 0.10273
  outer loop
    vertex 1.8704 0.32991 -0.0067552
    vertex 1.8448 0.42611 0.0026738
    vertex 1.8672 0.32608 0.03245
  endloop
endfacet
facet normal 0.960516 0.259282 0.100902
  outer loop
    vertex 1.774 0.30514 -0.016127
    vertex 1.7448 0.39662 0.026766
    vertex 1.7716 0.30065 0.018257
  endloop
endfacet
facet normal 0.960459 0.242115 0.137475
  outer loop
    vertex 1.774 0.30514 -0.016127
    vertex 1.7484 0.40134 -0.0066979
    vertex 1.7448 0.39662 0.026766
  endloop
endfacet
facet normal 0.266385 -0.961162 -0.0721542
  outer loop
    vertex 1.7716 0.30065 0.018257
    vertex 1.8704 0.32991 -0.0067552
    vertex 1.8672 0.32608 0.03245
  endloop
endfacet
facet normal 0.257212 -0.960362 -0.107455
  outer loop
    vertex 1.774 0.30514 -0.016127
    vertex 1.8704 0.32991 -0.0067552
    vertex 1.7716 0.30065 0.018257
  endloop
endfacet
facet normal 0.265212 -0.962026 -0.0645695
  outer loop
    vertex 1.7448 0.39662 0.026766
    vertex 1.8405 0.42205 0.04096
    vertex 1.8369 0.41948 0.06446399999999999
  endloop
endfacet
facet normal 0.276735 -0.956108 -0.0963086
  outer loop
    vertex 1.7448 0.39662 0.026766
    vertex 1.8369 0.41948 0.06446399999999999
    vertex 1.7418 0.39367 0.047432
  endloop
endfacet
facet normal 0.950534 0.257486 0.173743
  outer loop
    vertex 1.8643 0.32364 0.056595
    vertex 1.8405 0.42205 0.04096
    vertex 1.8369 0.41948 0.06446399999999999
  endloop
endfacet
facet normal 0.956991 0.25378 0.140588
  outer loop
    vertex 1.8672 0.32608 0.03245
    vertex 1.8405 0.42205 0.04096
    vertex 1.8643 0.32364 0.056595
  endloop
endfacet
facet normal 0.954741 0.261284 0.142129
  outer loop
    vertex 1.7716 0.30065 0.018257
    vertex 1.7418 0.39367 0.047432
    vertex 1.7692 0.29783 0.039563
  endloop
endfacet
facet normal 0.952345 0.250518 0.174009
  outer loop
    vertex 1.7716 0.30065 0.018257
    vertex 1.7448 0.39662 0.026766
    vertex 1.7418 0.39367 0.047432
  endloop
endfacet
facet normal 0.272098 -0.960116 -0.0643445
  outer loop
    vertex 1.7692 0.29783 0.039563
    vertex 1.8672 0.32608 0.03245
    vertex 1.8643 0.32364 0.056595
  endloop
endfacet
facet normal 0.269221 -0.958231 -0.0965026
  outer loop
    vertex 1.7716 0.30065 0.018257
    vertex 1.8672 0.32608 0.03245
    vertex 1.7692 0.29783 0.039563
  endloop
endfacet
facet normal 0.271773 -0.960351 -0.0621755
  outer loop
    vertex 1.7418 0.39367 0.047432
    vertex 1.8369 0.41948 0.06446399999999999
    vertex 1.8344 0.41785 0.07871300000000001
  endloop
endfacet
facet normal 0.281139 -0.955053 -0.0939961
  outer loop
    vertex 1.7418 0.39367 0.047432
    vertex 1.8344 0.41785 0.07871300000000001
    vertex 1.7397 0.39182 0.059948
  endloop
endfacet
facet normal 0.945769 0.259345 0.195604
  outer loop
    vertex 1.8622 0.32208 0.07127500000000001
    vertex 1.8369 0.41948 0.06446399999999999
    vertex 1.8344 0.41785 0.07871300000000001
  endloop
endfacet
facet normal 0.951982 0.258726 0.163677
  outer loop
    vertex 1.8643 0.32364 0.056595
    vertex 1.8369 0.41948 0.06446399999999999
    vertex 1.8622 0.32208 0.07127500000000001
  endloop
endfacet
facet normal 0.951109 0.263613 0.160936
  outer loop
    vertex 1.7692 0.29783 0.039563
    vertex 1.7397 0.39182 0.059948
    vertex 1.7675 0.29606 0.052509
  endloop
endfacet
facet normal 0.946879 0.254572 0.196501
  outer loop
    vertex 1.7692 0.29783 0.039563
    vertex 1.7418 0.39367 0.047432
    vertex 1.7397 0.39182 0.059948
  endloop
endfacet
facet normal 0.275915 -0.959151 -0.062456
  outer loop
    vertex 1.7675 0.29606 0.052509
    vertex 1.8643 0.32364 0.056595
    vertex 1.8622 0.32208 0.07127500000000001
  endloop
endfacet
facet normal 0.276473 -0.956369 -0.0944515
  outer loop
    vertex 1.7692 0.29783 0.039563
    vertex 1.8643 0.32364 0.056595
    vertex 1.7675 0.29606 0.052509
  endloop
endfacet
facet normal 0.275567 -0.959419 -0.059818
  outer loop
    vertex 1.7397 0.39182 0.059948
    vertex 1.8344 0.41785 0.07871300000000001
    vertex 1.8266 0.41324 0.11672
  endloop
endfacet
facet normal 0.291556 -0.952601 -0.0868654
  outer loop
    vertex 1.7397 0.39182 0.059948
    vertex 1.8266 0.41324 0.11672
    vertex 1.7331 0.38677 0.09317599999999999
  endloop
endfacet
facet normal 0.93738 0.266172 0.224659
  outer loop
    vertex 1.8554 0.31774 0.1097
    vertex 1.8344 0.41785 0.07871300000000001
    vertex 1.8266 0.41324 0.11672
  endloop
endfacet
facet normal 0.945594 0.259216 0.196618
  outer loop
    vertex 1.8622 0.32208 0.07127500000000001
    vertex 1.8344 0.41785 0.07871300000000001
    vertex 1.8554 0.31774 0.1097
  endloop
endfacet
facet normal 0.942842 0.269971 0.19536
  outer loop
    vertex 1.7675 0.29606 0.052509
    vertex 1.7331 0.38677 0.09317599999999999
    vertex 1.7619 0.29127 0.086155
  endloop
endfacet
facet normal 0.940153 0.255413 0.225558
  outer loop
    vertex 1.7675 0.29606 0.052509
    vertex 1.7397 0.39182 0.059948
    vertex 1.7331 0.38677 0.09317599999999999
  endloop
endfacet
facet normal 0.285337 -0.956697 -0.0575607
  outer loop
    vertex 1.7619 0.29127 0.086155
    vertex 1.8622 0.32208 0.07127500000000001
    vertex 1.8554 0.31774 0.1097
  endloop
endfacet
facet normal 0.280317 -0.955735 -0.0894072
  outer loop
    vertex 1.7675 0.29606 0.052509
    vertex 1.8622 0.32208 0.07127500000000001
    vertex 1.7619 0.29127 0.086155
  endloop
endfacet
facet normal 0.285042 -0.956866 -0.0561994
  outer loop
    vertex 1.7331 0.38677 0.09317599999999999
    vertex 1.8266 0.41324 0.11672
    vertex 1.8168 0.40809 0.1547
  endloop
endfacet
facet normal 0.301345 -0.950092 -0.0807264
  outer loop
    vertex 1.7331 0.38677 0.09317599999999999
    vertex 1.8168 0.40809 0.1547
    vertex 1.7248 0.38134 0.1261
  endloop
endfacet
facet normal 0.922932 0.269685 0.274713
  outer loop
    vertex 1.8466 0.31285 0.14808
    vertex 1.8266 0.41324 0.11672
    vertex 1.8168 0.40809 0.1547
  endloop
endfacet
facet normal 0.932541 0.263046 0.247333
  outer loop
    vertex 1.8554 0.31774 0.1097
    vertex 1.8266 0.41324 0.11672
    vertex 1.8466 0.31285 0.14808
  endloop
endfacet
facet normal 0.929754 0.273805 0.246145
  outer loop
    vertex 1.7619 0.29127 0.086155
    vertex 1.7248 0.38134 0.1261
    vertex 1.7546 0.2861 0.11948
  endloop
endfacet
facet normal 0.925634 0.25885 0.276039
  outer loop
    vertex 1.7619 0.29127 0.086155
    vertex 1.7331 0.38677 0.09317599999999999
    vertex 1.7248 0.38134 0.1261
  endloop
endfacet
facet normal 0.294261 -0.954192 -0.0541038
  outer loop
    vertex 1.7546 0.2861 0.11948
    vertex 1.8554 0.31774 0.1097
    vertex 1.8466 0.31285 0.14808
  endloop
endfacet
facet normal 0.290983 -0.953024 -0.0841098
  outer loop
    vertex 1.7619 0.29127 0.086155
    vertex 1.8554 0.31774 0.1097
    vertex 1.7546 0.2861 0.11948
  endloop
endfacet
facet normal 0.294092 -0.95428 -0.0534771
  outer loop
    vertex 1.7248 0.38134 0.1261
    vertex 1.8168 0.40809 0.1547
    vertex 1.8051 0.40238 0.19225
  endloop
endfacet
facet normal 0.311516 -0.947124 -0.0769048
  outer loop
    vertex 1.7248 0.38134 0.1261
    vertex 1.8051 0.40238 0.19225
    vertex 1.7149 0.37544 0.15866
  endloop
endfacet
facet normal 0.906205 0.272021 0.323724
  outer loop
    vertex 1.8358 0.30739 0.18613
    vertex 1.8168 0.40809 0.1547
    vertex 1.8051 0.40238 0.19225
  endloop
endfacet
facet normal 0.916622 0.266067 0.298351
  outer loop
    vertex 1.8466 0.31285 0.14808
    vertex 1.8168 0.40809 0.1547
    vertex 1.8358 0.30739 0.18613
  endloop
endfacet
facet normal 0.913863 0.275155 0.298572
  outer loop
    vertex 1.7546 0.2861 0.11948
    vertex 1.7149 0.37544 0.15866
    vertex 1.7455 0.28045 0.15254
  endloop
endfacet
facet normal 0.909112 0.261943 0.323884
  outer loop
    vertex 1.7546 0.2861 0.11948
    vertex 1.7248 0.38134 0.1261
    vertex 1.7149 0.37544 0.15866
  endloop
endfacet
facet normal 0.302768 -0.951718 -0.0506304
  outer loop
    vertex 1.7455 0.28045 0.15254
    vertex 1.8466 0.31285 0.14808
    vertex 1.8358 0.30739 0.18613
  endloop
endfacet
facet normal 0.301035 -0.95029 -0.0795439
  outer loop
    vertex 1.7546 0.2861 0.11948
    vertex 1.8466 0.31285 0.14808
    vertex 1.7455 0.28045 0.15254
  endloop
endfacet
facet normal 0.302209 -0.952034 -0.047975
  outer loop
    vertex 1.7149 0.37544 0.15866
    vertex 1.8051 0.40238 0.19225
    vertex 1.7917 0.39628 0.22889
  endloop
endfacet
facet normal 0.320047 -0.94484 -0.0696161
  outer loop
    vertex 1.7149 0.37544 0.15866
    vertex 1.7917 0.39628 0.22889
    vertex 1.7033 0.36915 0.1907
  endloop
endfacet
facet normal 0.887843 0.273289 0.370201
  outer loop
    vertex 1.8231 0.30149 0.22356
    vertex 1.8051 0.40238 0.19225
    vertex 1.7917 0.39628 0.22889
  endloop
endfacet
facet normal 0.898669 0.268075 0.347174
  outer loop
    vertex 1.8358 0.30739 0.18613
    vertex 1.8051 0.40238 0.19225
    vertex 1.8231 0.30149 0.22356
  endloop
endfacet
facet normal 0.896204 0.277446 0.346183
  outer loop
    vertex 1.7455 0.28045 0.15254
    vertex 1.7033 0.36915 0.1907
    vertex 1.7347 0.27436 0.18538
  endloop
endfacet
facet normal 0.889652 0.26252 0.373633
  outer loop
    vertex 1.7455 0.28045 0.15254
    vertex 1.7149 0.37544 0.15866
    vertex 1.7033 0.36915 0.1907
  endloop
endfacet
facet normal 0.310545 -0.949526 -0.0443036
  outer loop
    vertex 1.7347 0.27436 0.18538
    vertex 1.8358 0.30739 0.18613
    vertex 1.8231 0.30149 0.22356
  endloop
endfacet
facet normal 0.310201 -0.947806 -0.0737505
  outer loop
    vertex 1.7455 0.28045 0.15254
    vertex 1.8358 0.30739 0.18613
    vertex 1.7347 0.27436 0.18538
  endloop
endfacet
facet normal 0.308169 -0.95057 -0.0380514
  outer loop
    vertex 1.7033 0.36915 0.1907
    vertex 1.7917 0.39628 0.22889
    vertex 1.7766 0.38996 0.26448
  endloop
endfacet
facet normal 0.327706 -0.942897 -0.0596252
  outer loop
    vertex 1.7033 0.36915 0.1907
    vertex 1.7766 0.38996 0.26448
    vertex 1.6903 0.36265 0.22204
  endloop
endfacet
facet normal 0.866678 0.27462 0.416477
  outer loop
    vertex 1.8086 0.29531 0.2603
    vertex 1.7917 0.39628 0.22889
    vertex 1.7766 0.38996 0.26448
  endloop
endfacet
facet normal 0.879495 0.269276 0.392401
  outer loop
    vertex 1.8231 0.30149 0.22356
    vertex 1.7917 0.39628 0.22889
    vertex 1.8086 0.29531 0.2603
  endloop
endfacet
facet normal 0.877503 0.279462 0.38973
  outer loop
    vertex 1.7347 0.27436 0.18538
    vertex 1.6903 0.36265 0.22204
    vertex 1.7223 0.268 0.21786
  endloop
endfacet
facet normal 0.870022 0.264864 0.415823
  outer loop
    vertex 1.7347 0.27436 0.18538
    vertex 1.7033 0.36915 0.1907
    vertex 1.6903 0.36265 0.22204
  endloop
endfacet
facet normal 0.31686 -0.947849 -0.0343833
  outer loop
    vertex 1.7223 0.268 0.21786
    vertex 1.8231 0.30149 0.22356
    vertex 1.8086 0.29531 0.2603
  endloop
endfacet
facet normal 0.317902 -0.94597 -0.0638663
  outer loop
    vertex 1.7347 0.27436 0.18538
    vertex 1.8231 0.30149 0.22356
    vertex 1.7223 0.268 0.21786
  endloop
endfacet
facet normal 0.313153 -0.94935 -0.0258801
  outer loop
    vertex 1.6903 0.36265 0.22204
    vertex 1.7766 0.38996 0.26448
    vertex 1.76 0.38354 0.29912
  endloop
endfacet
facet normal 0.332546 -0.941993 -0.0454105
  outer loop
    vertex 1.6903 0.36265 0.22204
    vertex 1.76 0.38354 0.29912
    vertex 1.6759 0.3561 0.25246
  endloop
endfacet
facet normal 0.845767 0.276209 0.456495
  outer loop
    vertex 1.7924 0.28899 0.2963
    vertex 1.7766 0.38996 0.26448
    vertex 1.76 0.38354 0.29912
  endloop
endfacet
facet normal 0.859019 0.271249 0.434178
  outer loop
    vertex 1.8086 0.29531 0.2603
    vertex 1.7766 0.38996 0.26448
    vertex 1.7924 0.28899 0.2963
  endloop
endfacet
facet normal 0.856792 0.281594 0.431986
  outer loop
    vertex 1.7223 0.268 0.21786
    vertex 1.6759 0.3561 0.25246
    vertex 1.7084 0.26154 0.24964
  endloop
endfacet
facet normal 0.847754 0.26636 0.458656
  outer loop
    vertex 1.7223 0.268 0.21786
    vertex 1.6903 0.36265 0.22204
    vertex 1.6759 0.3561 0.25246
  endloop
endfacet
facet normal 0.321362 -0.94671 -0.0215871
  outer loop
    vertex 1.7084 0.26154 0.24964
    vertex 1.8086 0.29531 0.2603
    vertex 1.7924 0.28899 0.2963
  endloop
endfacet
facet normal 0.323783 -0.944786 -0.0504323
  outer loop
    vertex 1.7223 0.268 0.21786
    vertex 1.8086 0.29531 0.2603
    vertex 1.7084 0.26154 0.24964
  endloop
endfacet
facet normal 0.316119 -0.948645 -0.0118893
  outer loop
    vertex 1.6759 0.3561 0.25246
    vertex 1.76 0.38354 0.29912
    vertex 1.7417 0.37702 0.33278
  endloop
endfacet
facet normal 0.337598 -0.940762 -0.0315388
  outer loop
    vertex 1.6759 0.3561 0.25246
    vertex 1.7417 0.37702 0.33278
    vertex 1.6602 0.34948 0.28187
  endloop
endfacet
facet normal 0.820401 0.277705 0.499821
  outer loop
    vertex 1.7746 0.28258 0.33125
    vertex 1.76 0.38354 0.29912
    vertex 1.7417 0.37702 0.33278
  endloop
endfacet
facet normal 0.836276 0.272379 0.47587
  outer loop
    vertex 1.7924 0.28899 0.2963
    vertex 1.76 0.38354 0.29912
    vertex 1.7746 0.28258 0.33125
  endloop
endfacet
facet normal 0.832565 0.28148 0.47708
  outer loop
    vertex 1.7084 0.26154 0.24964
    vertex 1.6602 0.34948 0.28187
    vertex 1.693 0.25504 0.28035
  endloop
endfacet
facet normal 0.823497 0.268124 0.499962
  outer loop
    vertex 1.7084 0.26154 0.24964
    vertex 1.6759 0.3561 0.25246
    vertex 1.6602 0.34948 0.28187
  endloop
endfacet
facet normal 0.324393 -0.945886 -0.00826695
  outer loop
    vertex 1.693 0.25504 0.28035
    vertex 1.7924 0.28899 0.2963
    vertex 1.7746 0.28258 0.33125
  endloop
endfacet
facet normal 0.328081 -0.943991 -0.0352815
  outer loop
    vertex 1.7084 0.26154 0.24964
    vertex 1.7924 0.28899 0.2963
    vertex 1.693 0.25504 0.28035
  endloop
endfacet
facet normal 0.320642 -0.9472 -0.000912191
  outer loop
    vertex 1.6602 0.34948 0.28187
    vertex 1.7417 0.37702 0.33278
    vertex 1.722 0.37032 0.36522
  endloop
endfacet
facet normal 0.342426 -0.939352 -0.0190265
  outer loop
    vertex 1.6602 0.34948 0.28187
    vertex 1.722 0.37032 0.36522
    vertex 1.6431 0.34267 0.31033
  endloop
endfacet
facet normal 0.794219 0.278805 0.539892
  outer loop
    vertex 1.7555 0.27611 0.36459
    vertex 1.7417 0.37702 0.33278
    vertex 1.722 0.37032 0.36522
  endloop
endfacet
facet normal 0.810595 0.274002 0.517551
  outer loop
    vertex 1.7746 0.28258 0.33125
    vertex 1.7417 0.37702 0.33278
    vertex 1.7555 0.27611 0.36459
  endloop
endfacet
facet normal 0.808483 0.28404 0.515438
  outer loop
    vertex 1.693 0.25504 0.28035
    vertex 1.6431 0.34267 0.31033
    vertex 1.6766 0.24846 0.3097
  endloop
endfacet
facet normal 0.79623 0.267808 0.542491
  outer loop
    vertex 1.693 0.25504 0.28035
    vertex 1.6602 0.34948 0.28187
    vertex 1.6431 0.34267 0.31033
  endloop
endfacet
facet normal 0.327913 -0.944697 0.00452765
  outer loop
    vertex 1.6766 0.24846 0.3097
    vertex 1.7746 0.28258 0.33125
    vertex 1.7555 0.27611 0.36459
  endloop
endfacet
facet normal 0.333578 -0.942394 -0.0248814
  outer loop
    vertex 1.693 0.25504 0.28035
    vertex 1.7746 0.28258 0.33125
    vertex 1.6766 0.24846 0.3097
  endloop
endfacet
facet normal 0.324642 -0.945786 0.00977835
  outer loop
    vertex 1.6431 0.34267 0.31033
    vertex 1.722 0.37032 0.36522
    vertex 1.7209 0.36996 0.36692
  endloop
endfacet
facet normal 0.346313 -0.937816 -0.0238583
  outer loop
    vertex 1.6431 0.34267 0.31033
    vertex 1.7209 0.36996 0.36692
    vertex 1.6422 0.3423 0.31181
  endloop
endfacet
facet normal 0.78009 0.273559 0.562694
  outer loop
    vertex 1.7542 0.2757 0.36658
    vertex 1.722 0.37032 0.36522
    vertex 1.7209 0.36996 0.36692
  endloop
endfacet
facet normal 0.778639 0.273097 0.564925
  outer loop
    vertex 1.7555 0.27611 0.36459
    vertex 1.722 0.37032 0.36522
    vertex 1.7542 0.2757 0.36658
  endloop
endfacet
facet normal 0.7871 0.276134 0.551565
  outer loop
    vertex 1.6766 0.24846 0.3097
    vertex 1.6422 0.3423 0.31181
    vertex 1.6755 0.24804 0.31148
  endloop
endfacet
facet normal 0.788759 0.276804 0.548852
  outer loop
    vertex 1.6766 0.24846 0.3097
    vertex 1.6431 0.34267 0.31033
    vertex 1.6422 0.3423 0.31181
  endloop
endfacet
facet normal 0.321433 -0.946815 0.014909
  outer loop
    vertex 1.6766 0.24846 0.3097
    vertex 1.7555 0.27611 0.36459
    vertex 1.7542 0.2757 0.36658
  endloop
endfacet
facet normal 0.339218 -0.940627 -0.012317
  outer loop
    vertex 1.6766 0.24846 0.3097
    vertex 1.7542 0.2757 0.36658
    vertex 1.6755 0.24804 0.31148
  endloop
endfacet
facet normal 0.325929 -0.945351 0.0090333
  outer loop
    vertex 1.6422 0.3423 0.31181
    vertex 1.7209 0.36996 0.36692
    vertex 1.7013 0.36348 0.39596
  endloop
endfacet
facet normal 0.349905 -0.936732 -0.00997472
  outer loop
    vertex 1.6422 0.3423 0.31181
    vertex 1.7013 0.36348 0.39596
    vertex 1.625 0.3356 0.33765
  endloop
endfacet
facet normal 0.765761 0.279517 0.579207
  outer loop
    vertex 1.7354 0.26948 0.39624
    vertex 1.7209 0.36996 0.36692
    vertex 1.7013 0.36348 0.39596
  endloop
endfacet
facet normal 0.784845 0.275266 0.5552
  outer loop
    vertex 1.7542 0.2757 0.36658
    vertex 1.7209 0.36996 0.36692
    vertex 1.7354 0.26948 0.39624
  endloop
endfacet
facet normal 0.781908 0.285301 0.554277
  outer loop
    vertex 1.6755 0.24804 0.31148
    vertex 1.625 0.3356 0.33765
    vertex 1.6591 0.2416 0.33793
  endloop
endfacet
facet normal 0.768026 0.269293 0.581049
  outer loop
    vertex 1.6755 0.24804 0.31148
    vertex 1.6422 0.3423 0.31181
    vertex 1.625 0.3356 0.33765
  endloop
endfacet
facet normal 0.33378 -0.942548 0.013905
  outer loop
    vertex 1.6591 0.2416 0.33793
    vertex 1.7542 0.2757 0.36658
    vertex 1.7354 0.26948 0.39624
  endloop
endfacet
facet normal 0.341946 -0.93957 -0.0167453
  outer loop
    vertex 1.6755 0.24804 0.31148
    vertex 1.7542 0.2757 0.36658
    vertex 1.6591 0.2416 0.33793
  endloop
endfacet
facet normal 0.332685 -0.94291 0.0155113
  outer loop
    vertex 1.625 0.3356 0.33765
    vertex 1.7013 0.36348 0.39596
    vertex 1.6799 0.35641 0.42517
  endloop
endfacet
facet normal 0.358987 -0.933337 -0.00326386
  outer loop
    vertex 1.625 0.3356 0.33765
    vertex 1.6799 0.35641 0.42517
    vertex 1.606 0.3282 0.36398
  endloop
endfacet
facet normal 0.739801 0.282885 0.610467
  outer loop
    vertex 1.7149 0.26272 0.42617
    vertex 1.7013 0.36348 0.39596
    vertex 1.6799 0.35641 0.42517
  endloop
endfacet
facet normal 0.762019 0.278177 0.58476
  outer loop
    vertex 1.7354 0.26948 0.39624
    vertex 1.7013 0.36348 0.39596
    vertex 1.7149 0.26272 0.42617
  endloop
endfacet
facet normal 0.75866 0.289643 0.58356
  outer loop
    vertex 1.6591 0.2416 0.33793
    vertex 1.606 0.3282 0.36398
    vertex 1.641 0.23451 0.36498
  endloop
endfacet
facet normal 0.742723 0.271258 0.612194
  outer loop
    vertex 1.6591 0.2416 0.33793
    vertex 1.625 0.3356 0.33765
    vertex 1.606 0.3282 0.36398
  endloop
endfacet
facet normal 0.341073 -0.939795 0.021349
  outer loop
    vertex 1.641 0.23451 0.36498
    vertex 1.7354 0.26948 0.39624
    vertex 1.7149 0.26272 0.42617
  endloop
endfacet
facet normal 0.35053 -0.936488 -0.0109097
  outer loop
    vertex 1.6591 0.2416 0.33793
    vertex 1.7354 0.26948 0.39624
    vertex 1.641 0.23451 0.36498
  endloop
endfacet
facet normal 0.340308 -0.940047 0.0223885
  outer loop
    vertex 1.606 0.3282 0.36398
    vertex 1.6799 0.35641 0.42517
    vertex 1.6581 0.34918 0.45296
  endloop
endfacet
facet normal 0.368081 -0.929786 0.00370764
  outer loop
    vertex 1.606 0.3282 0.36398
    vertex 1.6581 0.34918 0.45296
    vertex 1.5866 0.32062 0.38906
  endloop
endfacet
facet normal 0.716323 0.286188 0.636379
  outer loop
    vertex 1.6937 0.25576 0.4549
    vertex 1.6799 0.35641 0.42517
    vertex 1.6581 0.34918 0.45296
  endloop
endfacet
facet normal 0.737997 0.282238 0.612945
  outer loop
    vertex 1.7149 0.26272 0.42617
    vertex 1.6799 0.35641 0.42517
    vertex 1.6937 0.25576 0.4549
  endloop
endfacet
facet normal 0.734218 0.292515 0.612666
  outer loop
    vertex 1.641 0.23451 0.36498
    vertex 1.5866 0.32062 0.38906
    vertex 1.6222 0.2272 0.391
  endloop
endfacet
facet normal 0.718404 0.275195 0.638876
  outer loop
    vertex 1.641 0.23451 0.36498
    vertex 1.606 0.3282 0.36398
    vertex 1.5866 0.32062 0.38906
  endloop
endfacet
facet normal 0.347821 -0.937092 0.0296428
  outer loop
    vertex 1.6222 0.2272 0.391
    vertex 1.7149 0.26272 0.42617
    vertex 1.6937 0.25576 0.4549
  endloop
endfacet
facet normal 0.358793 -0.933412 -0.002995
  outer loop
    vertex 1.641 0.23451 0.36498
    vertex 1.7149 0.26272 0.42617
    vertex 1.6222 0.2272 0.391
  endloop
endfacet
facet normal 0.344879 -0.938054 0.0333647
  outer loop
    vertex 1.5866 0.32062 0.38906
    vertex 1.6581 0.34918 0.45296
    vertex 1.6356 0.34185 0.47945
  endloop
endfacet
facet normal 0.374468 -0.927122 0.0147567
  outer loop
    vertex 1.5866 0.32062 0.38906
    vertex 1.6356 0.34185 0.47945
    vertex 1.5669 0.31304 0.41274
  endloop
endfacet
facet normal 0.688997 0.288248 0.664979
  outer loop
    vertex 1.6715 0.24861 0.48267
    vertex 1.6581 0.34918 0.45296
    vertex 1.6356 0.34185 0.47945
  endloop
endfacet
facet normal 0.711728 0.284559 0.642238
  outer loop
    vertex 1.6937 0.25576 0.4549
    vertex 1.6581 0.34918 0.45296
    vertex 1.6715 0.24861 0.48267
  endloop
endfacet
facet normal 0.709904 0.295412 0.63935
  outer loop
    vertex 1.6222 0.2272 0.391
    vertex 1.5669 0.31304 0.41274
    vertex 1.6028 0.2198 0.41596
  endloop
endfacet
facet normal 0.69288 0.277856 0.665367
  outer loop
    vertex 1.6222 0.2272 0.391
    vertex 1.5866 0.32062 0.38906
    vertex 1.5669 0.31304 0.41274
  endloop
endfacet
facet normal 0.352339 -0.934977 0.040938
  outer loop
    vertex 1.6028 0.2198 0.41596
    vertex 1.6937 0.25576 0.4549
    vertex 1.6715 0.24861 0.48267
  endloop
endfacet
facet normal 0.365001 -0.930975 0.00768471
  outer loop
    vertex 1.6222 0.2272 0.391
    vertex 1.6937 0.25576 0.4549
    vertex 1.6028 0.2198 0.41596
  endloop
endfacet
facet normal 0.346511 -0.93683 0.0477405
  outer loop
    vertex 1.5669 0.31304 0.41274
    vertex 1.6356 0.34185 0.47945
    vertex 1.6124 0.33455 0.50459
  endloop
endfacet
facet normal 0.375905 -0.92615 0.0306785
  outer loop
    vertex 1.5669 0.31304 0.41274
    vertex 1.6124 0.33455 0.50459
    vertex 1.5466 0.30554 0.43506
  endloop
endfacet
facet normal 0.65957 0.290797 0.693112
  outer loop
    vertex 1.6485 0.24142 0.50931
    vertex 1.6356 0.34185 0.47945
    vertex 1.6124 0.33455 0.50459
  endloop
endfacet
facet normal 0.685403 0.28701 0.669214
  outer loop
    vertex 1.6715 0.24861 0.48267
    vertex 1.6356 0.34185 0.47945
    vertex 1.6485 0.24142 0.50931
  endloop
endfacet
facet normal 0.681898 0.298175 0.667912
  outer loop
    vertex 1.6028 0.2198 0.41596
    vertex 1.5466 0.30554 0.43506
    vertex 1.5827 0.21241 0.43978
  endloop
endfacet
facet normal 0.661937 0.278891 0.695744
  outer loop
    vertex 1.6028 0.2198 0.41596
    vertex 1.5669 0.31304 0.41274
    vertex 1.5466 0.30554 0.43506
  endloop
endfacet
facet normal 0.354442 -0.933514 0.0540619
  outer loop
    vertex 1.5827 0.21241 0.43978
    vertex 1.6715 0.24861 0.48267
    vertex 1.6485 0.24142 0.50931
  endloop
endfacet
facet normal 0.368153 -0.929498 0.0222869
  outer loop
    vertex 1.6028 0.2198 0.41596
    vertex 1.6715 0.24861 0.48267
    vertex 1.5827 0.21241 0.43978
  endloop
endfacet
facet normal 0.346296 -0.93602 0.0628166
  outer loop
    vertex 1.5466 0.30554 0.43506
    vertex 1.6124 0.33455 0.50459
    vertex 1.5886 0.32734 0.5283600000000001
  endloop
endfacet
facet normal 0.377439 -0.924881 0.0461947
  outer loop
    vertex 1.5466 0.30554 0.43506
    vertex 1.5886 0.32734 0.5283600000000001
    vertex 1.5258 0.29811 0.45625
  endloop
endfacet
facet normal 0.629924 0.292543 0.719454
  outer loop
    vertex 1.6247 0.23431 0.5345800000000001
    vertex 1.6124 0.33455 0.50459
    vertex 1.5886 0.32734 0.5283600000000001
  endloop
endfacet
facet normal 0.654894 0.289242 0.698179
  outer loop
    vertex 1.6485 0.24142 0.50931
    vertex 1.6124 0.33455 0.50459
    vertex 1.6247 0.23431 0.5345800000000001
  endloop
endfacet
facet normal 0.652984 0.299888 0.695471
  outer loop
    vertex 1.5827 0.21241 0.43978
    vertex 1.5258 0.29811 0.45625
    vertex 1.5619 0.20508 0.46247
  endloop
endfacet
facet normal 0.633379 0.282039 0.720615
  outer loop
    vertex 1.5827 0.21241 0.43978
    vertex 1.5466 0.30554 0.43506
    vertex 1.5258 0.29811 0.45625
  endloop
endfacet
facet normal 0.353384 -0.932828 0.0703654
  outer loop
    vertex 1.6247 0.23431 0.5345800000000001
    vertex 1.5619 0.20508 0.46247
    vertex 1.6485 0.24142 0.50931
  endloop
endfacet
facet normal 0.368994 -0.928644 0.0382595
  outer loop
    vertex 1.5619 0.20508 0.46247
    vertex 1.5827 0.21241 0.43978
    vertex 1.6485 0.24142 0.50931
  endloop
endfacet
facet normal 0.346601 -0.93484 0.0770879
  outer loop
    vertex 1.5641 0.32012 0.55096
    vertex 1.5258 0.29811 0.45625
    vertex 1.5886 0.32734 0.5283600000000001
  endloop
endfacet
facet normal 0.377969 -0.923752 0.0618264
  outer loop
    vertex 1.5641 0.32012 0.55096
    vertex 1.5042 0.29063 0.47654
    vertex 1.5258 0.29811 0.45625
  endloop
endfacet
facet normal 0.599473 0.294907 0.744085
  outer loop
    vertex 1.5641 0.32012 0.55096
    vertex 1.6005 0.22728 0.55843
    vertex 1.5886 0.32734 0.5283600000000001
  endloop
endfacet
facet normal 0.627109 0.291639 0.722275
  outer loop
    vertex 1.6005 0.22728 0.55843
    vertex 1.6247 0.23431 0.5345800000000001
    vertex 1.5886 0.32734 0.5283600000000001
  endloop
endfacet
facet normal 0.624469 0.302767 0.71998
  outer loop
    vertex 1.5042 0.29063 0.47654
    vertex 1.5406 0.19779 0.48401
    vertex 1.5619 0.20508 0.46247
  endloop
endfacet
facet normal 0.602512 0.28368 0.745992
  outer loop
    vertex 1.5258 0.29811 0.45625
    vertex 1.5042 0.29063 0.47654
    vertex 1.5619 0.20508 0.46247
  endloop
endfacet
facet normal 0.353767 -0.931519 0.0843845
  outer loop
    vertex 1.6005 0.22728 0.55843
    vertex 1.5406 0.19779 0.48401
    vertex 1.6247 0.23431 0.5345800000000001
  endloop
endfacet
facet normal 0.370825 -0.927195 0.052893
  outer loop
    vertex 1.5406 0.19779 0.48401
    vertex 1.5619 0.20508 0.46247
    vertex 1.6247 0.23431 0.5345800000000001
  endloop
endfacet
facet normal 0.351825 -0.932091 0.0861735
  outer loop
    vertex 1.5453 0.31454 0.56736
    vertex 1.5042 0.29063 0.47654
    vertex 1.5641 0.32012 0.55096
  endloop
endfacet
facet normal 0.380642 -0.922032 0.0704844
  outer loop
    vertex 1.5453 0.31454 0.56736
    vertex 1.4876 0.2849 0.49123
    vertex 1.5042 0.29063 0.47654
  endloop
endfacet
facet normal 0.576531 0.295945 0.761596
  outer loop
    vertex 1.5453 0.31454 0.56736
    vertex 1.5819 0.22188 0.5756599999999999
    vertex 1.5641 0.32012 0.55096
  endloop
endfacet
facet normal 0.601612 0.295585 0.742086
  outer loop
    vertex 1.5819 0.22188 0.5756599999999999
    vertex 1.6005 0.22728 0.55843
    vertex 1.5641 0.32012 0.55096
  endloop
endfacet
facet normal 0.599149 0.303118 0.74104
  outer loop
    vertex 1.4876 0.2849 0.49123
    vertex 1.5242 0.19224 0.49954
    vertex 1.5406 0.19779 0.48401
  endloop
endfacet
facet normal 0.577061 0.287749 0.764331
  outer loop
    vertex 1.5042 0.29063 0.47654
    vertex 1.4876 0.2849 0.49123
    vertex 1.5406 0.19779 0.48401
  endloop
endfacet
facet normal 0.355698 -0.930011 0.0925086
  outer loop
    vertex 1.5819 0.22188 0.5756599999999999
    vertex 1.5242 0.19224 0.49954
    vertex 1.6005 0.22728 0.55843
  endloop
endfacet
facet normal 0.374574 -0.924914 0.065019
  outer loop
    vertex 1.5242 0.19224 0.49954
    vertex 1.5406 0.19779 0.48401
    vertex 1.6005 0.22728 0.55843
  endloop
endfacet
facet normal 0.350594 -0.931497 0.0969431
  outer loop
    vertex 1.539 0.31271 0.57256
    vertex 1.4876 0.2849 0.49123
    vertex 1.5453 0.31454 0.56736
  endloop
endfacet
facet normal 0.378177 -0.92257 0.0764586
  outer loop
    vertex 1.539 0.31271 0.57256
    vertex 1.4821 0.28303 0.49587
    vertex 1.4876 0.2849 0.49123
  endloop
endfacet
facet normal 0.556678 0.292715 0.77745
  outer loop
    vertex 1.539 0.31271 0.57256
    vertex 1.5757 0.2201 0.5811500000000001
    vertex 1.5453 0.31454 0.56736
  endloop
endfacet
facet normal 0.583396 0.298111 0.755499
  outer loop
    vertex 1.5757 0.2201 0.5811500000000001
    vertex 1.5819 0.22188 0.5756599999999999
    vertex 1.5453 0.31454 0.56736
  endloop
endfacet
facet normal 0.584615 0.301536 0.753194
  outer loop
    vertex 1.4821 0.28303 0.49587
    vertex 1.5188 0.19042 0.50446
    vertex 1.5242 0.19224 0.49954
  endloop
endfacet
facet normal 0.557591 0.29 0.777812
  outer loop
    vertex 1.4876 0.2849 0.49123
    vertex 1.4821 0.28303 0.49587
    vertex 1.5242 0.19224 0.49954
  endloop
endfacet
facet normal 0.353586 -0.930287 0.0976905
  outer loop
    vertex 1.5757 0.2201 0.5811500000000001
    vertex 1.5188 0.19042 0.50446
    vertex 1.5819 0.22188 0.5756599999999999
  endloop
endfacet
facet normal 0.377707 -0.923034 0.0731088
  outer loop
    vertex 1.5188 0.19042 0.50446
    vertex 1.5242 0.19224 0.49954
    vertex 1.5819 0.22188 0.5756599999999999
  endloop
endfacet
facet normal 0.355905 -0.929608 0.0957068
  outer loop
    vertex 1.513 0.30489 0.59329
    vertex 1.4821 0.28303 0.49587
    vertex 1.539 0.31271 0.57256
  endloop
endfacet
facet normal 0.38676 -0.918401 0.0834055
  outer loop
    vertex 1.513 0.30489 0.59329
    vertex 1.4595 0.27518 0.51423
    vertex 1.4821 0.28303 0.49587
  endloop
endfacet
facet normal 0.53844 0.298628 0.787974
  outer loop
    vertex 1.513 0.30489 0.59329
    vertex 1.5504 0.2126 0.60271
    vertex 1.539 0.31271 0.57256
  endloop
endfacet
facet normal 0.567175 0.29605 0.768549
  outer loop
    vertex 1.5504 0.2126 0.60271
    vertex 1.5757 0.2201 0.5811500000000001
    vertex 1.539 0.31271 0.57256
  endloop
endfacet
facet normal 0.564008 0.306194 0.766903
  outer loop
    vertex 1.4595 0.27518 0.51423
    vertex 1.4968 0.18288 0.5236499999999999
    vertex 1.5188 0.19042 0.50446
  endloop
endfacet
facet normal 0.541619 0.287892 0.789789
  outer loop
    vertex 1.4821 0.28303 0.49587
    vertex 1.4595 0.27518 0.51423
    vertex 1.5188 0.19042 0.50446
  endloop
endfacet
facet normal 0.362172 -0.926434 0.102722
  outer loop
    vertex 1.5504 0.2126 0.60271
    vertex 1.4968 0.18288 0.5236499999999999
    vertex 1.5757 0.2201 0.5811500000000001
  endloop
endfacet
facet normal 0.380682 -0.921719 0.0742704
  outer loop
    vertex 1.4968 0.18288 0.5236499999999999
    vertex 1.5188 0.19042 0.50446
    vertex 1.5757 0.2201 0.5811500000000001
  endloop
endfacet
facet normal 0.36148 -0.926607 0.103596
  outer loop
    vertex 1.4866 0.29676 0.61269
    vertex 1.4595 0.27518 0.51423
    vertex 1.513 0.30489 0.59329
  endloop
endfacet
facet normal 0.392975 -0.914899 0.0923612
  outer loop
    vertex 1.4866 0.29676 0.61269
    vertex 1.4367 0.26711 0.5313
    vertex 1.4595 0.27518 0.51423
  endloop
endfacet
facet normal 0.503885 0.298198 0.810665
  outer loop
    vertex 1.4866 0.29676 0.61269
    vertex 1.5244 0.20475 0.62304
    vertex 1.513 0.30489 0.59329
  endloop
endfacet
facet normal 0.531199 0.296283 0.793753
  outer loop
    vertex 1.5244 0.20475 0.62304
    vertex 1.5504 0.2126 0.60271
    vertex 1.513 0.30489 0.59329
  endloop
endfacet
facet normal 0.529518 0.305964 0.7912
  outer loop
    vertex 1.4367 0.26711 0.5313
    vertex 1.4744 0.1751 0.54165
    vertex 1.4968 0.18288 0.5236499999999999
  endloop
endfacet
facet normal 0.506653 0.287693 0.812734
  outer loop
    vertex 1.4595 0.27518 0.51423
    vertex 1.4367 0.26711 0.5313
    vertex 1.4968 0.18288 0.5236499999999999
  endloop
endfacet
facet normal 0.366181 -0.923828 0.111592
  outer loop
    vertex 1.5244 0.20475 0.62304
    vertex 1.4744 0.1751 0.54165
    vertex 1.5504 0.2126 0.60271
  endloop
endfacet
facet normal 0.386175 -0.918637 0.0835178
  outer loop
    vertex 1.4744 0.1751 0.54165
    vertex 1.4968 0.18288 0.5236499999999999
    vertex 1.5504 0.2126 0.60271
  endloop
endfacet
facet normal 0.363962 -0.924457 0.113631
  outer loop
    vertex 1.4603 0.28858 0.6303800000000001
    vertex 1.4367 0.26711 0.5313
    vertex 1.4866 0.29676 0.61269
  endloop
endfacet
facet normal 0.395612 -0.912566 0.103516
  outer loop
    vertex 1.4603 0.28858 0.6303800000000001
    vertex 1.4138 0.25896 0.54697
    vertex 1.4367 0.26711 0.5313
  endloop
endfacet
facet normal 0.467528 0.297213 0.832515
  outer loop
    vertex 1.4603 0.28858 0.6303800000000001
    vertex 1.4983 0.19676 0.6418199999999999
    vertex 1.4866 0.29676 0.61269
  endloop
endfacet
facet normal 0.496602 0.295808 0.816017
  outer loop
    vertex 1.4983 0.19676 0.6418199999999999
    vertex 1.5244 0.20475 0.62304
    vertex 1.4866 0.29676 0.61269
  endloop
endfacet
facet normal 0.493995 0.305332 0.814089
  outer loop
    vertex 1.4138 0.25896 0.54697
    vertex 1.4517 0.16714 0.55841
    vertex 1.4744 0.1751 0.54165
  endloop
endfacet
facet normal 0.469576 0.286349 0.835166
  outer loop
    vertex 1.4367 0.26711 0.5313
    vertex 1.4138 0.25896 0.54697
    vertex 1.4744 0.1751 0.54165
  endloop
endfacet
facet normal 0.369144 -0.921463 0.120988
  outer loop
    vertex 1.4983 0.19676 0.6418199999999999
    vertex 1.4517 0.16714 0.55841
    vertex 1.5244 0.20475 0.62304
  endloop
endfacet
facet normal 0.390409 -0.91585 0.0938016
  outer loop
    vertex 1.4517 0.16714 0.55841
    vertex 1.4744 0.1751 0.54165
    vertex 1.5244 0.20475 0.62304
  endloop
endfacet
facet normal 0.364081 -0.92297 0.124788
  outer loop
    vertex 1.4348 0.28066 0.6462
    vertex 1.4138 0.25896 0.54697
    vertex 1.4603 0.28858 0.6303800000000001
  endloop
endfacet
facet normal 0.397316 -0.910446 0.115016
  outer loop
    vertex 1.4348 0.28066 0.6462
    vertex 1.3913 0.25094 0.56121
    vertex 1.4138 0.25896 0.54697
  endloop
endfacet
facet normal 0.435119 0.296916 0.850007
  outer loop
    vertex 1.4348 0.28066 0.6462
    vertex 1.4725 0.18894 0.65894
    vertex 1.4603 0.28858 0.6303800000000001
  endloop
endfacet
facet normal 0.46418 0.296109 0.834779
  outer loop
    vertex 1.4725 0.18894 0.65894
    vertex 1.4983 0.19676 0.6418199999999999
    vertex 1.4603 0.28858 0.6303800000000001
  endloop
endfacet
facet normal 0.462871 0.305821 0.832
  outer loop
    vertex 1.3913 0.25094 0.56121
    vertex 1.429 0.15922 0.57395
    vertex 1.4517 0.16714 0.55841
  endloop
endfacet
facet normal 0.437284 0.286697 0.852401
  outer loop
    vertex 1.4138 0.25896 0.54697
    vertex 1.3913 0.25094 0.56121
    vertex 1.4517 0.16714 0.55841
  endloop
endfacet
facet normal 0.367638 -0.920314 0.133657
  outer loop
    vertex 1.4725 0.18894 0.65894
    vertex 1.429 0.15922 0.57395
    vertex 1.4983 0.19676 0.6418199999999999
  endloop
endfacet
facet normal 0.391434 -0.91409 0.105917
  outer loop
    vertex 1.429 0.15922 0.57395
    vertex 1.4517 0.16714 0.55841
    vertex 1.4983 0.19676 0.6418199999999999
  endloop
endfacet
facet normal 0.359083 -0.922905 0.138941
  outer loop
    vertex 1.4101 0.27318 0.66035
    vertex 1.3913 0.25094 0.56121
    vertex 1.4348 0.28066 0.6462
  endloop
endfacet
facet normal 0.393204 -0.910267 0.129636
  outer loop
    vertex 1.4101 0.27318 0.66035
    vertex 1.3694 0.24331 0.57406
    vertex 1.3913 0.25094 0.56121
  endloop
endfacet
facet normal 0.405014 0.29785 0.864436
  outer loop
    vertex 1.4101 0.27318 0.66035
    vertex 1.4474 0.18148 0.67447
    vertex 1.4348 0.28066 0.6462
  endloop
endfacet
facet normal 0.436841 0.297473 0.848928
  outer loop
    vertex 1.4474 0.18148 0.67447
    vertex 1.4725 0.18894 0.65894
    vertex 1.4348 0.28066 0.6462
  endloop
endfacet
facet normal 0.435155 0.307315 0.846284
  outer loop
    vertex 1.3694 0.24331 0.57406
    vertex 1.4067 0.15161 0.58818
    vertex 1.429 0.15922 0.57395
  endloop
endfacet
facet normal 0.407991 0.288036 0.866359
  outer loop
    vertex 1.3913 0.25094 0.56121
    vertex 1.3694 0.24331 0.57406
    vertex 1.429 0.15922 0.57395
  endloop
endfacet
facet normal 0.364093 -0.919745 0.146647
  outer loop
    vertex 1.4474 0.18148 0.67447
    vertex 1.4067 0.15161 0.58818
    vertex 1.4725 0.18894 0.65894
  endloop
endfacet
facet normal 0.388634 -0.913476 0.120519
  outer loop
    vertex 1.4067 0.15161 0.58818
    vertex 1.429 0.15922 0.57395
    vertex 1.4725 0.18894 0.65894
  endloop
endfacet
facet normal 0.354017 -0.922733 0.152434
  outer loop
    vertex 1.3876 0.26653 0.67235
    vertex 1.3694 0.24331 0.57406
    vertex 1.4101 0.27318 0.66035
  endloop
endfacet
facet normal 0.385557 -0.911391 0.143915
  outer loop
    vertex 1.3876 0.26653 0.67235
    vertex 1.3495 0.2366 0.58488
    vertex 1.3694 0.24331 0.57406
  endloop
endfacet
facet normal 0.378799 0.298892 0.875885
  outer loop
    vertex 1.3876 0.26653 0.67235
    vertex 1.4248 0.17493 0.68752
    vertex 1.4101 0.27318 0.66035
  endloop
endfacet
facet normal 0.410487 0.299586 0.861248
  outer loop
    vertex 1.4248 0.17493 0.68752
    vertex 1.4474 0.18148 0.67447
    vertex 1.4101 0.27318 0.66035
  endloop
endfacet
facet normal 0.406946 0.307284 0.860216
  outer loop
    vertex 1.3495 0.2366 0.58488
    vertex 1.3866 0.145 0.60005
    vertex 1.4067 0.15161 0.58818
  endloop
endfacet
facet normal 0.379915 0.289799 0.878454
  outer loop
    vertex 1.3694 0.24331 0.57406
    vertex 1.3495 0.2366 0.58488
    vertex 1.4067 0.15161 0.58818
  endloop
endfacet
facet normal 0.358155 -0.920123 0.158429
  outer loop
    vertex 1.4248 0.17493 0.68752
    vertex 1.3866 0.145 0.60005
    vertex 1.4474 0.18148 0.67447
  endloop
endfacet
facet normal 0.381346 -0.914281 0.136618
  outer loop
    vertex 1.3866 0.145 0.60005
    vertex 1.4067 0.15161 0.58818
    vertex 1.4474 0.18148 0.67447
  endloop
endfacet
facet normal 0.371985 -0.915818 0.151341
  outer loop
    vertex 1.3864 0.26615 0.673
    vertex 1.3495 0.2366 0.58488
    vertex 1.3876 0.26653 0.67235
  endloop
endfacet
facet normal 0.408151 -0.90332 0.132005
  outer loop
    vertex 1.3864 0.26615 0.673
    vertex 1.3485 0.23623 0.58544
    vertex 1.3495 0.2366 0.58488
  endloop
endfacet
facet normal 0.379515 0.299103 0.875503
  outer loop
    vertex 1.3864 0.26615 0.673
    vertex 1.4228 0.17436 0.68858
    vertex 1.3876 0.26653 0.67235
  endloop
endfacet
facet normal 0.37897 0.298946 0.875793
  outer loop
    vertex 1.4228 0.17436 0.68858
    vertex 1.4248 0.17493 0.68752
    vertex 1.3876 0.26653 0.67235
  endloop
endfacet
facet normal 0.394734 0.30372 0.867145
  outer loop
    vertex 1.3485 0.23623 0.58544
    vertex 1.3849 0.14444 0.60102
    vertex 1.3866 0.145 0.60005
  endloop
endfacet
facet normal 0.379733 0.298795 0.875514
  outer loop
    vertex 1.3495 0.2366 0.58488
    vertex 1.3485 0.23623 0.58544
    vertex 1.3866 0.145 0.60005
  endloop
endfacet
facet normal 0.349717 -0.92242 0.163825
  outer loop
    vertex 1.4228 0.17436 0.68858
    vertex 1.3849 0.14444 0.60102
    vertex 1.4248 0.17493 0.68752
  endloop
endfacet
facet normal 0.383146 -0.912264 0.144825
  outer loop
    vertex 1.3849 0.14444 0.60102
    vertex 1.3866 0.145 0.60005
    vertex 1.4248 0.17493 0.68752
  endloop
endfacet
facet normal 0.351486 -0.921914 0.162887
  outer loop
    vertex 1.3629 0.25924 0.6846
    vertex 1.3485 0.23623 0.58544
    vertex 1.3864 0.26615 0.673
  endloop
endfacet
facet normal 0.380548 -0.911467 0.156242
  outer loop
    vertex 1.3629 0.25924 0.6846
    vertex 1.3279 0.2294 0.59577
    vertex 1.3485 0.23623 0.58544
  endloop
endfacet
facet normal 0.350432 0.298509 0.887744
  outer loop
    vertex 1.3629 0.25924 0.6846
    vertex 1.3995 0.16765 0.70095
    vertex 1.3864 0.26615 0.673
  endloop
endfacet
facet normal 0.378899 0.298915 0.875834
  outer loop
    vertex 1.3995 0.16765 0.70095
    vertex 1.4228 0.17436 0.68858
    vertex 1.3864 0.26615 0.673
  endloop
endfacet
facet normal 0.377378 0.30717 0.873632
  outer loop
    vertex 1.3279 0.2294 0.59577
    vertex 1.3646 0.13781 0.61212
    vertex 1.3849 0.14444 0.60102
  endloop
endfacet
facet normal 0.350384 0.290104 0.890545
  outer loop
    vertex 1.3485 0.23623 0.58544
    vertex 1.3279 0.2294 0.59577
    vertex 1.3849 0.14444 0.60102
  endloop
endfacet
facet normal 0.354769 -0.919464 0.169485
  outer loop
    vertex 1.3995 0.16765 0.70095
    vertex 1.3646 0.13781 0.61212
    vertex 1.4228 0.17436 0.68858
  endloop
endfacet
facet normal 0.379225 -0.913397 0.147969
  outer loop
    vertex 1.3646 0.13781 0.61212
    vertex 1.3849 0.14444 0.60102
    vertex 1.4228 0.17436 0.68858
  endloop
endfacet
facet normal 0.352548 -0.920185 0.170203
  outer loop
    vertex 1.3402 0.25245 0.69491
    vertex 1.3279 0.2294 0.59577
    vertex 1.3629 0.25924 0.6846
  endloop
endfacet
facet normal 0.382936 -0.909126 0.163862
  outer loop
    vertex 1.3402 0.25245 0.69491
    vertex 1.3081 0.22272 0.60498
    vertex 1.3279 0.2294 0.59577
  endloop
endfacet
facet normal 0.319841 0.296909 0.899748
  outer loop
    vertex 1.3402 0.25245 0.69491
    vertex 1.3773 0.16115 0.71185
    vertex 1.3629 0.25924 0.6846
  endloop
endfacet
facet normal 0.348965 0.298053 0.888475
  outer loop
    vertex 1.3773 0.16115 0.71185
    vertex 1.3995 0.16765 0.70095
    vertex 1.3629 0.25924 0.6846
  endloop
endfacet
facet normal 0.347516 0.305779 0.886415
  outer loop
    vertex 1.3081 0.22272 0.60498
    vertex 1.3452 0.13142 0.62193
    vertex 1.3646 0.13781 0.61212
  endloop
endfacet
facet normal 0.321556 0.28977 0.901463
  outer loop
    vertex 1.3279 0.2294 0.59577
    vertex 1.3081 0.22272 0.60498
    vertex 1.3646 0.13781 0.61212
  endloop
endfacet
facet normal 0.355445 -0.917866 0.176583
  outer loop
    vertex 1.3773 0.16115 0.71185
    vertex 1.3452 0.13142 0.62193
    vertex 1.3995 0.16765 0.70095
  endloop
endfacet
facet normal 0.379713 -0.911673 0.157068
  outer loop
    vertex 1.3452 0.13142 0.62193
    vertex 1.3646 0.13781 0.61212
    vertex 1.3995 0.16765 0.70095
  endloop
endfacet
facet normal 0.360558 -0.91632 0.174228
  outer loop
    vertex 1.3186 0.2457 0.70411
    vertex 1.3081 0.22272 0.60498
    vertex 1.3402 0.25245 0.69491
  endloop
endfacet
facet normal 0.392395 -0.904311 0.168071
  outer loop
    vertex 1.3186 0.2457 0.70411
    vertex 1.2889 0.21595 0.61338
    vertex 1.3081 0.22272 0.60498
  endloop
endfacet
facet normal 0.294394 0.29631 0.908588
  outer loop
    vertex 1.3186 0.2457 0.70411
    vertex 1.3564 0.15479 0.72151
    vertex 1.3402 0.25245 0.69491
  endloop
endfacet
facet normal 0.324164 0.298294 0.897741
  outer loop
    vertex 1.3564 0.15479 0.72151
    vertex 1.3773 0.16115 0.71185
    vertex 1.3402 0.25245 0.69491
  endloop
endfacet
facet normal 0.323132 0.305804 0.895583
  outer loop
    vertex 1.2889 0.21595 0.61338
    vertex 1.3267 0.12505 0.63078
    vertex 1.3452 0.13142 0.62193
  endloop
endfacet
facet normal 0.296204 0.289351 0.910241
  outer loop
    vertex 1.3081 0.22272 0.60498
    vertex 1.2889 0.21595 0.61338
    vertex 1.3452 0.13142 0.62193
  endloop
endfacet
facet normal 0.362014 -0.914388 0.18122
  outer loop
    vertex 1.3564 0.15479 0.72151
    vertex 1.3267 0.12505 0.63078
    vertex 1.3773 0.16115 0.71185
  endloop
endfacet
facet normal 0.389264 -0.906964 0.160906
  outer loop
    vertex 1.3267 0.12505 0.63078
    vertex 1.3452 0.13142 0.62193
    vertex 1.3773 0.16115 0.71185
  endloop
endfacet
facet normal 0.366598 -0.912931 0.179342
  outer loop
    vertex 1.2978 0.23898 0.7124200000000001
    vertex 1.2889 0.21595 0.61338
    vertex 1.3186 0.2457 0.70411
  endloop
endfacet
facet normal 0.39718 -0.901124 0.173849
  outer loop
    vertex 1.2978 0.23898 0.7124200000000001
    vertex 1.2703 0.20922 0.62099
    vertex 1.2889 0.21595 0.61338
  endloop
endfacet
facet normal 0.270293 0.296208 0.91608
  outer loop
    vertex 1.2978 0.23898 0.7124200000000001
    vertex 1.336 0.14833 0.73046
    vertex 1.3186 0.2457 0.70411
  endloop
endfacet
facet normal 0.302407 0.29897 0.905078
  outer loop
    vertex 1.336 0.14833 0.73046
    vertex 1.3564 0.15479 0.72151
    vertex 1.3186 0.2457 0.70411
  endloop
endfacet
facet normal 0.300385 0.306343 0.903285
  outer loop
    vertex 1.2703 0.20922 0.62099
    vertex 1.3085 0.11857 0.63903
    vertex 1.3267 0.12505 0.63078
  endloop
endfacet
facet normal 0.27127 0.288571 0.918226
  outer loop
    vertex 1.2889 0.21595 0.61338
    vertex 1.2703 0.20922 0.62099
    vertex 1.3267 0.12505 0.63078
  endloop
endfacet
facet normal 0.369597 -0.910546 0.185212
  outer loop
    vertex 1.336 0.14833 0.73046
    vertex 1.3085 0.11857 0.63903
    vertex 1.3564 0.15479 0.72151
  endloop
endfacet
facet normal 0.396711 -0.902797 0.166063
  outer loop
    vertex 1.3085 0.11857 0.63903
    vertex 1.3267 0.12505 0.63078
    vertex 1.3564 0.15479 0.72151
  endloop
endfacet
facet normal 0.367784 -0.91113 0.185948
  outer loop
    vertex 1.2772 0.23223 0.72009
    vertex 1.2703 0.20922 0.62099
    vertex 1.2978 0.23898 0.7124200000000001
  endloop
endfacet
facet normal 0.398268 -0.899222 0.18106
  outer loop
    vertex 1.2772 0.23223 0.72009
    vertex 1.2527 0.20278 0.6277199999999999
    vertex 1.2703 0.20922 0.62099
  endloop
endfacet
facet normal 0.246981 0.29506 0.923006
  outer loop
    vertex 1.2772 0.23223 0.72009
    vertex 1.3148 0.14154 0.73902
    vertex 1.2978 0.23898 0.7124200000000001
  endloop
endfacet
facet normal 0.274003 0.297471 0.914567
  outer loop
    vertex 1.3148 0.14154 0.73902
    vertex 1.336 0.14833 0.73046
    vertex 1.2978 0.23898 0.7124200000000001
  endloop
endfacet
facet normal 0.273807 0.303985 0.912482
  outer loop
    vertex 1.3085 0.11857 0.63903
    vertex 1.2527 0.20278 0.6277199999999999
    vertex 1.2903 0.11209 0.6466499999999999
  endloop
endfacet
facet normal 0.248035 0.28856 0.924777
  outer loop
    vertex 1.3085 0.11857 0.63903
    vertex 1.2703 0.20922 0.62099
    vertex 1.2527 0.20278 0.6277199999999999
  endloop
endfacet
facet normal 0.368843 -0.909421 0.192116
  outer loop
    vertex 1.3148 0.14154 0.73902
    vertex 1.2903 0.11209 0.6466499999999999
    vertex 1.336 0.14833 0.73046
  endloop
endfacet
facet normal 0.394452 -0.902101 0.174988
  outer loop
    vertex 1.2903 0.11209 0.6466499999999999
    vertex 1.3085 0.11857 0.63903
    vertex 1.336 0.14833 0.73046
  endloop
endfacet
facet normal 0.35859 -0.912711 0.195885
  outer loop
    vertex 1.2602 0.22677 0.72577
    vertex 1.2527 0.20278 0.6277199999999999
    vertex 1.2772 0.23223 0.72009
  endloop
endfacet
facet normal 0.381151 -0.904333 0.192109
  outer loop
    vertex 1.2602 0.22677 0.72577
    vertex 1.2389 0.19796 0.63241
    vertex 1.2527 0.20278 0.6277199999999999
  endloop
endfacet
facet normal 0.218242 0.289884 0.931846
  outer loop
    vertex 1.2602 0.22677 0.72577
    vertex 1.2971 0.13592 0.74539
    vertex 1.2772 0.23223 0.72009
  endloop
endfacet
facet normal 0.240138 0.292752 0.925543
  outer loop
    vertex 1.2971 0.13592 0.74539
    vertex 1.3148 0.14154 0.73902
    vertex 1.2772 0.23223 0.72009
  endloop
endfacet
facet normal 0.240707 0.297302 0.923944
  outer loop
    vertex 1.2389 0.19796 0.63241
    vertex 1.2758 0.10711 0.65203
    vertex 1.2903 0.11209 0.6466499999999999
  endloop
endfacet
facet normal 0.217667 0.285088 0.933459
  outer loop
    vertex 1.2527 0.20278 0.6277199999999999
    vertex 1.2389 0.19796 0.63241
    vertex 1.2903 0.11209 0.6466499999999999
  endloop
endfacet
facet normal 0.360872 -0.911171 0.198846
  outer loop
    vertex 1.2971 0.13592 0.74539
    vertex 1.2758 0.10711 0.65203
    vertex 1.3148 0.14154 0.73902
  endloop
endfacet
facet normal 0.380636 -0.905469 0.187729
  outer loop
    vertex 1.2758 0.10711 0.65203
    vertex 1.2903 0.11209 0.6466499999999999
    vertex 1.3148 0.14154 0.73902
  endloop
endfacet
facet normal 0.359819 -0.911511 0.199191
  outer loop
    vertex 1.2564 0.22553 0.7269600000000001
    vertex 1.2389 0.19796 0.63241
    vertex 1.2602 0.22677 0.72577
  endloop
endfacet
facet normal 0.379597 -0.904682 0.193539
  outer loop
    vertex 1.2564 0.22553 0.7269600000000001
    vertex 1.236 0.19694 0.6333299999999999
    vertex 1.2389 0.19796 0.63241
  endloop
endfacet
facet normal 0.200568 0.284901 0.937339
  outer loop
    vertex 1.2564 0.22553 0.7269600000000001
    vertex 1.2917 0.13422 0.74716
    vertex 1.2602 0.22677 0.72577
  endloop
endfacet
facet normal 0.214898 0.288768 0.932969
  outer loop
    vertex 1.2917 0.13422 0.74716
    vertex 1.2971 0.13592 0.74539
    vertex 1.2602 0.22677 0.72577
  endloop
endfacet
facet normal 0.217823 0.290474 0.931761
  outer loop
    vertex 1.236 0.19694 0.6333299999999999
    vertex 1.2714 0.10563 0.65352
    vertex 1.2758 0.10711 0.65203
  endloop
endfacet
facet normal 0.198117 0.283125 0.938398
  outer loop
    vertex 1.2389 0.19796 0.63241
    vertex 1.236 0.19694 0.6333299999999999
    vertex 1.2758 0.10711 0.65203
  endloop
endfacet
facet normal 0.353756 -0.913235 0.202137
  outer loop
    vertex 1.2917 0.13422 0.74716
    vertex 1.2714 0.10563 0.65352
    vertex 1.2971 0.13592 0.74539
  endloop
endfacet
facet normal 0.371458 -0.907666 0.195349
  outer loop
    vertex 1.2714 0.10563 0.65352
    vertex 1.2758 0.10711 0.65203
    vertex 1.2971 0.13592 0.74539
  endloop
endfacet
facet normal 0.345638 -0.915848 0.204348
  outer loop
    vertex 1.2335 0.2183 0.73329
    vertex 1.236 0.19694 0.6333299999999999
    vertex 1.2564 0.22553 0.7269600000000001
  endloop
endfacet
facet normal 0.358346 -0.911106 0.203652
  outer loop
    vertex 1.2335 0.2183 0.73329
    vertex 1.2182 0.19105 0.6383
    vertex 1.236 0.19694 0.6333299999999999
  endloop
endfacet
facet normal 0.173001 0.279033 0.944569
  outer loop
    vertex 1.2335 0.2183 0.73329
    vertex 1.2684 0.12686 0.75391
    vertex 1.2564 0.22553 0.7269600000000001
  endloop
endfacet
facet normal 0.184565 0.27978 0.942156
  outer loop
    vertex 1.2684 0.12686 0.75391
    vertex 1.2917 0.13422 0.74716
    vertex 1.2564 0.22553 0.7269600000000001
  endloop
endfacet
facet normal 0.184435 0.282594 0.941342
  outer loop
    vertex 1.2182 0.19105 0.6383
    vertex 1.2531 0.099619 0.65891
    vertex 1.2714 0.10563 0.65352
  endloop
endfacet
facet normal 0.17267 0.27601 0.945518
  outer loop
    vertex 1.236 0.19694 0.6333299999999999
    vertex 1.2182 0.19105 0.6383
    vertex 1.2714 0.10563 0.65352
  endloop
endfacet
facet normal 0.348526 -0.914368 0.206061
  outer loop
    vertex 1.2684 0.12686 0.75391
    vertex 1.2531 0.099619 0.65891
    vertex 1.2917 0.13422 0.74716
  endloop
endfacet
facet normal 0.358556 -0.911694 0.200626
  outer loop
    vertex 1.2531 0.099619 0.65891
    vertex 1.2714 0.10563 0.65352
    vertex 1.2917 0.13422 0.74716
  endloop
endfacet
facet normal 0.343592 -0.915928 0.207412
  outer loop
    vertex 1.2092 0.21038 0.7385699999999999
    vertex 1.2182 0.19105 0.6383
    vertex 1.2335 0.2183 0.73329
  endloop
endfacet
facet normal 0.34768 -0.914369 0.207479
  outer loop
    vertex 1.2092 0.21038 0.7385699999999999
    vertex 1.1997 0.18493 0.64233
    vertex 1.2182 0.19105 0.6383
  endloop
endfacet
facet normal 0.121956 0.263722 0.956858
  outer loop
    vertex 1.2092 0.21038 0.7385699999999999
    vertex 1.2441 0.11899 0.75931
    vertex 1.2335 0.2183 0.73329
  endloop
endfacet
facet normal 0.126949 0.26406 0.956115
  outer loop
    vertex 1.2441 0.11899 0.75931
    vertex 1.2684 0.12686 0.75391
    vertex 1.2335 0.2183 0.73329
  endloop
endfacet
facet normal 0.127619 0.264208 0.955985
  outer loop
    vertex 1.2182 0.19105 0.6383
    vertex 1.2346 0.093539 0.66306
    vertex 1.2531 0.099619 0.65891
  endloop
endfacet
facet normal 0.121335 0.263414 0.957022
  outer loop
    vertex 1.1997 0.18493 0.64233
    vertex 1.2346 0.093539 0.66306
    vertex 1.2182 0.19105 0.6383
  endloop
endfacet
facet normal 0.34295 -0.915956 0.208353
  outer loop
    vertex 1.2441 0.11899 0.75931
    vertex 1.2346 0.093539 0.66306
    vertex 1.2684 0.12686 0.75391
  endloop
endfacet
facet normal 0.346982 -0.914866 0.206453
  outer loop
    vertex 1.2346 0.093539 0.66306
    vertex 1.2531 0.099619 0.65891
    vertex 1.2684 0.12686 0.75391
  endloop
endfacet
facet normal 0.354704 -0.912178 0.205225
  outer loop
    vertex 1.1821 0.20076 0.74265
    vertex 1.1802 0.17811 0.6452599999999999
    vertex 1.2092 0.21038 0.7385699999999999
  endloop
endfacet
facet normal 0.350548 -0.913396 0.206938
  outer loop
    vertex 1.1802 0.17811 0.6452599999999999
    vertex 1.1997 0.18493 0.64233
    vertex 1.2092 0.21038 0.7385699999999999
  endloop
endfacet
facet normal 0.0600438 0.241616 0.968513
  outer loop
    vertex 1.1821 0.20076 0.74265
    vertex 1.2181 0.10976 0.76312
    vertex 1.2092 0.21038 0.7385699999999999
  endloop
endfacet
facet normal 0.0562862 0.241354 0.968803
  outer loop
    vertex 1.2181 0.10976 0.76312
    vertex 1.2441 0.11899 0.75931
    vertex 1.2092 0.21038 0.7385699999999999
  endloop
endfacet
facet normal 0.0567402 0.24141 0.968763
  outer loop
    vertex 1.1997 0.18493 0.64233
    vertex 1.2162 0.08710900000000001 0.66574
    vertex 1.2346 0.093539 0.66306
  endloop
endfacet
facet normal 0.0608616 0.242009 0.968363
  outer loop
    vertex 1.1802 0.17811 0.6452599999999999
    vertex 1.2162 0.08710900000000001 0.66574
    vertex 1.1997 0.18493 0.64233
  endloop
endfacet
facet normal 0.354055 -0.912196 0.206263
  outer loop
    vertex 1.2181 0.10976 0.76312
    vertex 1.2346 0.093539 0.66306
    vertex 1.2441 0.11899 0.75931
  endloop
endfacet
facet normal 0.34941 -0.914088 0.205803
  outer loop
    vertex 1.2181 0.10976 0.76312
    vertex 1.2162 0.08710900000000001 0.66574
    vertex 1.2346 0.093539 0.66306
  endloop
endfacet
facet normal 0.376663 -0.904537 0.199846
  outer loop
    vertex 1.1555 0.19007 0.7444
    vertex 1.1634 0.17171 0.64641
    vertex 1.1821 0.20076 0.74265
  endloop
endfacet
facet normal 0.360664 -0.909979 0.204598
  outer loop
    vertex 1.1634 0.17171 0.64641
    vertex 1.1802 0.17811 0.6452599999999999
    vertex 1.1821 0.20076 0.74265
  endloop
endfacet
facet normal -0.0207498 0.211594 0.977137
  outer loop
    vertex 1.1555 0.19007 0.7444
    vertex 1.2181 0.10976 0.76312
    vertex 1.1821 0.20076 0.74265
  endloop
endfacet
facet normal -0.0350955 0.200844 0.978994
  outer loop
    vertex 1.1555 0.19007 0.7444
    vertex 1.1921 0.09927 0.76434
    vertex 1.2181 0.10976 0.76312
  endloop
endfacet
facet normal -0.0409838 0.203917 0.97813
  outer loop
    vertex 1.1802 0.17811 0.6452599999999999
    vertex 1.1999 0.08090700000000001 0.66635
    vertex 1.2162 0.08710900000000001 0.66574
  endloop
endfacet
facet normal -0.0128906 0.209522 0.977719
  outer loop
    vertex 1.1634 0.17171 0.64641
    vertex 1.1999 0.08090700000000001 0.66635
    vertex 1.1802 0.17811 0.6452599999999999
  endloop
endfacet
facet normal 0.374538 -0.904688 0.203127
  outer loop
    vertex 1.1921 0.09927 0.76434
    vertex 1.2162 0.08710900000000001 0.66574
    vertex 1.2181 0.10976 0.76312
  endloop
endfacet
facet normal 0.354986 -0.913355 0.199417
  outer loop
    vertex 1.1921 0.09927 0.76434
    vertex 1.1999 0.08090700000000001 0.66635
    vertex 1.2162 0.08710900000000001 0.66574
  endloop
endfacet
facet normal 0.387188 -0.900254 0.199067
  outer loop
    vertex 1.1507 0.18801 0.74442
    vertex 1.1606 0.1706 0.6464299999999999
    vertex 1.1555 0.19007 0.7444
  endloop
endfacet
facet normal 0.36233 -0.910386 0.199787
  outer loop
    vertex 1.1606 0.1706 0.6464299999999999
    vertex 1.1634 0.17171 0.64641
    vertex 1.1555 0.19007 0.7444
  endloop
endfacet
facet normal -0.0747008 0.183576 0.980163
  outer loop
    vertex 1.1507 0.18801 0.74442
    vertex 1.1872 0.097412 0.76417
    vertex 1.1555 0.19007 0.7444
  endloop
endfacet
facet normal -0.100227 0.174703 0.979507
  outer loop
    vertex 1.1872 0.097412 0.76417
    vertex 1.1921 0.09927 0.76434
    vertex 1.1555 0.19007 0.7444
  endloop
endfacet
facet normal -0.110697 0.170514 0.979118
  outer loop
    vertex 1.1634 0.17171 0.64641
    vertex 1.1971 0.080008 0.6661899999999999
    vertex 1.1999 0.08090700000000001 0.66635
  endloop
endfacet
facet normal -0.0670409 0.186772 0.980113
  outer loop
    vertex 1.1606 0.1706 0.6464299999999999
    vertex 1.1971 0.080008 0.6661899999999999
    vertex 1.1634 0.17171 0.64641
  endloop
endfacet
facet normal 0.341384 -0.91855 0.199307
  outer loop
    vertex 1.1872 0.097412 0.76417
    vertex 1.1999 0.08090700000000001 0.66635
    vertex 1.1921 0.09927 0.76434
  endloop
endfacet
facet normal 0.289636 -0.936919 0.195688
  outer loop
    vertex 1.1872 0.097412 0.76417
    vertex 1.1971 0.080008 0.6661899999999999
    vertex 1.1999 0.08090700000000001 0.66635
  endloop
endfacet
facet normal 0.3848 -0.904024 0.186196
  outer loop
    vertex 1.1129 0.17108 0.74034
    vertex 1.1404 0.16305 0.64452
    vertex 1.1507 0.18801 0.74442
  endloop
endfacet
facet normal 0.326811 -0.924279 0.197236
  outer loop
    vertex 1.1404 0.16305 0.64452
    vertex 1.1606 0.1706 0.6464299999999999
    vertex 1.1507 0.18801 0.74442
  endloop
endfacet
facet normal -0.203234 0.120699 0.971662
  outer loop
    vertex 1.1493 0.079724 0.75844
    vertex 1.1872 0.097412 0.76417
    vertex 1.150024702916355 0.1340570460515018 0.7518423774983685
  endloop
endfacet
facet normal -0.166511 0.13643 0.976556
  outer loop
    vertex 1.1507 0.18801 0.74442
    vertex 1.1129 0.17108 0.74034
    vertex 1.150024702916355 0.1340570460515018 0.7518423774983685
  endloop
endfacet
facet normal -0.18831 0.136162 0.972625
  outer loop
    vertex 1.1872 0.097412 0.76417
    vertex 1.1507 0.18801 0.74442
    vertex 1.150024702916355 0.1340570460515018 0.7518423774983685
  endloop
endfacet
facet normal -0.181764 0.120925 0.975879
  outer loop
    vertex 1.1129 0.17108 0.74034
    vertex 1.1493 0.079724 0.75844
    vertex 1.150024702916355 0.1340570460515018 0.7518423774983685
  endloop
endfacet
facet normal -0.220278 0.122332 0.967736
  outer loop
    vertex 1.1606 0.1706 0.6464299999999999
    vertex 1.1768 0.071696 0.66262
    vertex 1.1971 0.080008 0.6661899999999999
  endloop
endfacet
facet normal -0.143831 0.136876 0.980091
  outer loop
    vertex 1.1404 0.16305 0.64452
    vertex 1.1768 0.071696 0.66262
    vertex 1.1606 0.1706 0.6464299999999999
  endloop
endfacet
facet normal 0.389569 -0.899222 0.199089
  outer loop
    vertex 1.1493 0.079724 0.75844
    vertex 1.1971 0.080008 0.6661899999999999
    vertex 1.1872 0.097412 0.76417
  endloop
endfacet
facet normal 0.34622 -0.921389 0.17656
  outer loop
    vertex 1.1493 0.079724 0.75844
    vertex 1.1768 0.071696 0.66262
    vertex 1.1971 0.080008 0.6661899999999999
  endloop
endfacet
facet normal 0.392234 -0.903883 0.170727
  outer loop
    vertex 1.0811 0.15532 0.7299600000000001
    vertex 1.1249 0.15735 0.64008
    vertex 1.1129 0.17108 0.74034
  endloop
endfacet
facet normal 0.298598 -0.940099 0.16448
  outer loop
    vertex 1.1249 0.15735 0.64008
    vertex 1.1404 0.16305 0.64452
    vertex 1.1129 0.17108 0.74034
  endloop
endfacet
facet normal -0.33372 0.0534989 0.941153
  outer loop
    vertex 1.0811 0.15532 0.7299600000000001
    vertex 1.1493 0.079724 0.75844
    vertex 1.1129 0.17108 0.74034
  endloop
endfacet
facet normal -0.378813 0.00690158 0.925448
  outer loop
    vertex 1.0811 0.15532 0.7299600000000001
    vertex 1.117 0.063455 0.74534
    vertex 1.1493 0.079724 0.75844
  endloop
endfacet
facet normal -0.413053 0.0158305 0.910569
  outer loop
    vertex 1.1404 0.16305 0.64452
    vertex 1.1608 0.065488 0.65547
    vertex 1.1768 0.071696 0.66262
  endloop
endfacet
facet normal -0.290827 0.046447 0.955648
  outer loop
    vertex 1.1249 0.15735 0.64008
    vertex 1.1608 0.065488 0.65547
    vertex 1.1404 0.16305 0.64452
  endloop
endfacet
facet normal 0.381093 -0.905785 0.185261
  outer loop
    vertex 1.117 0.063455 0.74534
    vertex 1.1768 0.071696 0.66262
    vertex 1.1493 0.079724 0.75844
  endloop
endfacet
facet normal 0.308137 -0.942575 0.128855
  outer loop
    vertex 1.117 0.063455 0.74534
    vertex 1.1608 0.065488 0.65547
    vertex 1.1768 0.071696 0.66262
  endloop
endfacet
facet normal 0.296816 -0.946947 0.123256
  outer loop
    vertex 1.1204 0.1557 0.63824
    vertex 1.1249 0.15735 0.64008
    vertex 1.0811 0.15532 0.7299600000000001
  endloop
endfacet
facet normal 0.402923 -0.899511 0.168917
  outer loop
    vertex 1.0707 0.1497 0.72484
    vertex 1.1204 0.1557 0.63824
    vertex 1.0811 0.15532 0.7299600000000001
  endloop
endfacet
facet normal -0.433511 -0.0185742 0.900957
  outer loop
    vertex 1.0707 0.1497 0.72484
    vertex 1.117 0.063455 0.74534
    vertex 1.0811 0.15532 0.7299600000000001
  endloop
endfacet
facet normal -0.494908 -0.0596311 0.866897
  outer loop
    vertex 1.0707 0.1497 0.72484
    vertex 1.1048 0.057421 0.7379599999999999
    vertex 1.117 0.063455 0.74534
  endloop
endfacet
facet normal -0.524836 -0.062892 0.848877
  outer loop
    vertex 1.1249 0.15735 0.64008
    vertex 1.1544 0.06342200000000001 0.6513600000000001
    vertex 1.1608 0.065488 0.65547
  endloop
endfacet
facet normal -0.376289 -0.00691883 0.926476
  outer loop
    vertex 1.1204 0.1557 0.63824
    vertex 1.1544 0.06342200000000001 0.6513600000000001
    vertex 1.1249 0.15735 0.64008
  endloop
endfacet
facet normal 0.360977 -0.919582 0.155127
  outer loop
    vertex 1.1048 0.057421 0.7379599999999999
    vertex 1.1608 0.065488 0.65547
    vertex 1.117 0.063455 0.74534
  endloop
endfacet
facet normal 0.258493 -0.962582 0.0813484
  outer loop
    vertex 1.1048 0.057421 0.7379599999999999
    vertex 1.1544 0.06342200000000001 0.6513600000000001
    vertex 1.1608 0.065488 0.65547
  endloop
endfacet
facet normal 0.404989 -0.906291 0.120919
  outer loop
    vertex 1.0285 0.12635 0.69117
    vertex 1.0991 0.14895 0.6241
    vertex 1.0707 0.1497 0.72484
  endloop
endfacet
facet normal 0.253365 -0.964172 0.0786053
  outer loop
    vertex 1.0991 0.14895 0.6241
    vertex 1.1204 0.1557 0.63824
    vertex 1.0707 0.1497 0.72484
  endloop
endfacet
facet normal -0.64287 -0.16204 0.748639
  outer loop
    vertex 1.0657 0.034625 0.69945
    vertex 1.1048 0.057421 0.7379599999999999
    vertex 1.067423548873855 0.09202472598722933 0.7133540110972902
  endloop
endfacet
facet normal -0.574124 -0.128424 0.808634
  outer loop
    vertex 1.0707 0.1497 0.72484
    vertex 1.0285 0.12635 0.69117
    vertex 1.067423548873855 0.09202472598722933 0.7133540110972902
  endloop
endfacet
facet normal -0.62053 -0.119106 0.775084
  outer loop
    vertex 1.1048 0.057421 0.7379599999999999
    vertex 1.0707 0.1497 0.72484
    vertex 1.067423548873855 0.09202472598722933 0.7133540110972902
  endloop
endfacet
facet normal -0.59775 -0.171736 0.783072
  outer loop
    vertex 1.0285 0.12635 0.69117
    vertex 1.0657 0.034625 0.69945
    vertex 1.067423548873855 0.09202472598722933 0.7133540110972902
  endloop
endfacet
facet normal -0.689606 -0.153461 0.707738
  outer loop
    vertex 1.1204 0.1557 0.63824
    vertex 1.1363 0.057225 0.6323800000000001
    vertex 1.1544 0.06342200000000001 0.6513600000000001
  endloop
endfacet
facet normal -0.518278 -0.133946 0.844658
  outer loop
    vertex 1.0991 0.14895 0.6241
    vertex 1.1363 0.057225 0.6323800000000001
    vertex 1.1204 0.1557 0.63824
  endloop
endfacet
facet normal 0.379788 -0.912111 0.154318
  outer loop
    vertex 1.0657 0.034625 0.69945
    vertex 1.1544 0.06342200000000001 0.6513600000000001
    vertex 1.1048 0.057421 0.7379599999999999
  endloop
endfacet
facet normal 0.313955 -0.949379 0.010575
  outer loop
    vertex 1.0657 0.034625 0.69945
    vertex 1.1363 0.057225 0.6323800000000001
    vertex 1.1544 0.06342200000000001 0.6513600000000001
  endloop
endfacet
facet normal 0.404922 -0.909174 0.097168
  outer loop
    vertex 1.0936 0.14759 0.6186199999999999
    vertex 1.0285 0.12635 0.69117
    vertex 1.0182 0.1204 0.67842
  endloop
endfacet
facet normal 0.273518 -0.961194 -0.0359717
  outer loop
    vertex 1.0991 0.14895 0.6241
    vertex 1.0285 0.12635 0.69117
    vertex 1.0936 0.14759 0.6186199999999999
  endloop
endfacet
facet normal -0.70406 -0.224729 0.673644
  outer loop
    vertex 1.0182 0.1204 0.67842
    vertex 1.0657 0.034625 0.69945
    vertex 1.0285 0.12635 0.69117
  endloop
endfacet
facet normal -0.756427 -0.273182 0.594298
  outer loop
    vertex 1.0182 0.1204 0.67842
    vertex 1.0569 0.028731 0.68554
    vertex 1.0657 0.034625 0.69945
  endloop
endfacet
facet normal -0.659863 -0.222852 0.717578
  outer loop
    vertex 1.0936 0.14759 0.6186199999999999
    vertex 1.1323 0.055926 0.62574
    vertex 1.0991 0.14895 0.6241
  endloop
endfacet
facet normal -0.798627 -0.275595 0.535016
  outer loop
    vertex 1.0991 0.14895 0.6241
    vertex 1.1323 0.055926 0.62574
    vertex 1.1363 0.057225 0.6323800000000001
  endloop
endfacet
facet normal 0.408181 -0.90431 0.124947
  outer loop
    vertex 1.1363 0.057225 0.6323800000000001
    vertex 1.0657 0.034625 0.69945
    vertex 1.0569 0.028731 0.68554
  endloop
endfacet
facet normal 0.329529 -0.944044 -0.0138258
  outer loop
    vertex 1.1363 0.057225 0.6323800000000001
    vertex 1.0569 0.028731 0.68554
    vertex 1.1323 0.055926 0.62574
  endloop
endfacet
facet normal 0.442936 -0.891218 0.0976641
  outer loop
    vertex 1.0823 0.14396 0.6027
    vertex 1.0182 0.1204 0.67842
    vertex 0.99856 0.10673 0.64275
  endloop
endfacet
facet normal 0.327296 -0.944771 -0.0168926
  outer loop
    vertex 1.0936 0.14759 0.6186199999999999
    vertex 1.0182 0.1204 0.67842
    vertex 1.0823 0.14396 0.6027
  endloop
endfacet
facet normal -0.787051 -0.28998 0.544483
  outer loop
    vertex 0.99856 0.10673 0.64275
    vertex 1.0569 0.028731 0.68554
    vertex 1.0182 0.1204 0.67842
  endloop
endfacet
facet normal -0.813854 -0.357374 0.458176
  outer loop
    vertex 0.99856 0.10673 0.64275
    vertex 1.0415 0.016673 0.64878
    vertex 1.0569 0.028731 0.68554
  endloop
endfacet
facet normal -0.8563 -0.33071 0.396713
  outer loop
    vertex 1.0936 0.14759 0.6186199999999999
    vertex 1.1252 0.053905 0.60873
    vertex 1.1323 0.055926 0.62574
  endloop
endfacet
facet normal -0.739577 -0.312397 0.596182
  outer loop
    vertex 1.0823 0.14396 0.6027
    vertex 1.1252 0.053905 0.60873
    vertex 1.0936 0.14759 0.6186199999999999
  endloop
endfacet
facet normal 0.419361 -0.899919 0.119507
  outer loop
    vertex 1.1323 0.055926 0.62574
    vertex 1.0569 0.028731 0.68554
    vertex 1.0415 0.016673 0.64878
  endloop
endfacet
facet normal 0.385281 -0.92137 -0.0513466
  outer loop
    vertex 1.1323 0.055926 0.62574
    vertex 1.0415 0.016673 0.64878
    vertex 1.1252 0.053905 0.60873
  endloop
endfacet
facet normal 0.481273 -0.870972 0.0989131
  outer loop
    vertex 1.0734 0.14079 0.57852
    vertex 0.99856 0.10673 0.64275
    vertex 0.986 0.093949 0.59132
  endloop
endfacet
facet normal 0.395951 -0.91792 -0.0253993
  outer loop
    vertex 1.0823 0.14396 0.6027
    vertex 0.99856 0.10673 0.64275
    vertex 1.0734 0.14079 0.57852
  endloop
endfacet
facet normal -0.854687 -0.415029 0.311868
  outer loop
    vertex 0.99856 0.10673 0.64275
    vertex 0.986 0.093949 0.59132
    vertex 1.014966013377239 0.05593304650836268 0.6201114462230407
  endloop
endfacet
facet normal -0.875065 -0.431915 0.218426
  outer loop
    vertex 1.0338 0.0063857 0.59759
    vertex 1.0415 0.016673 0.64878
    vertex 1.014966013377239 0.05593304650836268 0.6201114462230407
  endloop
endfacet
facet normal -0.877515 -0.400775 0.263339
  outer loop
    vertex 1.0415 0.016673 0.64878
    vertex 0.99856 0.10673 0.64275
    vertex 1.014966013377239 0.05593304650836268 0.6201114462230407
  endloop
endfacet
facet normal -0.85338 -0.4466 0.268868
  outer loop
    vertex 0.986 0.093949 0.59132
    vertex 1.0338 0.0063857 0.59759
    vertex 1.014966013377239 0.05593304650836268 0.6201114462230407
  endloop
endfacet
facet normal -0.895548 -0.416053 0.157775
  outer loop
    vertex 1.0823 0.14396 0.6027
    vertex 1.1213 0.053225 0.5848
    vertex 1.1252 0.053905 0.60873
  endloop
endfacet
facet normal -0.828784 -0.427466 0.361094
  outer loop
    vertex 1.0734 0.14079 0.57852
    vertex 1.1213 0.053225 0.5848
    vertex 1.0823 0.14396 0.6027
  endloop
endfacet
facet normal 0.447759 -0.887244 0.110951
  outer loop
    vertex 1.1252 0.053905 0.60873
    vertex 1.0415 0.016673 0.64878
    vertex 1.0338 0.0063857 0.59759
  endloop
endfacet
facet normal 0.465555 -0.883561 -0.0507666
  outer loop
    vertex 1.1252 0.053905 0.60873
    vertex 1.0338 0.0063857 0.59759
    vertex 1.1213 0.053225 0.5848
  endloop
endfacet
facet normal 0.506677 -0.854557 0.11406
  outer loop
    vertex 1.0714 0.13978 0.55533
    vertex 0.986 0.093949 0.59132
    vertex 0.98633 0.088093 0.54598
  endloop
endfacet
facet normal 0.472109 -0.881537 -0.00232281
  outer loop
    vertex 1.0734 0.14079 0.57852
    vertex 0.986 0.093949 0.59132
    vertex 1.0714 0.13978 0.55533
  endloop
endfacet
facet normal -0.866804 -0.497802 -0.0290669
  outer loop
    vertex 1.0375 0.0025198 0.55346
    vertex 1.0338 0.0063857 0.59759
    vertex 1.010906316597019 0.04773878715772329 0.5720864195435897
  endloop
endfacet
facet normal -0.868697 -0.492028 0.0572264
  outer loop
    vertex 0.986 0.093949 0.59132
    vertex 0.98633 0.088093 0.54598
    vertex 1.010906316597019 0.04773878715772329 0.5720864195435897
  endloop
endfacet
facet normal -0.878041 -0.478424 0.0124413
  outer loop
    vertex 1.0338 0.0063857 0.59759
    vertex 0.986 0.093949 0.59132
    vertex 1.010906316597019 0.04773878715772329 0.5720864195435897
  endloop
endfacet
facet normal -0.85879 -0.512047 0.0169561
  outer loop
    vertex 0.98633 0.088093 0.54598
    vertex 1.0375 0.0025198 0.55346
    vertex 1.010906316597019 0.04773878715772329 0.5720864195435897
  endloop
endfacet
facet normal -0.872751 -0.482658 -0.0731158
  outer loop
    vertex 1.0734 0.14079 0.57852
    vertex 1.1226 0.054207 0.5628
    vertex 1.1213 0.053225 0.5848
  endloop
endfacet
facet normal -0.857836 -0.504882 0.0959726
  outer loop
    vertex 1.0714 0.13978 0.55533
    vertex 1.1226 0.054207 0.5628
    vertex 1.0734 0.14079 0.57852
  endloop
endfacet
facet normal 0.48191 -0.868444 0.116483
  outer loop
    vertex 1.1213 0.053225 0.5848
    vertex 1.0338 0.0063857 0.59759
    vertex 1.0375 0.0025198 0.55346
  endloop
endfacet
facet normal 0.519701 -0.854316 -0.00742396
  outer loop
    vertex 1.1213 0.053225 0.5848
    vertex 1.0375 0.0025198 0.55346
    vertex 1.1226 0.054207 0.5628
  endloop
endfacet
facet normal 0.5246 -0.843638 0.114321
  outer loop
    vertex 1.0735 0.14076 0.53463
    vertex 0.98633 0.088093 0.54598
    vertex 0.99278 0.087216 0.50991
  endloop
endfacet
facet normal 0.518243 -0.855148 0.0120902
  outer loop
    vertex 1.0714 0.13978 0.55533
    vertex 0.98633 0.088093 0.54598
    vertex 1.0735 0.14076 0.53463
  endloop
endfacet
facet normal -0.844617 -0.517156 -0.13846
  outer loop
    vertex 0.99278 0.087216 0.50991
    vertex 1.0375 0.0025198 0.55346
    vertex 0.98633 0.088093 0.54598
  endloop
endfacet
facet normal -0.816732 -0.53821 -0.208038
  outer loop
    vertex 0.99278 0.087216 0.50991
    vertex 1.0464 0.0030995 0.51702
    vertex 1.0375 0.0025198 0.55346
  endloop
endfacet
facet normal -0.824743 -0.514037 -0.235724
  outer loop
    vertex 1.0714 0.13978 0.55533
    vertex 1.1271 0.05664 0.54175
    vertex 1.1226 0.054207 0.5628
  endloop
endfacet
facet normal -0.833957 -0.540713 -0.110203
  outer loop
    vertex 1.0735 0.14076 0.53463
    vertex 1.1271 0.05664 0.54175
    vertex 1.0714 0.13978 0.55533
  endloop
endfacet
facet normal 0.507088 -0.854814 0.110251
  outer loop
    vertex 1.1226 0.054207 0.5628
    vertex 1.0375 0.0025198 0.55346
    vertex 1.0464 0.0030995 0.51702
  endloop
endfacet
facet normal 0.548337 -0.836004 0.0205946
  outer loop
    vertex 1.1226 0.054207 0.5628
    vertex 1.0464 0.0030995 0.51702
    vertex 1.1271 0.05664 0.54175
  endloop
endfacet
facet normal 0.542933 -0.834213 0.0965028
  outer loop
    vertex 1.078 0.1433 0.51527
    vertex 0.99278 0.087216 0.50991
    vertex 1.0012 0.08933199999999999 0.48083
  endloop
endfacet
facet normal 0.548865 -0.835718 0.0179323
  outer loop
    vertex 1.0735 0.14076 0.53463
    vertex 0.99278 0.087216 0.50991
    vertex 1.078 0.1433 0.51527
  endloop
endfacet
facet normal -0.801198 -0.533613 -0.270812
  outer loop
    vertex 1.0012 0.08933199999999999 0.48083
    vertex 1.0464 0.0030995 0.51702
    vertex 0.99278 0.087216 0.50991
  endloop
endfacet
facet normal -0.774688 -0.542449 -0.324974
  outer loop
    vertex 1.0012 0.08933199999999999 0.48083
    vertex 1.0568 0.0064352 0.48666
    vertex 1.0464 0.0030995 0.51702
  endloop
endfacet
facet normal -0.779493 -0.525534 -0.340887
  outer loop
    vertex 1.0735 0.14076 0.53463
    vertex 1.1336 0.0604 0.5210900000000001
    vertex 1.1271 0.05664 0.54175
  endloop
endfacet
facet normal -0.794204 -0.550695 -0.256854
  outer loop
    vertex 1.078 0.1433 0.51527
    vertex 1.1336 0.0604 0.5210900000000001
    vertex 1.0735 0.14076 0.53463
  endloop
endfacet
facet normal 0.531437 -0.842357 0.0894959
  outer loop
    vertex 1.1271 0.05664 0.54175
    vertex 1.0464 0.0030995 0.51702
    vertex 1.0568 0.0064352 0.48666
  endloop
endfacet
facet normal 0.566199 -0.823786 0.028212
  outer loop
    vertex 1.1271 0.05664 0.54175
    vertex 1.0568 0.0064352 0.48666
    vertex 1.1336 0.0604 0.5210900000000001
  endloop
endfacet
facet normal 0.56075 -0.824799 0.0725698
  outer loop
    vertex 1.0842 0.14709 0.49594
    vertex 1.0012 0.08933199999999999 0.48083
    vertex 1.0104 0.093322 0.45509
  endloop
endfacet
facet normal 0.568475 -0.822431 0.0210828
  outer loop
    vertex 1.078 0.1433 0.51527
    vertex 1.0012 0.08933199999999999 0.48083
    vertex 1.0842 0.14709 0.49594
  endloop
endfacet
facet normal -0.764152 -0.537596 -0.356457
  outer loop
    vertex 1.0104 0.093322 0.45509
    vertex 1.0568 0.0064352 0.48666
    vertex 1.0012 0.08933199999999999 0.48083
  endloop
endfacet
facet normal -0.742409 -0.540362 -0.396026
  outer loop
    vertex 1.0104 0.093322 0.45509
    vertex 1.0674 0.011308 0.46014
    vertex 1.0568 0.0064352 0.48666
  endloop
endfacet
facet normal -0.745905 -0.528708 -0.405084
  outer loop
    vertex 1.078 0.1433 0.51527
    vertex 1.1412 0.065078 0.50099
    vertex 1.1336 0.0604 0.5210900000000001
  endloop
endfacet
facet normal -0.758652 -0.548889 -0.350953
  outer loop
    vertex 1.0842 0.14709 0.49594
    vertex 1.1412 0.065078 0.50099
    vertex 1.078 0.1433 0.51527
  endloop
endfacet
facet normal 0.552872 -0.830455 0.0683936
  outer loop
    vertex 1.1336 0.0604 0.5210900000000001
    vertex 1.0568 0.0064352 0.48666
    vertex 1.0674 0.011308 0.46014
  endloop
endfacet
facet normal 0.578151 -0.81542 0.0288266
  outer loop
    vertex 1.1336 0.0604 0.5210900000000001
    vertex 1.0674 0.011308 0.46014
    vertex 1.1412 0.065078 0.50099
  endloop
endfacet
facet normal 0.571022 -0.818442 0.063928
  outer loop
    vertex 1.0919 0.15184 0.47629
    vertex 1.0104 0.093322 0.45509
    vertex 1.0208 0.098637 0.43024
  endloop
endfacet
facet normal 0.577945 -0.815549 0.0293292
  outer loop
    vertex 1.0842 0.14709 0.49594
    vertex 1.0104 0.093322 0.45509
    vertex 1.0919 0.15184 0.47629
  endloop
endfacet
facet normal -0.73249 -0.535005 -0.420984
  outer loop
    vertex 1.0208 0.098637 0.43024
    vertex 1.0674 0.011308 0.46014
    vertex 1.0104 0.093322 0.45509
  endloop
endfacet
facet normal -0.715482 -0.535441 -0.448763
  outer loop
    vertex 1.0208 0.098637 0.43024
    vertex 1.0785 0.017085 0.43555
    vertex 1.0674 0.011308 0.46014
  endloop
endfacet
facet normal -0.719982 -0.528126 -0.450233
  outer loop
    vertex 1.0842 0.14709 0.49594
    vertex 1.1495 0.07029299999999999 0.4816
    vertex 1.1412 0.065078 0.50099
  endloop
endfacet
facet normal -0.729401 -0.542354 -0.416925
  outer loop
    vertex 1.0919 0.15184 0.47629
    vertex 1.1495 0.07029299999999999 0.4816
    vertex 1.0842 0.14709 0.49594
  endloop
endfacet
facet normal 0.565155 -0.822664 0.0618417
  outer loop
    vertex 1.1412 0.065078 0.50099
    vertex 1.0674 0.011308 0.46014
    vertex 1.0785 0.017085 0.43555
  endloop
endfacet
facet normal 0.585638 -0.809906 0.0328591
  outer loop
    vertex 1.1412 0.065078 0.50099
    vertex 1.0785 0.017085 0.43555
    vertex 1.1495 0.07029299999999999 0.4816
  endloop
endfacet
facet normal 0.573492 -0.81639 0.0679254
  outer loop
    vertex 1.1 0.15665 0.45881
    vertex 1.0208 0.098637 0.43024
    vertex 1.0313 0.1042 0.40845
  endloop
endfacet
facet normal 0.579762 -0.813554 0.044787
  outer loop
    vertex 1.0919 0.15184 0.47629
    vertex 1.0208 0.098637 0.43024
    vertex 1.1 0.15665 0.45881
  endloop
endfacet
facet normal -0.703865 -0.528878 -0.474196
  outer loop
    vertex 1.0313 0.1042 0.40845
    vertex 1.0785 0.017085 0.43555
    vertex 1.0208 0.098637 0.43024
  endloop
endfacet
facet normal -0.693037 -0.528139 -0.490682
  outer loop
    vertex 1.0313 0.1042 0.40845
    vertex 1.0891 0.022844 0.41438
    vertex 1.0785 0.017085 0.43555
  endloop
endfacet
facet normal -0.693437 -0.522134 -0.49651
  outer loop
    vertex 1.0919 0.15184 0.47629
    vertex 1.1578 0.075293 0.46475
    vertex 1.1495 0.07029299999999999 0.4816
  endloop
endfacet
facet normal -0.702033 -0.533223 -0.472041
  outer loop
    vertex 1.1 0.15665 0.45881
    vertex 1.1578 0.075293 0.46475
    vertex 1.0919 0.15184 0.47629
  endloop
endfacet
facet normal 0.571683 -0.817996 0.0637224
  outer loop
    vertex 1.1495 0.07029299999999999 0.4816
    vertex 1.0785 0.017085 0.43555
    vertex 1.0891 0.022844 0.41438
  endloop
endfacet
facet normal 0.584038 -0.810352 0.0472257
  outer loop
    vertex 1.1495 0.07029299999999999 0.4816
    vertex 1.0891 0.022844 0.41438
    vertex 1.1578 0.075293 0.46475
  endloop
endfacet
facet normal 0.569845 -0.818275 0.0755143
  outer loop
    vertex 1.1013 0.15736 0.45626
    vertex 1.0313 0.1042 0.40845
    vertex 1.0329 0.10503 0.40537
  endloop
endfacet
facet normal 0.574597 -0.815788 0.065791
  outer loop
    vertex 1.1 0.15665 0.45881
    vertex 1.0313 0.1042 0.40845
    vertex 1.1013 0.15736 0.45626
  endloop
endfacet
facet normal -0.688667 -0.525671 -0.499407
  outer loop
    vertex 1.0329 0.10503 0.40537
    vertex 1.0891 0.022844 0.41438
    vertex 1.0313 0.1042 0.40845
  endloop
endfacet
facet normal -0.672855 -0.518008 -0.528142
  outer loop
    vertex 1.0329 0.10503 0.40537
    vertex 1.0904 0.02348 0.4121
    vertex 1.0891 0.022844 0.41438
  endloop
endfacet
facet normal -0.685359 -0.523845 -0.505835
  outer loop
    vertex 1.1 0.15665 0.45881
    vertex 1.1587 0.07581499999999999 0.46299
    vertex 1.1578 0.075293 0.46475
  endloop
endfacet
facet normal -0.689274 -0.526279 -0.497927
  outer loop
    vertex 1.1013 0.15736 0.45626
    vertex 1.1587 0.07581499999999999 0.46299
    vertex 1.1 0.15665 0.45881
  endloop
endfacet
facet normal 0.561459 -0.82252 0.0906906
  outer loop
    vertex 1.1578 0.075293 0.46475
    vertex 1.0891 0.022844 0.41438
    vertex 1.0904 0.02348 0.4121
  endloop
endfacet
facet normal 0.580638 -0.812233 0.0560161
  outer loop
    vertex 1.1578 0.075293 0.46475
    vertex 1.0904 0.02348 0.4121
    vertex 1.1587 0.07581499999999999 0.46299
  endloop
endfacet
facet normal 0.574631 -0.815197 0.0724751
  outer loop
    vertex 1.1117 0.16338 0.43691
    vertex 1.0329 0.10503 0.40537
    vertex 1.046 0.11215 0.38159
  endloop
endfacet
facet normal 0.578951 -0.813286 0.0581452
  outer loop
    vertex 1.1013 0.15736 0.45626
    vertex 1.0329 0.10503 0.40537
    vertex 1.1117 0.16338 0.43691
  endloop
endfacet
facet normal -0.673792 -0.518528 -0.526434
  outer loop
    vertex 1.046 0.11215 0.38159
    vertex 1.0904 0.02348 0.4121
    vertex 1.0329 0.10503 0.40537
  endloop
endfacet
facet normal -0.667176 -0.518201 -0.535112
  outer loop
    vertex 1.046 0.11215 0.38159
    vertex 1.1035 0.030633 0.38884
    vertex 1.0904 0.02348 0.4121
  endloop
endfacet
facet normal -0.668059 -0.514609 -0.537471
  outer loop
    vertex 1.1013 0.15736 0.45626
    vertex 1.1692 0.081861 0.44415
    vertex 1.1587 0.07581499999999999 0.46299
  endloop
endfacet
facet normal -0.673317 -0.521478 -0.524124
  outer loop
    vertex 1.1117 0.16338 0.43691
    vertex 1.1692 0.081861 0.44415
    vertex 1.1013 0.15736 0.45626
  endloop
endfacet
facet normal 0.572634 -0.8167 0.071352
  outer loop
    vertex 1.1587 0.07581499999999999 0.46299
    vertex 1.0904 0.02348 0.4121
    vertex 1.1035 0.030633 0.38884
  endloop
endfacet
facet normal 0.580262 -0.812004 0.0628119
  outer loop
    vertex 1.1587 0.07581499999999999 0.46299
    vertex 1.1035 0.030633 0.38884
    vertex 1.1692 0.081861 0.44415
  endloop
endfacet
endsolid Created by Gmsh
