solid Created by Gmsh
facet normal 0.245077 -0.957262 0.153579
  outer loop
    vertex -1.73019 -0.4366545 -0.2115613
    vertex -1.768844019075894 -0.453211974573521 -0.2530816368845843
    vertex -1.713369 -0.4420398 -0.2719707
  endloop
endfacet
facet normal 0.253589 -0.959855 0.119883
  outer loop
    vertex -1.806183 -0.4686829 -0.297968
    vertex -1.768844019075894 -0.453211974573521 -0.2530816368845843
    vertex -1.824623 -0.4648746 -0.2284702
  endloop
endfacet
facet normal 0.26077 -0.955451 0.138246
  outer loop
    vertex -1.824623 -0.4648746 -0.2284702
    vertex -1.768844019075894 -0.453211974573521 -0.2530816368845843
    vertex -1.73019 -0.4366545 -0.2115613
  endloop
endfacet
facet normal 0.238933 -0.961914 0.132784
  outer loop
    vertex -1.713369 -0.4420398 -0.2719707
    vertex -1.768844019075894 -0.453211974573521 -0.2530816368845843
    vertex -1.806183 -0.4686829 -0.297968
  endloop
endfacet
facet normal -0.932677 -0.275912 -0.23235
  outer loop
    vertex -1.824623 -0.4648746 -0.2284702
    vertex -1.806183 -0.4686829 -0.297968
    vertex -1.802933730844778 -0.5146815904265059 -0.2563881561680604
  endloop
endfacet
facet normal -0.940686 -0.273494 -0.200777
  outer loop
    vertex -1.782338 -0.5648628 -0.284528
    vertex -1.798591 -0.5603059 -0.2145863
    vertex -1.802933730844778 -0.5146815904265059 -0.2563881561680604
  endloop
endfacet
facet normal -0.933756 -0.286016 -0.215163
  outer loop
    vertex -1.798591 -0.5603059 -0.2145863
    vertex -1.824623 -0.4648746 -0.2284702
    vertex -1.802933730844778 -0.5146815904265059 -0.2563881561680604
  endloop
endfacet
facet normal -0.939721 -0.263439 -0.218001
  outer loop
    vertex -1.806183 -0.4686829 -0.297968
    vertex -1.782338 -0.5648628 -0.284528
    vertex -1.802933730844778 -0.5146815904265059 -0.2563881561680604
  endloop
endfacet
facet normal -0.931983 -0.276099 -0.234897
  outer loop
    vertex -1.73019 -0.4366545 -0.2115613
    vertex -1.713369 -0.4420398 -0.2719707
    vertex -1.709310008134694 -0.487249997475859 -0.2349349796048764
  endloop
endfacet
facet normal -0.941159 -0.273335 -0.198763
  outer loop
    vertex -1.689524 -0.5382197 -0.2585308
    vertex -1.704157 -0.5320858000000001 -0.1976775
    vertex -1.709310008134694 -0.487249997475859 -0.2349349796048764
  endloop
endfacet
facet normal -0.933784 -0.286015 -0.215042
  outer loop
    vertex -1.704157 -0.5320858000000001 -0.1976775
    vertex -1.73019 -0.4366545 -0.2115613
    vertex -1.709310008134694 -0.487249997475859 -0.2349349796048764
  endloop
endfacet
facet normal -0.939549 -0.263491 -0.218677
  outer loop
    vertex -1.713369 -0.4420398 -0.2719707
    vertex -1.689524 -0.5382197 -0.2585308
    vertex -1.709310008134694 -0.487249997475859 -0.2349349796048764
  endloop
endfacet
facet normal 0.244964 -0.957002 0.155369
  outer loop
    vertex -1.704157 -0.5320858000000001 -0.1976775
    vertex -1.744198409218435 -0.5489682530135698 -0.2385340027107229
    vertex -1.689524 -0.5382197 -0.2585308
  endloop
endfacet
facet normal 0.253502 -0.959682 0.121435
  outer loop
    vertex -1.782338 -0.5648628 -0.284528
    vertex -1.744198409218435 -0.5489682530135698 -0.2385340027107229
    vertex -1.798591 -0.5603059 -0.2145863
  endloop
endfacet
facet normal 0.260523 -0.955346 0.139436
  outer loop
    vertex -1.798591 -0.5603059 -0.2145863
    vertex -1.744198409218435 -0.5489682530135698 -0.2385340027107229
    vertex -1.704157 -0.5320858000000001 -0.1976775
  endloop
endfacet
facet normal 0.238354 -0.961788 0.134723
  outer loop
    vertex -1.689524 -0.5382197 -0.2585308
    vertex -1.744198409218435 -0.5489682530135698 -0.2385340027107229
    vertex -1.782338 -0.5648628 -0.284528
  endloop
endfacet
facet normal 0.219969 -0.963776 0.150829
  outer loop
    vertex -1.713369 -0.4420398 -0.2719707
    vertex -1.749167480464492 -0.4570063811965822 -0.3153966411624326
    vertex -1.692853 -0.4461352 -0.3280603
  endloop
endfacet
facet normal 0.232579 -0.965905 0.113732
  outer loop
    vertex -1.783835 -0.4707768 -0.3614523
    vertex -1.749167480464492 -0.4570063811965822 -0.3153966411624326
    vertex -1.806183 -0.4686829 -0.297968
  endloop
endfacet
facet normal 0.238252 -0.961766 0.135064
  outer loop
    vertex -1.806183 -0.4686829 -0.297968
    vertex -1.749167480464492 -0.4570063811965822 -0.3153966411624326
    vertex -1.713369 -0.4420398 -0.2719707
  endloop
endfacet
facet normal 0.215516 -0.968173 0.127253
  outer loop
    vertex -1.692853 -0.4461352 -0.3280603
    vertex -1.749167480464492 -0.4570063811965822 -0.3153966411624326
    vertex -1.783835 -0.4707768 -0.3614523
  endloop
endfacet
facet normal -0.925624 -0.255711 -0.278984
  outer loop
    vertex -1.761997 -0.5676259 -0.3494836
    vertex -1.782338 -0.5648628 -0.284528
    vertex -1.783547392305406 -0.5179030898379878 -0.3235577893377438
  endloop
endfacet
facet normal -0.914083 -0.257494 -0.313286
  outer loop
    vertex -1.806183 -0.4686829 -0.297968
    vertex -1.783835 -0.4707768 -0.3614523
    vertex -1.783547392305406 -0.5179030898379878 -0.3235577893377438
  endloop
endfacet
facet normal -0.917084 -0.268543 -0.294688
  outer loop
    vertex -1.782338 -0.5648628 -0.284528
    vertex -1.806183 -0.4686829 -0.297968
    vertex -1.783547392305406 -0.5179030898379878 -0.3235577893377438
  endloop
endfacet
facet normal -0.922798 -0.24484 -0.297484
  outer loop
    vertex -1.783835 -0.4707768 -0.3614523
    vertex -1.761997 -0.5676259 -0.3494836
    vertex -1.783547392305406 -0.5179030898379878 -0.3235577893377438
  endloop
endfacet
facet normal -0.926325 -0.25565 -0.276704
  outer loop
    vertex -1.671015 -0.5429842 -0.3160916
    vertex -1.689524 -0.5382197 -0.2585308
    vertex -1.691690239556516 -0.4923445626590517 -0.2936634919560209
  endloop
endfacet
facet normal -0.913356 -0.257658 -0.315267
  outer loop
    vertex -1.713369 -0.4420398 -0.2719707
    vertex -1.692853 -0.4461352 -0.3280603
    vertex -1.691690239556516 -0.4923445626590517 -0.2936634919560209
  endloop
endfacet
facet normal -0.9173 -0.268507 -0.294049
  outer loop
    vertex -1.689524 -0.5382197 -0.2585308
    vertex -1.713369 -0.4420398 -0.2719707
    vertex -1.691690239556516 -0.4923445626590517 -0.2936634919560209
  endloop
endfacet
facet normal -0.922709 -0.244853 -0.297749
  outer loop
    vertex -1.692853 -0.4461352 -0.3280603
    vertex -1.671015 -0.5429842 -0.3160916
    vertex -1.691690239556516 -0.4923445626590517 -0.2936634919560209
  endloop
endfacet
facet normal 0.220459 -0.963691 0.150658
  outer loop
    vertex -1.689524 -0.5382197 -0.2585308
    vertex -1.726618597696695 -0.5534589709834647 -0.3017286870882443
    vertex -1.671015 -0.5429842 -0.3160916
  endloop
endfacet
facet normal 0.23286 -0.965805 0.114004
  outer loop
    vertex -1.761997 -0.5676259 -0.3494836
    vertex -1.726618597696695 -0.5534589709834647 -0.3017286870882443
    vertex -1.782338 -0.5648628 -0.284528
  endloop
endfacet
facet normal 0.238394 -0.961797 0.134589
  outer loop
    vertex -1.782338 -0.5648628 -0.284528
    vertex -1.726618597696695 -0.5534589709834647 -0.3017286870882443
    vertex -1.689524 -0.5382197 -0.2585308
  endloop
endfacet
facet normal 0.215361 -0.968154 0.127665
  outer loop
    vertex -1.671015 -0.5429842 -0.3160916
    vertex -1.726618597696695 -0.5534589709834647 -0.3017286870882443
    vertex -1.761997 -0.5676259 -0.3494836
  endloop
endfacet
facet normal 0.203104 -0.971068 0.125602
  outer loop
    vertex -1.692853 -0.4461352 -0.3280603
    vertex -1.725957820080884 -0.4589130331587177 -0.3733179340216103
    vertex -1.669351 -0.4478687 -0.3794664
  endloop
endfacet
facet normal 0.217883 -0.971702 0.0912235
  outer loop
    vertex -1.757064 -0.4704446 -0.4218551
    vertex -1.725957820080884 -0.4589130331587177 -0.3733179340216103
    vertex -1.783835 -0.4707768 -0.3614523
  endloop
endfacet
facet normal 0.221447 -0.968773 0.111536
  outer loop
    vertex -1.783835 -0.4707768 -0.3614523
    vertex -1.725957820080884 -0.4589130331587177 -0.3733179340216103
    vertex -1.692853 -0.4461352 -0.3280603
  endloop
endfacet
facet normal 0.2012 -0.974172 0.102502
  outer loop
    vertex -1.669351 -0.4478687 -0.3794664
    vertex -1.725957820080884 -0.4589130331587177 -0.3733179340216103
    vertex -1.757064 -0.4704446 -0.4218551
  endloop
endfacet
facet normal -0.901571 -0.236125 -0.362513
  outer loop
    vertex -1.737019 -0.5678596 -0.4114518
    vertex -1.761997 -0.5676259 -0.3494836
    vertex -1.759978813653154 -0.5191766027524601 -0.3860606422186067
  endloop
endfacet
facet normal -0.887733 -0.236854 -0.394753
  outer loop
    vertex -1.783835 -0.4707768 -0.3614523
    vertex -1.757064 -0.4704446 -0.4218551
    vertex -1.759978813653154 -0.5191766027524601 -0.3860606422186067
  endloop
endfacet
facet normal -0.892224 -0.247836 -0.377509
  outer loop
    vertex -1.761997 -0.5676259 -0.3494836
    vertex -1.783835 -0.4707768 -0.3614523
    vertex -1.759978813653154 -0.5191766027524601 -0.3860606422186067
  endloop
endfacet
facet normal -0.89731 -0.225182 -0.379642
  outer loop
    vertex -1.757064 -0.4704446 -0.4218551
    vertex -1.737019 -0.5678596 -0.4114518
    vertex -1.759978813653154 -0.5191766027524601 -0.3860606422186067
  endloop
endfacet
facet normal -0.902714 -0.236048 -0.359707
  outer loop
    vertex -1.649306 -0.5452838 -0.3690631
    vertex -1.671015 -0.5429842 -0.3160916
    vertex -1.670631236389613 -0.4955678488296779 -0.3481704329103771
  endloop
endfacet
facet normal -0.886568 -0.236901 -0.397335
  outer loop
    vertex -1.692853 -0.4461352 -0.3280603
    vertex -1.669351 -0.4478687 -0.3794664
    vertex -1.670631236389613 -0.4955678488296779 -0.3481704329103771
  endloop
endfacet
facet normal -0.892449 -0.247822 -0.376988
  outer loop
    vertex -1.671015 -0.5429842 -0.3160916
    vertex -1.692853 -0.4461352 -0.3280603
    vertex -1.670631236389613 -0.4955678488296779 -0.3481704329103771
  endloop
endfacet
facet normal -0.897193 -0.225187 -0.379916
  outer loop
    vertex -1.669351 -0.4478687 -0.3794664
    vertex -1.649306 -0.5452838 -0.3690631
    vertex -1.670631236389613 -0.4955678488296779 -0.3481704329103771
  endloop
endfacet
facet normal 0.203551 -0.970978 0.125572
  outer loop
    vertex -1.671015 -0.5429842 -0.3160916
    vertex -1.705400512156895 -0.5560246631532511 -0.3611875914378003
    vertex -1.649306 -0.5452838 -0.3690631
  endloop
endfacet
facet normal 0.218102 -0.97162 0.0915763
  outer loop
    vertex -1.737019 -0.5678596 -0.4114518
    vertex -1.705400512156895 -0.5560246631532511 -0.3611875914378003
    vertex -1.761997 -0.5676259 -0.3494836
  endloop
endfacet
facet normal 0.221577 -0.968783 0.111193
  outer loop
    vertex -1.761997 -0.5676259 -0.3494836
    vertex -1.705400512156895 -0.5560246631532511 -0.3611875914378003
    vertex -1.671015 -0.5429842 -0.3160916
  endloop
endfacet
facet normal 0.200985 -0.97417 0.102944
  outer loop
    vertex -1.649306 -0.5452838 -0.3690631
    vertex -1.705400512156895 -0.5560246631532511 -0.3611875914378003
    vertex -1.737019 -0.5678596 -0.4114518
  endloop
endfacet
facet normal 0.177673 -0.976752 0.119945
  outer loop
    vertex -1.669351 -0.4478687 -0.3794664
    vertex -1.698545991915111 -0.4590141515024784 -0.426981103810558
    vertex -1.641721 -0.4487902 -0.4278984
  endloop
endfacet
facet normal 0.197969 -0.976783 0.0818742
  outer loop
    vertex -1.72636 -0.468863 -0.4772274
    vertex -1.698545991915111 -0.4590141515024784 -0.426981103810558
    vertex -1.757064 -0.4704446 -0.4218551
  endloop
endfacet
facet normal 0.199558 -0.974148 0.105888
  outer loop
    vertex -1.757064 -0.4704446 -0.4218551
    vertex -1.698545991915111 -0.4590141515024784 -0.426981103810558
    vertex -1.669351 -0.4478687 -0.3794664
  endloop
endfacet
facet normal 0.177763 -0.979611 0.0936137
  outer loop
    vertex -1.641721 -0.4487902 -0.4278984
    vertex -1.698545991915111 -0.4590141515024784 -0.426981103810558
    vertex -1.72636 -0.468863 -0.4772274
  endloop
endfacet
facet normal -0.851828 -0.213291 -0.478432
  outer loop
    vertex -1.757064 -0.4704446 -0.4218551
    vertex -1.72636 -0.468863 -0.4772274
    vertex -1.732273431601788 -0.5184835702799637 -0.4445772863164047
  endloop
endfacet
facet normal -0.87088 -0.213349 -0.442775
  outer loop
    vertex -1.708651 -0.5667667 -0.4677745
    vertex -1.737019 -0.5678596 -0.4114518
    vertex -1.732273431601788 -0.5184835702799637 -0.4445772863164047
  endloop
endfacet
facet normal -0.858906 -0.225825 -0.459656
  outer loop
    vertex -1.737019 -0.5678596 -0.4114518
    vertex -1.757064 -0.4704446 -0.4218551
    vertex -1.732273431601788 -0.5184835702799637 -0.4445772863164047
  endloop
endfacet
facet normal -0.863975 -0.20086 -0.461739
  outer loop
    vertex -1.72636 -0.468863 -0.4772274
    vertex -1.708651 -0.5667667 -0.4677745
    vertex -1.732273431601788 -0.5184835702799637 -0.4445772863164047
  endloop
endfacet
facet normal -0.850351 -0.213272 -0.481059
  outer loop
    vertex -1.669351 -0.4478687 -0.3794664
    vertex -1.641721 -0.4487902 -0.4278984
    vertex -1.646097543087468 -0.4971592955930302 -0.3987182361185465
  endloop
endfacet
facet normal -0.872007 -0.213341 -0.440555
  outer loop
    vertex -1.624012 -0.546694 -0.4184456
    vertex -1.649306 -0.5452838 -0.3690631
    vertex -1.646097543087468 -0.4971592955930302 -0.3987182361185465
  endloop
endfacet
facet normal -0.859037 -0.225825 -0.459411
  outer loop
    vertex -1.649306 -0.5452838 -0.3690631
    vertex -1.669351 -0.4478687 -0.3794664
    vertex -1.646097543087468 -0.4971592955930302 -0.3987182361185465
  endloop
endfacet
facet normal -0.863585 -0.200859 -0.462468
  outer loop
    vertex -1.641721 -0.4487902 -0.4278984
    vertex -1.624012 -0.546694 -0.4184456
    vertex -1.646097543087468 -0.4971592955930302 -0.3987182361185465
  endloop
endfacet
facet normal 0.178383 -0.976707 0.11926
  outer loop
    vertex -1.649306 -0.5452838 -0.3690631
    vertex -1.680012052812964 -0.5566823773589288 -0.4164858359733765
    vertex -1.624012 -0.546694 -0.4184456
  endloop
endfacet
facet normal 0.198663 -0.976706 0.0811081
  outer loop
    vertex -1.708651 -0.5667667 -0.4677745
    vertex -1.680012052812964 -0.5566823773589288 -0.4164858359733765
    vertex -1.737019 -0.5678596 -0.4114518
  endloop
endfacet
facet normal 0.200229 -0.97416 0.104502
  outer loop
    vertex -1.737019 -0.5678596 -0.4114518
    vertex -1.680012052812964 -0.5566823773589288 -0.4164858359733765
    vertex -1.649306 -0.5452838 -0.3690631
  endloop
endfacet
facet normal 0.177989 -0.979607 0.0932226
  outer loop
    vertex -1.624012 -0.546694 -0.4184456
    vertex -1.680012052812964 -0.5566823773589288 -0.4164858359733765
    vertex -1.708651 -0.5667667 -0.4677745
  endloop
endfacet
facet normal 0.169565 -0.979618 0.107682
  outer loop
    vertex -1.641721 -0.4487902 -0.4278984
    vertex -1.72636 -0.468863 -0.4772274
    vertex -1.724401 -0.4688813 -0.4804787
  endloop
endfacet
facet normal 0.155468 -0.979286 0.129723
  outer loop
    vertex -1.724401 -0.4688813 -0.4804787
    vertex -1.639866 -0.4488981 -0.4309361
    vertex -1.641721 -0.4487902 -0.4278984
  endloop
endfacet
facet normal -0.839714 -0.20008 -0.504825
  outer loop
    vertex -1.724401 -0.4688813 -0.4804787
    vertex -1.708367 -0.5667773 -0.4683496
    vertex -1.72636 -0.468863 -0.4772274
  endloop
endfacet
facet normal -0.879842 -0.200742 -0.43079
  outer loop
    vertex -1.708367 -0.5667773 -0.4683496
    vertex -1.708651 -0.5667667 -0.4677745
    vertex -1.72636 -0.468863 -0.4772274
  endloop
endfacet
facet normal -0.898356 -0.195854 -0.393191
  outer loop
    vertex -1.639866 -0.4488981 -0.4309361
    vertex -1.623832 -0.5467940999999999 -0.418807
    vertex -1.624012 -0.546694 -0.4184456
  endloop
endfacet
facet normal -0.839258 -0.200601 -0.505376
  outer loop
    vertex -1.641721 -0.4487902 -0.4278984
    vertex -1.639866 -0.4488981 -0.4309361
    vertex -1.624012 -0.546694 -0.4184456
  endloop
endfacet
facet normal 0.171425 -0.979828 0.102714
  outer loop
    vertex -1.623832 -0.5467940999999999 -0.418807
    vertex -1.708651 -0.5667667 -0.4677745
    vertex -1.708367 -0.5667773 -0.4683496
  endloop
endfacet
facet normal 0.056032 -0.954674 0.292332
  outer loop
    vertex -1.624012 -0.546694 -0.4184456
    vertex -1.708651 -0.5667667 -0.4677745
    vertex -1.623832 -0.5467940999999999 -0.418807
  endloop
endfacet
facet normal 0.139349 -0.98127 0.13301
  outer loop
    vertex -1.639866 -0.4488981 -0.4309361
    vertex -1.666436766567782 -0.4592417902423094 -0.4794086730615569
    vertex -1.610466 -0.450596 -0.4742635
  endloop
endfacet
facet normal 0.16147 -0.98192 0.0987978
  outer loop
    vertex -1.691075 -0.4684526 -0.5306843999999999
    vertex -1.666436766567782 -0.4592417902423094 -0.4794086730615569
    vertex -1.724401 -0.4688813 -0.4804787
  endloop
endfacet
facet normal 0.16067 -0.979568 0.12096
  outer loop
    vertex -1.724401 -0.4688813 -0.4804787
    vertex -1.666436766567782 -0.4592417902423094 -0.4794086730615569
    vertex -1.639866 -0.4488981 -0.4309361
  endloop
endfacet
facet normal 0.142008 -0.983901 0.108505
  outer loop
    vertex -1.610466 -0.450596 -0.4742635
    vertex -1.666436766567782 -0.4592417902423094 -0.4794086730615569
    vertex -1.691075 -0.4684526 -0.5306843999999999
  endloop
endfacet
facet normal -0.817324 -0.189433 -0.544148
  outer loop
    vertex -1.724401 -0.4688813 -0.4804787
    vertex -1.691075 -0.4684526 -0.5306843999999999
    vertex -1.700384923847089 -0.5177335493492814 -0.499544636844771
  endloop
endfacet
facet normal -0.838634 -0.188551 -0.51102
  outer loop
    vertex -1.677697 -0.5668221 -0.5186655
    vertex -1.708367 -0.5667773 -0.4683496
    vertex -1.700384923847089 -0.5177335493492814 -0.499544636844771
  endloop
endfacet
facet normal -0.826071 -0.200553 -0.526674
  outer loop
    vertex -1.708367 -0.5667773 -0.4683496
    vertex -1.724401 -0.4688813 -0.4804787
    vertex -1.700384923847089 -0.5177335493492814 -0.499544636844771
  endloop
endfacet
facet normal -0.829855 -0.177492 -0.528997
  outer loop
    vertex -1.691075 -0.4684526 -0.5306843999999999
    vertex -1.677697 -0.5668221 -0.5186655
    vertex -1.700384923847089 -0.5177335493492814 -0.499544636844771
  endloop
endfacet
facet normal -0.840463 -0.188458 -0.508042
  outer loop
    vertex -1.597088 -0.5489655 -0.4622446
    vertex -1.623832 -0.5467940999999999 -0.418807
    vertex -1.617812994352812 -0.4988136297273053 -0.4465626668967546
  endloop
endfacet
facet normal -0.815926 -0.18948 -0.546225
  outer loop
    vertex -1.639866 -0.4488981 -0.4309361
    vertex -1.610466 -0.450596 -0.4742635
    vertex -1.617812994352812 -0.4988136297273053 -0.4465626668967546
  endloop
endfacet
facet normal -0.826561 -0.200538 -0.52591
  outer loop
    vertex -1.623832 -0.5467940999999999 -0.418807
    vertex -1.639866 -0.4488981 -0.4309361
    vertex -1.617812994352812 -0.4988136297273053 -0.4465626668967546
  endloop
endfacet
facet normal -0.829823 -0.177493 -0.529046
  outer loop
    vertex -1.610466 -0.450596 -0.4742635
    vertex -1.597088 -0.5489655 -0.4622446
    vertex -1.617812994352812 -0.4988136297273053 -0.4465626668967546
  endloop
endfacet
facet normal 0.138741 -0.981157 0.134468
  outer loop
    vertex -1.623832 -0.5467940999999999 -0.418807
    vertex -1.652035556343702 -0.5573532433056034 -0.466752817749111
    vertex -1.597088 -0.5489655 -0.4622446
  endloop
endfacet
facet normal 0.16145 -0.981874 0.0992857
  outer loop
    vertex -1.677697 -0.5668221 -0.5186655
    vertex -1.652035556343702 -0.5573532433056034 -0.466752817749111
    vertex -1.708367 -0.5667773 -0.4683496
  endloop
endfacet
facet normal 0.160437 -0.979558 0.121354
  outer loop
    vertex -1.708367 -0.5667773 -0.4683496
    vertex -1.652035556343702 -0.5573532433056034 -0.466752817749111
    vertex -1.623832 -0.5467940999999999 -0.418807
  endloop
endfacet
facet normal 0.141193 -0.983889 0.109667
  outer loop
    vertex -1.597088 -0.5489655 -0.4622446
    vertex -1.652035556343702 -0.5573532433056034 -0.466752817749111
    vertex -1.677697 -0.5668221 -0.5186655
  endloop
endfacet
facet normal 0.104574 -0.984409 0.141434
  outer loop
    vertex -1.610466 -0.450596 -0.4742635
    vertex -1.63329581046189 -0.4602139255365988 -0.5243259652816713
    vertex -1.578149 -0.4528439 -0.513804
  endloop
endfacet
facet normal 0.128336 -0.985526 0.110762
  outer loop
    vertex -1.653877 -0.4688283 -0.5771273
    vertex -1.63329581046189 -0.4602139255365988 -0.5243259652816713
    vertex -1.691075 -0.4684526 -0.5306843999999999
  endloop
endfacet
facet normal 0.125728 -0.983301 0.131575
  outer loop
    vertex -1.691075 -0.4684526 -0.5306843999999999
    vertex -1.63329581046189 -0.4602139255365988 -0.5243259652816713
    vertex -1.610466 -0.450596 -0.4742635
  endloop
endfacet
facet normal 0.109305 -0.98693 0.118409
  outer loop
    vertex -1.578149 -0.4528439 -0.513804
    vertex -1.63329581046189 -0.4602139255365988 -0.5243259652816713
    vertex -1.653877 -0.4688283 -0.5771273
  endloop
endfacet
facet normal -0.791723 -0.168706 -0.587122
  outer loop
    vertex -1.643207 -0.567507 -0.5649778
    vertex -1.677697 -0.5668221 -0.5186655
    vertex -1.666576564699068 -0.517936373217704 -0.5477081870943961
  endloop
endfacet
facet normal -0.769887 -0.169488 -0.615262
  outer loop
    vertex -1.691075 -0.4684526 -0.5306843999999999
    vertex -1.653877 -0.4688283 -0.5771273
    vertex -1.666576564699068 -0.517936373217704 -0.5477081870943961
  endloop
endfacet
facet normal -0.779401 -0.179343 -0.600309
  outer loop
    vertex -1.677697 -0.5668221 -0.5186655
    vertex -1.691075 -0.4684526 -0.5306843999999999
    vertex -1.666576564699068 -0.517936373217704 -0.5477081870943961
  endloop
endfacet
facet normal -0.782079 -0.158761 -0.602618
  outer loop
    vertex -1.653877 -0.4688283 -0.5771273
    vertex -1.643207 -0.567507 -0.5649778
    vertex -1.666576564699068 -0.517936373217704 -0.5477081870943961
  endloop
endfacet
facet normal -0.767784 -0.169484 -0.617886
  outer loop
    vertex -1.610466 -0.450596 -0.4742635
    vertex -1.578149 -0.4528439 -0.513804
    vertex -1.588295754981576 -0.500982233528563 -0.4879914738196366
  endloop
endfacet
facet normal -0.793288 -0.168566 -0.585047
  outer loop
    vertex -1.56748 -0.5515226 -0.5016545
    vertex -1.597088 -0.5489655 -0.4622446
    vertex -1.588295754981576 -0.500982233528563 -0.4879914738196366
  endloop
endfacet
facet normal -0.77935 -0.179344 -0.600374
  outer loop
    vertex -1.597088 -0.5489655 -0.4622446
    vertex -1.610466 -0.450596 -0.4742635
    vertex -1.588295754981576 -0.500982233528563 -0.4879914738196366
  endloop
endfacet
facet normal -0.781528 -0.15878 -0.603327
  outer loop
    vertex -1.578149 -0.4528439 -0.513804
    vertex -1.56748 -0.5515226 -0.5016545
    vertex -1.588295754981576 -0.500982233528563 -0.4879914738196366
  endloop
endfacet
facet normal 0.104285 -0.984327 0.142215
  outer loop
    vertex -1.597088 -0.5489655 -0.4622446
    vertex -1.621670075328927 -0.5587282165535323 -0.5117902593477877
    vertex -1.56748 -0.5515226 -0.5016545
  endloop
endfacet
facet normal 0.128809 -0.985494 0.110501
  outer loop
    vertex -1.643207 -0.567507 -0.5649778
    vertex -1.621670075328927 -0.5587282165535323 -0.5117902593477877
    vertex -1.677697 -0.5668221 -0.5186655
  endloop
endfacet
facet normal 0.125945 -0.983314 0.131269
  outer loop
    vertex -1.677697 -0.5668221 -0.5186655
    vertex -1.621670075328927 -0.5587282165535323 -0.5117902593477877
    vertex -1.597088 -0.5489655 -0.4622446
  endloop
endfacet
facet normal 0.109019 -0.986921 0.11875
  outer loop
    vertex -1.56748 -0.5515226 -0.5016545
    vertex -1.621670075328927 -0.5587282165535323 -0.5117902593477877
    vertex -1.643207 -0.567507 -0.5649778
  endloop
endfacet
facet normal 0.109362 -0.988647 0.10304
  outer loop
    vertex -1.618993 -0.4689555 -0.6153722
    vertex -1.599077358077033 -0.4613892584177549 -0.5639130103842342
    vertex -1.653877 -0.4688283 -0.5771273
  endloop
endfacet
facet normal 0.0817558 -0.987567 0.134269
  outer loop
    vertex -1.578149 -0.4528439 -0.513804
    vertex -1.599077358077033 -0.4613892584177549 -0.5639130103842342
    vertex -1.54606 -0.4548933 -0.5484164
  endloop
endfacet
facet normal 0.103827 -0.986721 0.124907
  outer loop
    vertex -1.653877 -0.4688283 -0.5771273
    vertex -1.599077358077033 -0.4613892584177549 -0.5639130103842342
    vertex -1.578149 -0.4528439 -0.513804
  endloop
endfacet
facet normal 0.0887822 -0.989827 0.111178
  outer loop
    vertex -1.54606 -0.4548933 -0.5484164
    vertex -1.599077358077033 -0.4613892584177549 -0.5639130103842342
    vertex -1.618993 -0.4689555 -0.6153722
  endloop
endfacet
facet normal -0.730644 -0.150627 -0.665936
  outer loop
    vertex -1.653877 -0.4688283 -0.5771273
    vertex -1.618993 -0.4689555 -0.6153722
    vertex -1.631770131804844 -0.5182984256908421 -0.5901927230554906
  endloop
endfacet
facet normal -0.757688 -0.149424 -0.63528
  outer loop
    vertex -1.611004 -0.5678994000000001 -0.6032935
    vertex -1.643207 -0.567507 -0.5649778
    vertex -1.631770131804844 -0.5182984256908421 -0.5901927230554906
  endloop
endfacet
facet normal -0.742916 -0.160347 -0.649896
  outer loop
    vertex -1.643207 -0.567507 -0.5649778
    vertex -1.653877 -0.4688283 -0.5771273
    vertex -1.631770131804844 -0.5182984256908421 -0.5901927230554906
  endloop
endfacet
facet normal -0.745193 -0.139767 -0.652037
  outer loop
    vertex -1.618993 -0.4689555 -0.6153722
    vertex -1.611004 -0.5678994000000001 -0.6032935
    vertex -1.631770131804844 -0.5182984256908421 -0.5901927230554906
  endloop
endfacet
facet normal -0.759068 -0.149345 -0.633649
  outer loop
    vertex -1.538072 -0.5538373 -0.5363377
    vertex -1.56748 -0.5515226 -0.5016545
    vertex -1.557440142026495 -0.503274408808759 -0.5250531843095353
  endloop
endfacet
facet normal -0.729393 -0.15067 -0.667296
  outer loop
    vertex -1.578149 -0.4528439 -0.513804
    vertex -1.54606 -0.4548933 -0.5484164
    vertex -1.557440142026495 -0.503274408808759 -0.5250531843095353
  endloop
endfacet
facet normal -0.743255 -0.160329 -0.649513
  outer loop
    vertex -1.56748 -0.5515226 -0.5016545
    vertex -1.578149 -0.4528439 -0.513804
    vertex -1.557440142026495 -0.503274408808759 -0.5250531843095353
  endloop
endfacet
facet normal -0.744953 -0.139773 -0.65231
  outer loop
    vertex -1.54606 -0.4548933 -0.5484164
    vertex -1.538072 -0.5538373 -0.5363377
    vertex -1.557440142026495 -0.503274408808759 -0.5250531843095353
  endloop
endfacet
facet normal 0.109957 -0.988633 0.10254
  outer loop
    vertex -1.611004 -0.5678994000000001 -0.6032935
    vertex -1.589940520371511 -0.560191553207916 -0.5515655129246315
    vertex -1.643207 -0.567507 -0.5649778
  endloop
endfacet
facet normal 0.0813723 -0.987512 0.134901
  outer loop
    vertex -1.56748 -0.5515226 -0.5016545
    vertex -1.589940520371511 -0.560191553207916 -0.5515655129246315
    vertex -1.538072 -0.5538373 -0.5363377
  endloop
endfacet
facet normal 0.104164 -0.986736 0.124509
  outer loop
    vertex -1.643207 -0.567507 -0.5649778
    vertex -1.589940520371511 -0.560191553207916 -0.5515655129246315
    vertex -1.56748 -0.5515226 -0.5016545
  endloop
endfacet
facet normal 0.088544 -0.989819 0.111435
  outer loop
    vertex -1.538072 -0.5538373 -0.5363377
    vertex -1.589940520371511 -0.560191553207916 -0.5515655129246315
    vertex -1.611004 -0.5678994000000001 -0.6032935
  endloop
endfacet
facet normal 0.0730578 -0.98982 0.12214
  outer loop
    vertex -1.583225 -0.4706255 -0.6503004
    vertex -1.567162543487822 -0.4630352064188793 -0.5983965157644209
    vertex -1.618993 -0.4689555 -0.6153722
  endloop
endfacet
facet normal 0.0587588 -0.988925 0.13629
  outer loop
    vertex -1.54606 -0.4548933 -0.5484164
    vertex -1.567162543487822 -0.4630352064188793 -0.5983965157644209
    vertex -1.516193 -0.4571042 -0.5773354000000001
  endloop
endfacet
facet normal 0.0698497 -0.98884 0.131593
  outer loop
    vertex -1.618993 -0.4689555 -0.6153722
    vertex -1.567162543487822 -0.4630352064188793 -0.5983965157644209
    vertex -1.54606 -0.4548933 -0.5484164
  endloop
endfacet
facet normal 0.063504 -0.990105 0.125138
  outer loop
    vertex -1.516193 -0.4571042 -0.5773354000000001
    vertex -1.567162543487822 -0.4630352064188793 -0.5983965157644209
    vertex -1.583225 -0.4706255 -0.6503004
  endloop
endfacet
facet normal -0.709956 -0.136442 -0.690903
  outer loop
    vertex -1.579049 -0.5694683 -0.6358199
    vertex -1.611004 -0.5678994000000001 -0.6032935
    vertex -1.598067776479263 -0.5192371287942938 -0.6261965021506417
  endloop
endfacet
facet normal -0.695301 -0.137493 -0.705445
  outer loop
    vertex -1.618993 -0.4689555 -0.6153722
    vertex -1.583225 -0.4706255 -0.6503004
    vertex -1.598067776479263 -0.5192371287942938 -0.6261965021506417
  endloop
endfacet
facet normal -0.701961 -0.14188 -0.697941
  outer loop
    vertex -1.611004 -0.5678994000000001 -0.6032935
    vertex -1.618993 -0.4689555 -0.6153722
    vertex -1.598067776479263 -0.5192371287942938 -0.6261965021506417
  endloop
endfacet
facet normal -0.70268 -0.132111 -0.699133
  outer loop
    vertex -1.583225 -0.4706255 -0.6503004
    vertex -1.579049 -0.5694683 -0.6358199
    vertex -1.598067776479263 -0.5192371287942938 -0.6261965021506417
  endloop
endfacet
facet normal -0.712332 -0.131106 -0.689488
  outer loop
    vertex -1.516193 -0.4571042 -0.5773354000000001
    vertex -1.512017 -0.555947 -0.5628548
    vertex -1.538072 -0.5538373 -0.5363377
  endloop
endfacet
facet normal -0.693958 -0.142191 -0.705836
  outer loop
    vertex -1.54606 -0.4548933 -0.5484164
    vertex -1.516193 -0.4571042 -0.5773354000000001
    vertex -1.538072 -0.5538373 -0.5363377
  endloop
endfacet
facet normal 0.0743401 -0.989892 0.120781
  outer loop
    vertex -1.579049 -0.5694683 -0.6358199
    vertex -1.560035382935996 -0.5617879278670602 -0.5845763362854879
    vertex -1.611004 -0.5678994000000001 -0.6032935
  endloop
endfacet
facet normal 0.0586384 -0.988931 0.136296
  outer loop
    vertex -1.538072 -0.5538373 -0.5363377
    vertex -1.560035382935996 -0.5617879278670602 -0.5845763362854879
    vertex -1.512017 -0.555947 -0.5628548
  endloop
endfacet
facet normal 0.0705098 -0.988887 0.130883
  outer loop
    vertex -1.611004 -0.5678994000000001 -0.6032935
    vertex -1.560035382935996 -0.5617879278670602 -0.5845763362854879
    vertex -1.538072 -0.5538373 -0.5363377
  endloop
endfacet
facet normal 0.0640611 -0.990133 0.124631
  outer loop
    vertex -1.512017 -0.555947 -0.5628548
    vertex -1.560035382935996 -0.5617879278670602 -0.5845763362854879
    vertex -1.579049 -0.5694683 -0.6358199
  endloop
endfacet
facet normal 0.0286772 -0.987245 0.156603
  outer loop
    vertex -1.555057 -0.4735315 -0.6737783000000001
    vertex -1.516193 -0.4571042 -0.5773354000000001
    vertex -1.583225 -0.4706255 -0.6503004
  endloop
endfacet
facet normal -0.0108585 -0.98501 0.172154
  outer loop
    vertex -1.516193 -0.4571042 -0.5773354000000001
    vertex -1.555057 -0.4735315 -0.6737783000000001
    vertex -1.48973 -0.461196 -0.5990782
  endloop
endfacet
facet normal -0.642819 -0.124734 -0.755794
  outer loop
    vertex -1.555057 -0.4735315 -0.6737783000000001
    vertex -1.55469 -0.5722451 -0.657799
    vertex -1.583225 -0.4706255 -0.6503004
  endloop
endfacet
facet normal -0.672212 -0.135043 -0.727938
  outer loop
    vertex -1.55469 -0.5722451 -0.657799
    vertex -1.579049 -0.5694683 -0.6358199
    vertex -1.583225 -0.4706255 -0.6503004
  endloop
endfacet
facet normal -0.673099 -0.120622 -0.729649
  outer loop
    vertex -1.48973 -0.461196 -0.5990782
    vertex -1.489362 -0.5599094999999999 -0.5830989
    vertex -1.512017 -0.555947 -0.5628548
  endloop
endfacet
facet normal -0.641409 -0.13767 -0.754746
  outer loop
    vertex -1.516193 -0.4571042 -0.5773354000000001
    vertex -1.48973 -0.461196 -0.5990782
    vertex -1.512017 -0.555947 -0.5628548
  endloop
endfacet
facet normal 0.019352 -0.989036 0.1464
  outer loop
    vertex -1.55469 -0.5722451 -0.657799
    vertex -1.489362 -0.5599094999999999 -0.5830989
    vertex -1.579049 -0.5694683 -0.6358199
  endloop
endfacet
facet normal -0.00502547 -0.98241 0.186669
  outer loop
    vertex -1.489362 -0.5599094999999999 -0.5830989
    vertex -1.512017 -0.555947 -0.5628548
    vertex -1.579049 -0.5694683 -0.6358199
  endloop
endfacet
facet normal 0.0224635 -0.989362 0.143732
  outer loop
    vertex -1.5522 -0.4738017 -0.6760847
    vertex -1.48973 -0.461196 -0.5990782
    vertex -1.555057 -0.4735315 -0.6737783000000001
  endloop
endfacet
facet normal -0.0244418 -0.98322 0.180778
  outer loop
    vertex -1.48973 -0.461196 -0.5990782
    vertex -1.5522 -0.4738017 -0.6760847
    vertex -1.486794 -0.4616986 -0.6014148
  endloop
endfacet
facet normal -0.630374 -0.123759 -0.766363
  outer loop
    vertex -1.551089 -0.5726401 -0.6610372
    vertex -1.555057 -0.4735315 -0.6737783000000001
    vertex -1.5522 -0.4738017 -0.6760847
  endloop
endfacet
facet normal -0.671051 -0.120904 -0.731486
  outer loop
    vertex -1.55469 -0.5722451 -0.657799
    vertex -1.555057 -0.4735315 -0.6737783000000001
    vertex -1.551089 -0.5726401 -0.6610372
  endloop
endfacet
facet normal -0.670704 -0.118999 -0.732117
  outer loop
    vertex -1.489362 -0.5599094999999999 -0.5830989
    vertex -1.486794 -0.4616986 -0.6014148
    vertex -1.485683 -0.560537 -0.5863673
  endloop
endfacet
facet normal -0.63087 -0.126275 -0.765544
  outer loop
    vertex -1.489362 -0.5599094999999999 -0.5830989
    vertex -1.48973 -0.461196 -0.5990782
    vertex -1.486794 -0.4616986 -0.6014148
  endloop
endfacet
facet normal 0.0199636 -0.989535 0.142905
  outer loop
    vertex -1.551089 -0.5726401 -0.6610372
    vertex -1.485683 -0.560537 -0.5863673
    vertex -1.55469 -0.5722451 -0.657799
  endloop
endfacet
facet normal -0.01322 -0.984629 0.174158
  outer loop
    vertex -1.485683 -0.560537 -0.5863673
    vertex -1.489362 -0.5599094999999999 -0.5830989
    vertex -1.55469 -0.5722451 -0.657799
  endloop
endfacet
facet normal 0.0154078 -0.990411 0.137289
  outer loop
    vertex -1.521355 -0.4767698 -0.7009585
    vertex -1.461124 -0.4648906 -0.6220208
    vertex -1.5522 -0.4738017 -0.6760847
  endloop
endfacet
facet normal 0.00334284 -0.98757 0.157145
  outer loop
    vertex -1.461124 -0.4648906 -0.6220208
    vertex -1.486794 -0.4616986 -0.6014148
    vertex -1.5522 -0.4738017 -0.6760847
  endloop
endfacet
facet normal -0.630237 -0.115968 -0.767693
  outer loop
    vertex -1.520388 -0.5757516 -0.6868002
    vertex -1.5522 -0.4738017 -0.6760847
    vertex -1.521355 -0.4767698 -0.7009585
  endloop
endfacet
facet normal -0.645237 -0.12207 -0.754167
  outer loop
    vertex -1.551089 -0.5726401 -0.6610372
    vertex -1.5522 -0.4738017 -0.6760847
    vertex -1.520388 -0.5757516 -0.6868002
  endloop
endfacet
facet normal -0.648618 -0.113972 -0.752533
  outer loop
    vertex -1.461124 -0.4648906 -0.6220208
    vertex -1.460158 -0.5638723 -0.6078625
    vertex -1.485683 -0.560537 -0.5863673
  endloop
endfacet
facet normal -0.630492 -0.123746 -0.766268
  outer loop
    vertex -1.486794 -0.4616986 -0.6014148
    vertex -1.461124 -0.4648906 -0.6220208
    vertex -1.485683 -0.560537 -0.5863673
  endloop
endfacet
facet normal 0.0150561 -0.99038 0.137554
  outer loop
    vertex -1.520388 -0.5757516 -0.6868002
    vertex -1.460158 -0.5638723 -0.6078625
    vertex -1.551089 -0.5726401 -0.6610372
  endloop
endfacet
facet normal 0.0033135 -0.987566 0.15717
  outer loop
    vertex -1.460158 -0.5638723 -0.6078625
    vertex -1.485683 -0.560537 -0.5863673
    vertex -1.551089 -0.5726401 -0.6610372
  endloop
endfacet
facet normal 0.00724334 -0.9898 0.142277
  outer loop
    vertex -1.430596 -0.4674746 -0.6415515000000001
    vertex -1.461124 -0.4648906 -0.6220208
    vertex -1.474749833734215 -0.4725084815621264 -0.6743236077128051
  endloop
endfacet
facet normal 0.0104189 -0.990072 0.140171
  outer loop
    vertex -1.521355 -0.4767698 -0.7009585
    vertex -1.481235 -0.4800154 -0.7268653
    vertex -1.474749833734215 -0.4725084815621264 -0.6743236077128051
  endloop
endfacet
facet normal 0.00953169 -0.989865 0.14169
  outer loop
    vertex -1.461124 -0.4648906 -0.6220208
    vertex -1.521355 -0.4767698 -0.7009585
    vertex -1.474749833734215 -0.4725084815621264 -0.6743236077128051
  endloop
endfacet
facet normal 0.00867782 -0.990059 0.140384
  outer loop
    vertex -1.481235 -0.4800154 -0.7268653
    vertex -1.430596 -0.4674746 -0.6415515000000001
    vertex -1.474749833734215 -0.4725084815621264 -0.6743236077128051
  endloop
endfacet
facet normal -0.545364 -0.121616 -0.82933
  outer loop
    vertex -1.481235 -0.4800154 -0.7268653
    vertex -1.502279259652928 -0.5277228602655697 -0.7060306601088997
    vertex -1.521355 -0.4767698 -0.7009585
  endloop
endfacet
facet normal -0.55476 -0.120457 -0.823245
  outer loop
    vertex -1.520388 -0.5757516 -0.6868002
    vertex -1.502279259652928 -0.5277228602655697 -0.7060306601088997
    vertex -1.486139 -0.5783545 -0.7094987
  endloop
endfacet
facet normal -0.549685 -0.123547 -0.826185
  outer loop
    vertex -1.521355 -0.4767698 -0.7009585
    vertex -1.502279259652928 -0.5277228602655697 -0.7060306601088997
    vertex -1.520388 -0.5757516 -0.6868002
  endloop
endfacet
facet normal -0.549744 -0.11861 -0.826869
  outer loop
    vertex -1.486139 -0.5783545 -0.7094987
    vertex -1.502279259652928 -0.5277228602655697 -0.7060306601088997
    vertex -1.481235 -0.4800154 -0.7268653
  endloop
endfacet
facet normal -0.554497 -0.123137 -0.823025
  outer loop
    vertex -1.460158 -0.5638723 -0.6078625
    vertex -1.461124 -0.4648906 -0.6220208
    vertex -1.4355 -0.5658136 -0.6241849
  endloop
endfacet
facet normal -0.542206 -0.119831 -0.831657
  outer loop
    vertex -1.4355 -0.5658136 -0.6241849
    vertex -1.461124 -0.4648906 -0.6220208
    vertex -1.430596 -0.4674746 -0.6415515000000001
  endloop
endfacet
facet normal 0.0156144 -0.990429 0.137135
  outer loop
    vertex -1.486139 -0.5783545 -0.7094987
    vertex -1.460158 -0.5638723 -0.6078625
    vertex -1.520388 -0.5757516 -0.6868002
  endloop
endfacet
facet normal 0.0132079 -0.99038 0.137743
  outer loop
    vertex -1.486139 -0.5783545 -0.7094987
    vertex -1.4355 -0.5658136 -0.6241849
    vertex -1.460158 -0.5638723 -0.6078625
  endloop
endfacet
facet normal -0.0935156 -0.977133 0.19096
  outer loop
    vertex -1.481235 -0.4800154 -0.7268653
    vertex -1.42608 -0.4901487 -0.7517068
    vertex -1.43295158291376 -0.4783238318298927 -0.6945645837081013
  endloop
endfacet
facet normal -0.124202 -0.97101 0.204238
  outer loop
    vertex -1.393899 -0.4756581 -0.658142
    vertex -1.430596 -0.4674746 -0.6415515000000001
    vertex -1.43295158291376 -0.4783238318298927 -0.6945645837081013
  endloop
endfacet
facet normal -0.10223 -0.97366 0.203804
  outer loop
    vertex -1.430596 -0.4674746 -0.6415515000000001
    vertex -1.481235 -0.4800154 -0.7268653
    vertex -1.43295158291376 -0.4783238318298927 -0.6945645837081013
  endloop
endfacet
facet normal -0.109458 -0.975899 0.188787
  outer loop
    vertex -1.42608 -0.4901487 -0.7517068
    vertex -1.393899 -0.4756581 -0.658142
    vertex -1.43295158291376 -0.4783238318298927 -0.6945645837081013
  endloop
endfacet
facet normal -0.427043 -0.13109 -0.894679
  outer loop
    vertex -1.42608 -0.4901487 -0.7517068
    vertex -1.457556524210492 -0.5338920283198766 -0.7302732544581788
    vertex -1.481235 -0.4800154 -0.7268653
  endloop
endfacet
facet normal -0.444918 -0.128127 -0.886358
  outer loop
    vertex -1.486139 -0.5783545 -0.7094987
    vertex -1.457556524210492 -0.5338920283198766 -0.7302732544581788
    vertex -1.436772 -0.5870486 -0.7330223
  endloop
endfacet
facet normal -0.436062 -0.13537 -0.889677
  outer loop
    vertex -1.481235 -0.4800154 -0.7268653
    vertex -1.457556524210492 -0.5338920283198766 -0.7302732544581788
    vertex -1.486139 -0.5783545 -0.7094987
  endloop
endfacet
facet normal -0.435012 -0.123969 -0.89185
  outer loop
    vertex -1.436772 -0.5870486 -0.7330223
    vertex -1.457556524210492 -0.5338920283198766 -0.7302732544581788
    vertex -1.42608 -0.4901487 -0.7517068
  endloop
endfacet
facet normal -0.460565 -0.118796 -0.879641
  outer loop
    vertex -1.4355 -0.5658136 -0.6241849
    vertex -1.393899 -0.4756581 -0.658142
    vertex -1.404591 -0.572558 -0.6394575
  endloop
endfacet
facet normal -0.433116 -0.135761 -0.891055
  outer loop
    vertex -1.4355 -0.5658136 -0.6241849
    vertex -1.430596 -0.4674746 -0.6415515000000001
    vertex -1.393899 -0.4756581 -0.658142
  endloop
endfacet
facet normal -0.0836393 -0.978931 0.186277
  outer loop
    vertex -1.486139 -0.5783545 -0.7094987
    vertex -1.436772 -0.5870486 -0.7330223
    vertex -1.440656429824564 -0.5766017577477695 -0.6798656670011978
  endloop
endfacet
facet normal -0.113984 -0.97332 0.199137
  outer loop
    vertex -1.404591 -0.572558 -0.6394575
    vertex -1.4355 -0.5658136 -0.6241849
    vertex -1.440656429824564 -0.5766017577477695 -0.6798656670011978
  endloop
endfacet
facet normal -0.0910925 -0.976052 0.197546
  outer loop
    vertex -1.4355 -0.5658136 -0.6241849
    vertex -1.486139 -0.5783545 -0.7094987
    vertex -1.440656429824564 -0.5766017577477695 -0.6798656670011978
  endloop
endfacet
facet normal -0.0976814 -0.977864 0.185041
  outer loop
    vertex -1.436772 -0.5870486 -0.7330223
    vertex -1.404591 -0.572558 -0.6394575
    vertex -1.440656429824564 -0.5766017577477695 -0.6798656670011978
  endloop
endfacet
facet normal -0.588671 -0.74337 0.317597
  outer loop
    vertex -1.393899 -0.4756581 -0.658142
    vertex -1.42608 -0.4901487 -0.7517068
    vertex -1.423243 -0.4926305 -0.7522573
  endloop
endfacet
facet normal -0.819521 -0.462128 0.338855
  outer loop
    vertex -1.423243 -0.4926305 -0.7522573
    vertex -1.392663 -0.4778895 -0.6581958999999999
    vertex -1.393899 -0.4756581 -0.658142
  endloop
endfacet
facet normal -0.310654 -0.146805 -0.939118
  outer loop
    vertex -1.436772 -0.5870486 -0.7330223
    vertex -1.42608 -0.4901487 -0.7517068
    vertex -1.423243 -0.4926305 -0.7522573
  endloop
endfacet
facet normal -0.317435 -0.145415 -0.937064
  outer loop
    vertex -1.436772 -0.5870486 -0.7330223
    vertex -1.423243 -0.4926305 -0.7522573
    vertex -1.433725 -0.5858873 -0.7342347
  endloop
endfacet
facet normal -0.321732 -0.144675 -0.935713
  outer loop
    vertex -1.404591 -0.572558 -0.6394575
    vertex -1.392663 -0.4778895 -0.6581958999999999
    vertex -1.403144 -0.5711463 -0.6401732999999999
  endloop
endfacet
facet normal -0.307112 -0.147403 -0.940189
  outer loop
    vertex -1.404591 -0.572558 -0.6394575
    vertex -1.393899 -0.4756581 -0.658142
    vertex -1.392663 -0.4778895 -0.6581958999999999
  endloop
endfacet
facet normal 0.365382 -0.930465 0.0270276
  outer loop
    vertex -1.433725 -0.5858873 -0.7342347
    vertex -1.403144 -0.5711463 -0.6401732999999999
    vertex -1.436772 -0.5870486 -0.7330223
  endloop
endfacet
facet normal 0.664281 -0.738729 -0.114066
  outer loop
    vertex -1.403144 -0.5711463 -0.6401732999999999
    vertex -1.404591 -0.572558 -0.6394575
    vertex -1.436772 -0.5870486 -0.7330223
  endloop
endfacet
facet normal -0.0880177 -0.97863 0.18584
  outer loop
    vertex -1.423243 -0.4926305 -0.7522573
    vertex -1.319735 -0.5016976 -0.7509809
    vertex -1.371275238222244 -0.4882928652262176 -0.7048022636723626
  endloop
endfacet
facet normal -0.0713239 -0.979955 0.186013
  outer loop
    vertex -1.34946 -0.4809552 -0.6577811
    vertex -1.392663 -0.4778895 -0.6581958999999999
    vertex -1.371275238222244 -0.4882928652262176 -0.7048022636723626
  endloop
endfacet
facet normal -0.0831282 -0.980035 0.180613
  outer loop
    vertex -1.392663 -0.4778895 -0.6581958999999999
    vertex -1.423243 -0.4926305 -0.7522573
    vertex -1.371275238222244 -0.4882928652262176 -0.7048022636723626
  endloop
endfacet
facet normal -0.0830867 -0.978034 0.19117
  outer loop
    vertex -1.319735 -0.5016976 -0.7509809
    vertex -1.34946 -0.4809552 -0.6577811
    vertex -1.371275238222244 -0.4882928652262176 -0.7048022636723626
  endloop
endfacet
facet normal -0.00437511 -0.189326 -0.981905
  outer loop
    vertex -1.328639 -0.598678 -0.7322367
    vertex -1.433725 -0.5858873 -0.7342347
    vertex -1.375794449805502 -0.5450126592585616 -0.7423740565499257
  endloop
endfacet
facet normal -0.0044754 -0.189316 -0.981906
  outer loop
    vertex -1.423243 -0.4926305 -0.7522573
    vertex -1.319735 -0.5016976 -0.7509809
    vertex -1.375794449805502 -0.5450126592585616 -0.7423740565499257
  endloop
endfacet
facet normal -0.0044301 -0.189372 -0.981895
  outer loop
    vertex -1.319735 -0.5016976 -0.7509809
    vertex -1.328639 -0.598678 -0.7322367
    vertex -1.375794449805502 -0.5450126592585616 -0.7423740565499257
  endloop
endfacet
facet normal -0.00441866 -0.189266 -0.981916
  outer loop
    vertex -1.433725 -0.5858873 -0.7342347
    vertex -1.423243 -0.4926305 -0.7522573
    vertex -1.375794449805502 -0.5450126592585616 -0.7423740565499257
  endloop
endfacet
facet normal -0.00379758 -0.189382 -0.981896
  outer loop
    vertex -1.403144 -0.5711463 -0.6401732999999999
    vertex -1.375907499876638 -0.5269816748615869 -0.6487968243931515
    vertex -1.358363 -0.5779357000000001 -0.639037
  endloop
endfacet
facet normal -0.00400971 -0.189361 -0.981899
  outer loop
    vertex -1.34946 -0.4809552 -0.6577811
    vertex -1.375907499876638 -0.5269816748615869 -0.6487968243931515
    vertex -1.392663 -0.4778895 -0.6581958999999999
  endloop
endfacet
facet normal -0.00389573 -0.189323 -0.981907
  outer loop
    vertex -1.392663 -0.4778895 -0.6581958999999999
    vertex -1.375907499876638 -0.5269816748615869 -0.6487968243931515
    vertex -1.403144 -0.5711463 -0.6401732999999999
  endloop
endfacet
facet normal -0.0039067 -0.189418 -0.981889
  outer loop
    vertex -1.358363 -0.5779357000000001 -0.639037
    vertex -1.375907499876638 -0.5269816748615869 -0.6487968243931515
    vertex -1.34946 -0.4809552 -0.6577811
  endloop
endfacet
facet normal -0.122172 -0.973699 0.192315
  outer loop
    vertex -1.328639 -0.598678 -0.7322367
    vertex -1.403144 -0.5711463 -0.6401732999999999
    vertex -1.433725 -0.5858873 -0.7342347
  endloop
endfacet
facet normal -0.151935 -0.973955 0.168305
  outer loop
    vertex -1.328639 -0.598678 -0.7322367
    vertex -1.358363 -0.5779357000000001 -0.639037
    vertex -1.403144 -0.5711463 -0.6401732999999999
  endloop
endfacet
facet normal -0.0672897 -0.977141 0.201661
  outer loop
    vertex -1.319735 -0.5016976 -0.7509809
    vertex -1.263813 -0.4995611 -0.7219686
    vertex -1.312432199037898 -0.4911332512042488 -0.6973548115076995
  endloop
endfacet
facet normal -0.0350248 -0.975305 0.218069
  outer loop
    vertex -1.323574 -0.478914 -0.6444943
    vertex -1.34946 -0.4809552 -0.6577811
    vertex -1.312432199037898 -0.4911332512042488 -0.6973548115076995
  endloop
endfacet
facet normal -0.054934 -0.978216 0.20019
  outer loop
    vertex -1.34946 -0.4809552 -0.6577811
    vertex -1.319735 -0.5016976 -0.7509809
    vertex -1.312432199037898 -0.4911332512042488 -0.6973548115076995
  endloop
endfacet
facet normal -0.0614834 -0.97523 0.212475
  outer loop
    vertex -1.263813 -0.4995611 -0.7219686
    vertex -1.323574 -0.478914 -0.6444943
    vertex -1.312432199037898 -0.4911332512042488 -0.6973548115076995
  endloop
endfacet
facet normal 0.456692 -0.207983 -0.864971
  outer loop
    vertex -1.263813 -0.4995611 -0.7219686
    vertex -1.297337973723505 -0.5496293679453387 -0.7276303378024134
    vertex -1.319735 -0.5016976 -0.7509809
  endloop
endfacet
facet normal 0.453435 -0.207971 -0.866686
  outer loop
    vertex -1.328639 -0.598678 -0.7322367
    vertex -1.297337973723505 -0.5496293679453387 -0.7276303378024134
    vertex -1.274825 -0.5973781 -0.7043941
  endloop
endfacet
facet normal 0.455006 -0.209076 -0.865596
  outer loop
    vertex -1.319735 -0.5016976 -0.7509809
    vertex -1.297337973723505 -0.5496293679453387 -0.7276303378024134
    vertex -1.328639 -0.598678 -0.7322367
  endloop
endfacet
facet normal 0.45517 -0.206842 -0.866047
  outer loop
    vertex -1.274825 -0.5973781 -0.7043941
    vertex -1.297337973723505 -0.5496293679453387 -0.7276303378024134
    vertex -1.263813 -0.4995611 -0.7219686
  endloop
endfacet
facet normal 0.452406 -0.209094 -0.866954
  outer loop
    vertex -1.358363 -0.5779357000000001 -0.639037
    vertex -1.34946 -0.4809552 -0.6577811
    vertex -1.334586 -0.576731 -0.6269199
  endloop
endfacet
facet normal 0.459624 -0.206916 -0.863674
  outer loop
    vertex -1.334586 -0.576731 -0.6269199
    vertex -1.34946 -0.4809552 -0.6577811
    vertex -1.323574 -0.478914 -0.6444943
  endloop
endfacet
facet normal -0.0793991 -0.976765 0.199065
  outer loop
    vertex -1.274825 -0.5973781 -0.7043941
    vertex -1.334586 -0.576731 -0.6269199
    vertex -1.328639 -0.598678 -0.7322367
  endloop
endfacet
facet normal -0.0528017 -0.978195 0.200865
  outer loop
    vertex -1.334586 -0.576731 -0.6269199
    vertex -1.358363 -0.5779357000000001 -0.639037
    vertex -1.328639 -0.598678 -0.7322367
  endloop
endfacet
facet normal -0.139875 -0.978304 0.152825
  outer loop
    vertex -1.323574 -0.478914 -0.6444943
    vertex -1.263813 -0.4995611 -0.7219686
    vertex -1.224112 -0.4985763 -0.6793276
  endloop
endfacet
facet normal -0.16534 -0.982769 0.0826337
  outer loop
    vertex -1.224112 -0.4985763 -0.6793276
    vertex -1.305312 -0.4802558 -0.6239123
    vertex -1.323574 -0.478914 -0.6444943
  endloop
endfacet
facet normal 0.720068 -0.195089 -0.665915
  outer loop
    vertex -1.224112 -0.4985763 -0.6793276
    vertex -1.249463684215421 -0.5483673412999965 -0.6921539212829053
    vertex -1.263813 -0.4995611 -0.7219686
  endloop
endfacet
facet normal 0.706664 -0.195873 -0.679897
  outer loop
    vertex -1.274825 -0.5973781 -0.7043941
    vertex -1.249463684215421 -0.5483673412999965 -0.6921539212829053
    vertex -1.23581 -0.5964711 -0.6641044
  endloop
endfacet
facet normal 0.712733 -0.200979 -0.672026
  outer loop
    vertex -1.263813 -0.4995611 -0.7219686
    vertex -1.249463684215421 -0.5483673412999965 -0.6921539212829053
    vertex -1.274825 -0.5973781 -0.7043941
  endloop
endfacet
facet normal 0.714181 -0.190098 -0.673653
  outer loop
    vertex -1.23581 -0.5964711 -0.6641044
    vertex -1.249463684215421 -0.5483673412999965 -0.6921539212829053
    vertex -1.224112 -0.4985763 -0.6793276
  endloop
endfacet
facet normal 0.699245 -0.190697 -0.688979
  outer loop
    vertex -1.334586 -0.576731 -0.6269199
    vertex -1.305312 -0.4802558 -0.6239123
    vertex -1.31701 -0.5781506 -0.6086891
  endloop
endfacet
facet normal 0.7264 -0.199916 -0.657553
  outer loop
    vertex -1.334586 -0.576731 -0.6269199
    vertex -1.323574 -0.478914 -0.6444943
    vertex -1.305312 -0.4802558 -0.6239123
  endloop
endfacet
facet normal -0.124312 -0.98196 0.142485
  outer loop
    vertex -1.31701 -0.5781506 -0.6086891
    vertex -1.274825 -0.5973781 -0.7043941
    vertex -1.23581 -0.5964711 -0.6641044
  endloop
endfacet
facet normal -0.193445 -0.974859 0.110586
  outer loop
    vertex -1.334586 -0.576731 -0.6269199
    vertex -1.274825 -0.5973781 -0.7043941
    vertex -1.31701 -0.5781506 -0.6086891
  endloop
endfacet
facet normal -0.105533 -0.984426 0.140596
  outer loop
    vertex -1.305312 -0.4802558 -0.6239123
    vertex -1.248880399638923 -0.4866450744992867 -0.6262904848083368
    vertex -1.292641 -0.476961 -0.5913317
  endloop
endfacet
facet normal -0.0897614 -0.979836 0.178505
  outer loop
    vertex -1.194839 -0.488402 -0.6087597
    vertex -1.248880399638923 -0.4866450744992867 -0.6262904848083368
    vertex -1.224112 -0.4985763 -0.6793276
  endloop
endfacet
facet normal -0.103669 -0.979633 0.171965
  outer loop
    vertex -1.224112 -0.4985763 -0.6793276
    vertex -1.248880399638923 -0.4866450744992867 -0.6262904848083368
    vertex -1.305312 -0.4802558 -0.6239123
  endloop
endfacet
facet normal -0.0855136 -0.982556 0.165138
  outer loop
    vertex -1.292641 -0.476961 -0.5913317
    vertex -1.248880399638923 -0.4866450744992867 -0.6262904848083368
    vertex -1.194839 -0.488402 -0.6087597
  endloop
endfacet
facet normal 0.916914 -0.166003 -0.36292
  outer loop
    vertex -1.224112 -0.4985763 -0.6793276
    vertex -1.21459748752165 -0.5436024145666223 -0.6346938350008444
    vertex -1.23581 -0.5964711 -0.6641044
  endloop
endfacet
facet normal 0.917803 -0.157236 -0.364573
  outer loop
    vertex -1.201859 -0.5848851 -0.5848203
    vertex -1.21459748752165 -0.5436024145666223 -0.6346938350008444
    vertex -1.194839 -0.488402 -0.6087597
  endloop
endfacet
facet normal 0.915422 -0.162431 -0.368265
  outer loop
    vertex -1.23581 -0.5964711 -0.6641044
    vertex -1.21459748752165 -0.5436024145666223 -0.6346938350008444
    vertex -1.201859 -0.5848851 -0.5848203
  endloop
endfacet
facet normal 0.919647 -0.160845 -0.358298
  outer loop
    vertex -1.194839 -0.488402 -0.6087597
    vertex -1.21459748752165 -0.5436024145666223 -0.6346938350008444
    vertex -1.224112 -0.4985763 -0.6793276
  endloop
endfacet
facet normal 0.916698 -0.157793 -0.367104
  outer loop
    vertex -1.31701 -0.5781506 -0.6086891
    vertex -1.292641 -0.476961 -0.5913317
    vertex -1.299662 -0.5734441 -0.5673923
  endloop
endfacet
facet normal 0.924883 -0.163878 -0.343126
  outer loop
    vertex -1.31701 -0.5781506 -0.6086891
    vertex -1.305312 -0.4802558 -0.6239123
    vertex -1.292641 -0.476961 -0.5913317
  endloop
endfacet
facet normal -0.0890519 -0.979396 0.181256
  outer loop
    vertex -1.201859 -0.5848851 -0.5848203
    vertex -1.26358846169383 -0.5832383102244312 -0.6062500840481491
    vertex -1.23581 -0.5964711 -0.6641044
  endloop
endfacet
facet normal -0.100652 -0.982884 0.154299
  outer loop
    vertex -1.31701 -0.5781506 -0.6086891
    vertex -1.26358846169383 -0.5832383102244312 -0.6062500840481491
    vertex -1.299662 -0.5734441 -0.5673923
  endloop
endfacet
facet normal -0.10127 -0.979281 0.175363
  outer loop
    vertex -1.23581 -0.5964711 -0.6641044
    vertex -1.26358846169383 -0.5832383102244312 -0.6062500840481491
    vertex -1.31701 -0.5781506 -0.6086891
  endloop
endfacet
facet normal -0.0847956 -0.981997 0.168795
  outer loop
    vertex -1.299662 -0.5734441 -0.5673923
    vertex -1.26358846169383 -0.5832383102244312 -0.6062500840481491
    vertex -1.201859 -0.5848851 -0.5848203
  endloop
endfacet
facet normal -0.0451482 -0.932358 0.358706
  outer loop
    vertex -1.292641 -0.476961 -0.5913317
    vertex -1.194839 -0.488402 -0.6087597
    vertex -1.190045 -0.4723632 -0.5664678
  endloop
endfacet
facet normal -0.0366215 -0.944726 0.325809
  outer loop
    vertex -1.190045 -0.4723632 -0.5664678
    vertex -1.289635 -0.4662136 -0.5598303
    vertex -1.292641 -0.476961 -0.5913317
  endloop
endfacet
facet normal 0.988186 -0.0918962 -0.122652
  outer loop
    vertex -1.201859 -0.5848851 -0.5848203
    vertex -1.194942879843988 -0.5275759183294451 -0.5720368306842948
    vertex -1.193509 -0.565982 -0.5317087
  endloop
endfacet
facet normal 0.993403 -0.0798192 -0.0823366
  outer loop
    vertex -1.190045 -0.4723632 -0.5664678
    vertex -1.194942879843988 -0.5275759183294451 -0.5720368306842948
    vertex -1.194839 -0.488402 -0.6087597
  endloop
endfacet
facet normal 0.990173 -0.0970312 -0.100707
  outer loop
    vertex -1.194839 -0.488402 -0.6087597
    vertex -1.194942879843988 -0.5275759183294451 -0.5720368306842948
    vertex -1.201859 -0.5848851 -0.5848203
  endloop
endfacet
facet normal 0.991107 -0.0769722 -0.108543
  outer loop
    vertex -1.193509 -0.565982 -0.5317087
    vertex -1.194942879843988 -0.5275759183294451 -0.5720368306842948
    vertex -1.190045 -0.4723632 -0.5664678
  endloop
endfacet
facet normal 0.987497 -0.101737 -0.120416
  outer loop
    vertex -1.299662 -0.5734441 -0.5673923
    vertex -1.292641 -0.476961 -0.5913317
    vertex -1.293099 -0.5598324 -0.5250713
  endloop
endfacet
facet normal 0.995267 -0.0639829 -0.0731435
  outer loop
    vertex -1.293099 -0.5598324 -0.5250713
    vertex -1.292641 -0.476961 -0.5913317
    vertex -1.289635 -0.4662136 -0.5598303
  endloop
endfacet
facet normal -0.0465425 -0.948815 0.312385
  outer loop
    vertex -1.299662 -0.5734441 -0.5673923
    vertex -1.245647749072474 -0.5712309546365407 -0.5526226218750534
    vertex -1.293099 -0.5598324 -0.5250713
  endloop
endfacet
facet normal -0.0421908 -0.939156 0.340891
  outer loop
    vertex -1.193509 -0.565982 -0.5317087
    vertex -1.245647749072474 -0.5712309546365407 -0.5526226218750534
    vertex -1.201859 -0.5848851 -0.5848203
  endloop
endfacet
facet normal -0.0515258 -0.942682 0.32969
  outer loop
    vertex -1.201859 -0.5848851 -0.5848203
    vertex -1.245647749072474 -0.5712309546365407 -0.5526226218750534
    vertex -1.299662 -0.5734441 -0.5673923
  endloop
endfacet
facet normal -0.0364471 -0.944044 0.327798
  outer loop
    vertex -1.293099 -0.5598324 -0.5250713
    vertex -1.245647749072474 -0.5712309546365407 -0.5526226218750534
    vertex -1.193509 -0.565982 -0.5317087
  endloop
endfacet
endsolid Created by Gmsh
