SetFactory("OpenCASCADE");
//+
//+
Point( 1 ) = { -1.824623 , -0.4648746 , -0.2284702 , 1.0};
//+
Point( 2 ) = { -1.806183 , -0.4686829 , -0.297968 , 1.0};
//+
Line( 1 ) = { 1 , 2 };
//+
Point( 3 ) = { -1.783835 , -0.4707768 , -0.3614523 , 1.0};
//+
Line( 2 ) = { 2 , 3 };
//+
Point( 4 ) = { -1.757064 , -0.4704446 , -0.4218551 , 1.0};
//+
Line( 3 ) = { 3 , 4 };
//+
Point( 5 ) = { -1.72636 , -0.468863 , -0.4772274 , 1.0};
//+
Line( 4 ) = { 4 , 5 };
//+
Point( 6 ) = { -1.724401 , -0.4688813 , -0.4804787 , 1.0};
//+
Line( 5 ) = { 5 , 6 };
//+
Point( 7 ) = { -1.691075 , -0.4684526 , -0.5306844 , 1.0};
//+
Line( 6 ) = { 6 , 7 };
//+
Point( 8 ) = { -1.653877 , -0.4688283 , -0.5771273 , 1.0};
//+
Line( 7 ) = { 7 , 8 };
//+
Point( 9 ) = { -1.618993 , -0.4689555 , -0.6153722 , 1.0};
//+
Line( 8 ) = { 8 , 9 };
//+
Point( 10 ) = { -1.583225 , -0.4706255 , -0.6503004 , 1.0};
//+
Line( 9 ) = { 9 , 10 };
//+
Point( 11 ) = { -1.555057 , -0.4735315 , -0.6737783 , 1.0};
//+
Line( 10 ) = { 10 , 11 };
//+
Point( 12 ) = { -1.5522 , -0.4738017 , -0.6760847 , 1.0};
//+
Line( 11 ) = { 11 , 12 };
//+
Point( 13 ) = { -1.521355 , -0.4767698 , -0.7009585 , 1.0};
//+
Line( 12 ) = { 12 , 13 };
//+
Point( 14 ) = { -1.481235 , -0.4800154 , -0.7268653 , 1.0};
//+
Line( 13 ) = { 13 , 14 };
//+
Point( 15 ) = { -1.42608 , -0.4901487 , -0.7517068 , 1.0};
//+
Line( 14 ) = { 14 , 15 };
//+
Point( 16 ) = { -1.423243 , -0.4926305 , -0.7522573 , 1.0};
//+
Line( 15 ) = { 15 , 16 };
//+
Point( 17 ) = { -1.319735 , -0.5016976 , -0.7509809 , 1.0};
//+
Line( 16 ) = { 16 , 17 };
//+
Point( 18 ) = { -1.263813 , -0.4995611 , -0.7219686 , 1.0};
//+
Line( 17 ) = { 17 , 18 };
//+
Point( 19 ) = { -1.224112 , -0.4985763 , -0.6793276 , 1.0};
//+
Line( 18 ) = { 18 , 19 };
//+
Point( 20 ) = { -1.194839 , -0.488402 , -0.6087597 , 1.0};
//+
Line( 19 ) = { 19 , 20 };
//+
Point( 21 ) = { -1.190045 , -0.4723632 , -0.5664678 , 1.0};
//+
Line( 20 ) = { 20 , 21 };
//+
Point( 22 ) = { -1.190284 , -0.4726286 , -0.568337 , 1.0};
//+
Line( 21 ) = { 21 , 22 };
//+
Point( 23 ) = { -1.188464 , -0.4522516 , -0.5295012 , 1.0};
//+
Line( 22 ) = { 22 , 23 };
//+
Point( 24 ) = { -1.190697 , -0.4279701 , -0.4847327 , 1.0};
//+
Line( 23 ) = { 23 , 24 };
//+
Point( 25 ) = { -1.19192 , -0.4221623 , -0.4755967 , 1.0};
//+
Line( 24 ) = { 24 , 25 };
//+
Point( 26 ) = { -1.198035 , -0.4019321 , -0.4428443 , 1.0};
//+
Line( 25 ) = { 25 , 26 };
//+
Point( 27 ) = { -1.207501 , -0.376237 , -0.4014584 , 1.0};
//+
Line( 26 ) = { 26 , 27 };
//+
Point( 28 ) = { -1.208609 , -0.3736615 , -0.3967528 , 1.0};
//+
Line( 27 ) = { 27 , 28 };
//+
Point( 29 ) = { -1.222468 , -0.3470373 , -0.3479524 , 1.0};
//+
Line( 28 ) = { 28 , 29 };
//+
Point( 30 ) = { -1.232807 , -0.3322035 , -0.3193076 , 1.0};
//+
Line( 29 ) = { 29 , 30 };
//+
Point( 31 ) = { -1.240721 , -0.322064 , -0.2993502 , 1.0};
//+
Line( 30 ) = { 30 , 31 };
//+
Point( 32 ) = { -1.258938 , -0.2998952 , -0.2544995 , 1.0};
//+
Line( 31 ) = { 31 , 32 };
//+
Point( 33 ) = { -1.26627 , -0.2909908 , -0.2355818 , 1.0};
//+
Line( 32 ) = { 32 , 33 };
//+
Point( 34 ) = { -1.276275 , -0.2786956 , -0.2088947 , 1.0};
//+
Line( 33 ) = { 33 , 34 };
//+
Point( 35 ) = { -1.291676 , -0.2589184 , -0.1663505 , 1.0};
//+
Line( 34 ) = { 34 , 35 };
//+
Point( 36 ) = { -1.298215 , -0.2497522 , -0.1459614 , 1.0};
//+
Line( 35 ) = { 35 , 36 };
//+
Point( 37 ) = { -1.304011 , -0.2394687 , -0.1235585 , 1.0};
//+
Line( 36 ) = { 36 , 37 };
//+
Point( 38 ) = { -1.310553 , -0.22231 , -0.07821673 , 1.0};
//+
Line( 37 ) = { 37 , 38 };
//+
Point( 39 ) = { -1.311559 , -0.2077782 , -0.03143507 , 1.0};
//+
Line( 38 ) = { 38 , 39 };
//+
Point( 40 ) = { -1.309237 , -0.2004632 , -0.00497678 , 1.0};
//+
Line( 39 ) = { 39 , 40 };
//+
Point( 41 ) = { -1.305973 , -0.1943853 , 0.01633293 , 1.0};
//+
Line( 40 ) = { 40 , 41 };
//+
Point( 42 ) = { -1.295332 , -0.1811951 , 0.06209281 , 1.0};
//+
Line( 41 ) = { 41 , 42 };
//+
Point( 43 ) = { -1.281126 , -0.1676587 , 0.1046561 , 1.0};
//+
Line( 42 ) = { 42 , 43 };
//+
Point( 44 ) = { -1.26255 , -0.1537959 , 0.1441255 , 1.0};
//+
Line( 43 ) = { 43 , 44 };
//+
Point( 45 ) = { -1.243914 , -0.1422901 , 0.17527 , 1.0};
//+
Line( 44 ) = { 44 , 45 };
//+
Point( 46 ) = { -1.238679 , -0.1393096 , 0.1830656 , 1.0};
//+
Line( 45 ) = { 45 , 46 };
//+
Point( 47 ) = { -1.212367 , -0.1252441 , 0.218671 , 1.0};
//+
Line( 46 ) = { 46 , 47 };
//+
Point( 48 ) = { -1.181951 , -0.1099215 , 0.2552559 , 1.0};
//+
Line( 47 ) = { 47 , 48 };
//+
Point( 49 ) = { -1.149566 , -0.09371779 , 0.2943612 , 1.0};
//+
Line( 48 ) = { 48 , 49 };
//+
Point( 50 ) = { -1.127032 , -0.08254753 , 0.3232233 , 1.0};
//+
Line( 49 ) = { 49 , 50 };
//+
Point( 51 ) = { -1.117642 , -0.0779605 , 0.3357674 , 1.0};
//+
Line( 50 ) = { 50 , 51 };
//+
Point( 52 ) = { -1.086233 , -0.0638935 , 0.3804759 , 1.0};
//+
Line( 51 ) = { 51 , 52 };
//+
Point( 53 ) = { -1.056892 , -0.05249774 , 0.4299904 , 1.0};
//+
Line( 52 ) = { 52 , 53 };
//+
Point( 54 ) = { -1.028868 , -0.04743941 , 0.4870337 , 1.0};
//+
Line( 53 ) = { 53 , 54 };
//+
Point( 55 ) = { -1.004089 , -0.05806127 , 0.5662882 , 1.0};
//+
Line( 54 ) = { 54 , 55 };
//+
Point( 56 ) = { -1.00176 , -0.06979597 , 0.6035947 , 1.0};
//+
Line( 55 ) = { 55 , 56 };
//+
Point( 57 ) = { -1.021185 , -0.1008611 , 0.6732274 , 1.0};
//+
Line( 56 ) = { 56 , 57 };
//+
Point( 58 ) = { -1.049172 , -0.1252913 , 0.70838 , 1.0};
//+
Line( 57 ) = { 57 , 58 };
//+
Point( 59 ) = { -1.095157 , -0.1579774 , 0.735536 , 1.0};
//+
Line( 58 ) = { 58 , 59 };
//+
Point( 60 ) = { -1.159866 , -0.1928754 , 0.7439646 , 1.0};
//+
Line( 59 ) = { 59 , 60 };
//+
Point( 61 ) = { -1.17458 , -0.1983929 , 0.7431565 , 1.0};
//+
Line( 60 ) = { 60 , 61 };
//+
Point( 62 ) = { -1.209786 , -0.21228 , 0.7378399 , 1.0};
//+
Line( 61 ) = { 61 , 62 };
//+
Point( 63 ) = { -1.255692 , -0.2299522 , 0.7255605 , 1.0};
//+
Line( 62 ) = { 62 , 63 };
//+
Point( 64 ) = { -1.297142 , -0.2467999 , 0.7098263 , 1.0};
//+
Line( 63 ) = { 63 , 64 };
//+
Point( 65 ) = { -1.338265 , -0.2622113 , 0.6919969 , 1.0};
//+
Line( 64 ) = { 64 , 65 };
//+
Point( 66 ) = { -1.383983 , -0.2772612 , 0.6697811 , 1.0};
//+
Line( 65 ) = { 65 , 66 };
//+
Point( 67 ) = { -1.433731 , -0.2930651 , 0.6419535 , 1.0};
//+
Line( 66 ) = { 66 , 67 };
//+
Point( 68 ) = { -1.470702 , -0.3052871 , 0.6182764 , 1.0};
//+
Line( 67 ) = { 67 , 68 };
//+
Point( 69 ) = { -1.48642 , -0.310521 , 0.6073019 , 1.0};
//+
Line( 68 ) = { 68 , 69 };
//+
Point( 70 ) = { -1.53725 , -0.3273533 , 0.5676342 , 1.0};
//+
Line( 69 ) = { 69 , 70 };
//+
Point( 71 ) = { -1.585871 , -0.3428112 , 0.5237912 , 1.0};
//+
Line( 70 ) = { 70 , 71 };
//+
Point( 72 ) = { -1.632696 , -0.3572674 , 0.4749651 , 1.0};
//+
Line( 71 ) = { 71 , 72 };
//+
Point( 73 ) = { -1.677113 , -0.3709755 , 0.4211059 , 1.0};
//+
Line( 72 ) = { 72 , 73 };
//+
Point( 74 ) = { -1.719494 , -0.3850148 , 0.3605722 , 1.0};
//+
Line( 73 ) = { 73 , 74 };
//+
Point( 75 ) = { -1.757321 , -0.4000202 , 0.2931168 , 1.0};
//+
Line( 74 ) = { 74 , 75 };
//+
Point( 76 ) = { -1.788122 , -0.4151886 , 0.2220828 , 1.0};
//+
Line( 75 ) = { 75 , 76 };
//+
Point( 77 ) = { -1.811832 , -0.4285783 , 0.1490477 , 1.0};
//+
Line( 76 ) = { 76 , 77 };
//+
Point( 78 ) = { -1.828481 , -0.4385957 , 0.07575333 , 1.0};
//+
Line( 77 ) = { 77 , 78 };
//+
Point( 79 ) = { -1.836312 , -0.4440798 , 0.02489146 , 1.0};
//+
Line( 78 ) = { 78 , 79 };
//+
Point( 80 ) = { -1.838948 , -0.4464508 , 0.0004894009 , 1.0};
//+
Line( 79 ) = { 79 , 80 };
//+
Point( 81 ) = { -1.841834 , -0.4534155 , -0.07689568 , 1.0};
//+
Line( 80 ) = { 80 , 81 };
//+
Point( 82 ) = { -1.836803 , -0.4596085 , -0.1534516 , 1.0};
//+
Line( 81 ) = { 81 , 82 };
//+
Line( 82 ) = { 82 , 1 };
//+
Point( 83 ) = { -1.798591 , -0.5603059 , -0.2145863 , 1.0};
//+
Point( 84 ) = { -1.782338 , -0.5648628 , -0.284528 , 1.0};
//+
Line( 83 ) = { 83 , 84 };
//+
Point( 85 ) = { -1.761997 , -0.5676259 , -0.3494836 , 1.0};
//+
Line( 84 ) = { 84 , 85 };
//+
Point( 86 ) = { -1.737019 , -0.5678596 , -0.4114518 , 1.0};
//+
Line( 85 ) = { 85 , 86 };
//+
Point( 87 ) = { -1.708651 , -0.5667667 , -0.4677745 , 1.0};
//+
Line( 86 ) = { 86 , 87 };
//+
Point( 88 ) = { -1.708367 , -0.5667773 , -0.4683496 , 1.0};
//+
Line( 87 ) = { 87 , 88 };
//+
Point( 89 ) = { -1.677697 , -0.5668221 , -0.5186655 , 1.0};
//+
Line( 88 ) = { 88 , 89 };
//+
Point( 90 ) = { -1.643207 , -0.567507 , -0.5649778 , 1.0};
//+
Line( 89 ) = { 89 , 90 };
//+
Point( 91 ) = { -1.611004 , -0.5678994 , -0.6032935 , 1.0};
//+
Line( 90 ) = { 90 , 91 };
//+
Point( 92 ) = { -1.579049 , -0.5694683 , -0.6358199 , 1.0};
//+
Line( 91 ) = { 91 , 92 };
//+
Point( 93 ) = { -1.55469 , -0.5722451 , -0.657799 , 1.0};
//+
Line( 92 ) = { 92 , 93 };
//+
Point( 94 ) = { -1.551089 , -0.5726401 , -0.6610372 , 1.0};
//+
Line( 93 ) = { 93 , 94 };
//+
Point( 95 ) = { -1.520388 , -0.5757516 , -0.6868002 , 1.0};
//+
Line( 94 ) = { 94 , 95 };
//+
Point( 96 ) = { -1.486139 , -0.5783545 , -0.7094987 , 1.0};
//+
Line( 95 ) = { 95 , 96 };
//+
Point( 97 ) = { -1.436772 , -0.5870486 , -0.7330223 , 1.0};
//+
Line( 96 ) = { 96 , 97 };
//+
Point( 98 ) = { -1.433725 , -0.5858873 , -0.7342347 , 1.0};
//+
Line( 97 ) = { 97 , 98 };
//+
Point( 99 ) = { -1.328639 , -0.598678 , -0.7322367 , 1.0};
//+
Line( 98 ) = { 98 , 99 };
//+
Point( 100 ) = { -1.274825 , -0.5973781 , -0.7043941 , 1.0};
//+
Line( 99 ) = { 99 , 100 };
//+
Point( 101 ) = { -1.23581 , -0.5964711 , -0.6641044 , 1.0};
//+
Line( 100 ) = { 100 , 101 };
//+
Point( 102 ) = { -1.201859 , -0.5848851 , -0.5848203 , 1.0};
//+
Line( 101 ) = { 101 , 102 };
//+
Point( 103 ) = { -1.193509 , -0.565982 , -0.5317087 , 1.0};
//+
Line( 102 ) = { 102 , 103 };
//+
Point( 104 ) = { -1.192535 , -0.5614227 , -0.5224821 , 1.0};
//+
Line( 103 ) = { 103 , 104 };
//+
Point( 105 ) = { -1.189798 , -0.5406747 , -0.4828268 , 1.0};
//+
Line( 104 ) = { 104 , 105 };
//+
Point( 106 ) = { -1.192095 , -0.5153574 , -0.4362762 , 1.0};
//+
Line( 105 ) = { 105 , 106 };
//+
Point( 107 ) = { -1.193167 , -0.5087497 , -0.4256003 , 1.0};
//+
Line( 106 ) = { 106 , 107 };
//+
Point( 108 ) = { -1.196617 , -0.4884102 , -0.3926536 , 1.0};
//+
Line( 107 ) = { 107 , 108 };
//+
Point( 109 ) = { -1.203344 , -0.4623147 , -0.3507943 , 1.0};
//+
Line( 108 ) = { 108 , 109 };
//+
Point( 110 ) = { -1.203659 , -0.4613546 , -0.349073 , 1.0};
//+
Line( 109 ) = { 109 , 110 };
//+
Point( 111 ) = { -1.215805 , -0.4350118 , -0.3009087 , 1.0};
//+
Line( 110 ) = { 110 , 111 };
//+
Point( 112 ) = { -1.223754 , -0.4209145 , -0.274052 , 1.0};
//+
Line( 111 ) = { 111 , 112 };
//+
Point( 113 ) = { -1.229329 , -0.4112354 , -0.2555486 , 1.0};
//+
Line( 112 ) = { 112 , 113 };
//+
Point( 114 ) = { -1.242469 , -0.3881579 , -0.2104725 , 1.0};
//+
Line( 113 ) = { 113 , 114 };
//+
Point( 115 ) = { -1.247609 , -0.379208 , -0.1923444 , 1.0};
//+
Line( 114 ) = { 114 , 115 };
//+
Point( 116 ) = { -1.255046 , -0.3664421 , -0.1658966 , 1.0};
//+
Line( 115 ) = { 115 , 116 };
//+
Point( 117 ) = { -1.265291 , -0.3455742 , -0.1240063 , 1.0};
//+
Line( 116 ) = { 116 , 117 };
//+
Point( 118 ) = { -1.26834 , -0.336109 , -0.1053416 , 1.0};
//+
Line( 117 ) = { 117 , 118 };
//+
Point( 119 ) = { -1.270506 , -0.3267502 , -0.08813374 , 1.0};
//+
Line( 118 ) = { 118 , 119 };
//+
Point( 120 ) = { -1.271679 , -0.3101788 , -0.05050849 , 1.0};
//+
Line( 119 ) = { 119 , 120 };
//+
Point( 121 ) = { -1.268276 , -0.2956696 , -0.01149371 , 1.0};
//+
Line( 120 ) = { 120 , 121 };
//+
Point( 122 ) = { -1.264201 , -0.2885743 , 0.009440734 , 1.0};
//+
Line( 121 ) = { 121 , 122 };
//+
Point( 123 ) = { -1.259794 , -0.2823438 , 0.02754613 , 1.0};
//+
Line( 122 ) = { 122 , 123 };
//+
Point( 124 ) = { -1.246264 , -0.267957 , 0.07013235 , 1.0};
//+
Line( 123 ) = { 123 , 124 };
//+
Point( 125 ) = { -1.230142 , -0.2535934 , 0.1086257 , 1.0};
//+
Line( 124 ) = { 124 , 125 };
//+
Point( 126 ) = { -1.210643 , -0.2392563 , 0.1432382 , 1.0};
//+
Line( 125 ) = { 125 , 126 };
//+
Point( 127 ) = { -1.191536 , -0.2273302 , 0.1709045 , 1.0};
//+
Line( 126 ) = { 126 , 127 };
//+
Point( 128 ) = { -1.187819 , -0.2250556 , 0.1758377 , 1.0};
//+
Line( 127 ) = { 127 , 128 };
//+
Point( 129 ) = { -1.16049 , -0.2101409 , 0.2086413 , 1.0};
//+
Line( 128 ) = { 128 , 129 };
//+
Point( 130 ) = { -1.128884 , -0.1937864 , 0.2430112 , 1.0};
//+
Line( 129 ) = { 129 , 130 };
//+
Point( 131 ) = { -1.094945 , -0.1764323 , 0.2811419 , 1.0};
//+
Line( 130 ) = { 130 , 131 };
//+
Point( 132 ) = { -1.071383 , -0.1645152 , 0.309677 , 1.0};
//+
Line( 131 ) = { 131 , 132 };
//+
Point( 133 ) = { -1.061996 , -0.1598041 , 0.3217019 , 1.0};
//+
Line( 132 ) = { 132 , 133 };
//+
Point( 134 ) = { -1.030093 , -0.1453427 , 0.3658481 , 1.0};
//+
Line( 133 ) = { 133 , 134 };
//+
Point( 135 ) = { -1.001861 , -0.1343143 , 0.4133376 , 1.0};
//+
Line( 134 ) = { 134 , 135 };
//+
Point( 136 ) = { -0.9772021 , -0.1296902 , 0.4637789 , 1.0};
//+
Line( 135 ) = { 135 , 136 };
//+
Point( 137 ) = { -0.9537059 , -0.1392866 , 0.5385001 , 1.0};
//+
Line( 136 ) = { 136 , 137 };
//+
Point( 138 ) = { -0.9512175 , -0.1518371 , 0.5792957 , 1.0};
//+
Line( 137 ) = { 137 , 138 };
//+
Point( 139 ) = { -0.9730767 , -0.1854912 , 0.6518968 , 1.0};
//+
Line( 138 ) = { 138 , 139 };
//+
Point( 140 ) = { -1.003281 , -0.2114657 , 0.6869696 , 1.0};
//+
Line( 139 ) = { 139 , 140 };
//+
Point( 141 ) = { -1.051407 , -0.2449069 , 0.7126897 , 1.0};
//+
Line( 140 ) = { 140 , 141 };
//+
Point( 142 ) = { -1.119048 , -0.2801702 , 0.7199542 , 1.0};
//+
Line( 141 ) = { 141 , 142 };
//+
Point( 143 ) = { -1.136314 , -0.2874537 , 0.7187278 , 1.0};
//+
Line( 142 ) = { 142 , 143 };
//+
Point( 144 ) = { -1.169688 , -0.3006858 , 0.7138536 , 1.0};
//+
Line( 143 ) = { 143 , 144 };
//+
Point( 145 ) = { -1.212728 , -0.3173858 , 0.7030037 , 1.0};
//+
Line( 144 ) = { 144 , 145 };
//+
Point( 146 ) = { -1.252909 , -0.3340175 , 0.6889332 , 1.0};
//+
Line( 145 ) = { 145 , 146 };
//+
Point( 147 ) = { -1.296163 , -0.3506092 , 0.6716733 , 1.0};
//+
Line( 146 ) = { 146 , 147 };
//+
Point( 148 ) = { -1.343194 , -0.3664916 , 0.6504359 , 1.0};
//+
Line( 147 ) = { 147 , 148 };
//+
Point( 149 ) = { -1.392663 , -0.3826259 , 0.6248669 , 1.0};
//+
Line( 148 ) = { 148 , 149 };
//+
Point( 150 ) = { -1.429089 , -0.3949373 , 0.6031465 , 1.0};
//+
Line( 149 ) = { 149 , 150 };
//+
Point( 151 ) = { -1.444086 , -0.3999969 , 0.5933694 , 1.0};
//+
Line( 150 ) = { 150 , 151 };
//+
Point( 152 ) = { -1.495674 , -0.4175034 , 0.555617 , 1.0};
//+
Line( 151 ) = { 151 , 152 };
//+
Point( 153 ) = { -1.545297 , -0.433648 , 0.5136709 , 1.0};
//+
Line( 152 ) = { 152 , 153 };
//+
Point( 154 ) = { -1.592977 , -0.4486802 , 0.4668321 , 1.0};
//+
Line( 153 ) = { 153 , 154 };
//+
Point( 155 ) = { -1.637937 , -0.4628118 , 0.4155217 , 1.0};
//+
Line( 154 ) = { 154 , 155 };
//+
Point( 156 ) = { -1.68032 , -0.4769987 , 0.358522 , 1.0};
//+
Line( 155 ) = { 155 , 156 };
//+
Point( 157 ) = { -1.718017 , -0.4919485 , 0.2952103 , 1.0};
//+
Line( 156 ) = { 156 , 157 };
//+
Point( 158 ) = { -1.749609 , -0.5073285 , 0.2272732 , 1.0};
//+
Line( 157 ) = { 157 , 158 };
//+
Point( 159 ) = { -1.775072 , -0.5213745 , 0.155177 , 1.0};
//+
Line( 158 ) = { 158 , 159 };
//+
Point( 160 ) = { -1.793702 , -0.5321344 , 0.08198896 , 1.0};
//+
Line( 159 ) = { 159 , 160 };
//+
Point( 161 ) = { -1.802893 , -0.5380891 , 0.03143303 , 1.0};
//+
Line( 160 ) = { 160 , 161 };
//+
Point( 162 ) = { -1.806007 , -0.5404411 , 0.008708793 , 1.0};
//+
Line( 161 ) = { 161 , 162 };
//+
Point( 163 ) = { -1.81089 , -0.5479807 , -0.06690526 , 1.0};
//+
Line( 162 ) = { 162 , 163 };
//+
Point( 164 ) = { -1.808155 , -0.5546718 , -0.1415246 , 1.0};
//+
Line( 163 ) = { 163 , 164 };
//+
Line( 164 ) = { 164 , 83 };
//+
Point( 165 ) = { -1.704157 , -0.5320858 , -0.1976775 , 1.0};
//+
Point( 166 ) = { -1.689524 , -0.5382197 , -0.2585308 , 1.0};
//+
Line( 165 ) = { 165 , 166 };
//+
Point( 167 ) = { -1.671015 , -0.5429842 , -0.3160916 , 1.0};
//+
Line( 166 ) = { 166 , 167 };
//+
Point( 168 ) = { -1.649306 , -0.5452838 , -0.3690631 , 1.0};
//+
Line( 167 ) = { 167 , 168 };
//+
Point( 169 ) = { -1.624012 , -0.546694 , -0.4184456 , 1.0};
//+
Line( 168 ) = { 168 , 169 };
//+
Point( 170 ) = { -1.623832 , -0.5467941 , -0.418807 , 1.0};
//+
Line( 169 ) = { 169 , 170 };
//+
Point( 171 ) = { -1.597088 , -0.5489655 , -0.4622446 , 1.0};
//+
Line( 170 ) = { 170 , 171 };
//+
Point( 172 ) = { -1.56748 , -0.5515226 , -0.5016545 , 1.0};
//+
Line( 171 ) = { 171 , 172 };
//+
Point( 173 ) = { -1.538072 , -0.5538373 , -0.5363377 , 1.0};
//+
Line( 172 ) = { 172 , 173 };
//+
Point( 174 ) = { -1.512017 , -0.555947 , -0.5628548 , 1.0};
//+
Line( 173 ) = { 173 , 174 };
//+
Point( 175 ) = { -1.489362 , -0.5599095 , -0.5830989 , 1.0};
//+
Line( 174 ) = { 174 , 175 };
//+
Point( 176 ) = { -1.485683 , -0.560537 , -0.5863673 , 1.0};
//+
Line( 175 ) = { 175 , 176 };
//+
Point( 177 ) = { -1.460158 , -0.5638723 , -0.6078625 , 1.0};
//+
Line( 176 ) = { 176 , 177 };
//+
Point( 178 ) = { -1.4355 , -0.5658136 , -0.6241849 , 1.0};
//+
Line( 177 ) = { 177 , 178 };
//+
Point( 179 ) = { -1.404591 , -0.572558 , -0.6394575 , 1.0};
//+
Line( 178 ) = { 178 , 179 };
//+
Point( 180 ) = { -1.403144 , -0.5711463 , -0.6401733 , 1.0};
//+
Line( 179 ) = { 179 , 180 };
//+
Point( 181 ) = { -1.358363 , -0.5779357 , -0.639037 , 1.0};
//+
Line( 180 ) = { 180 , 181 };
//+
Point( 182 ) = { -1.334586 , -0.576731 , -0.6269199 , 1.0};
//+
Line( 181 ) = { 181 , 182 };
//+
Point( 183 ) = { -1.31701 , -0.5781506 , -0.6086891 , 1.0};
//+
Line( 182 ) = { 182 , 183 };
//+
Point( 184 ) = { -1.299662 , -0.5734441 , -0.5673923 , 1.0};
//+
Line( 183 ) = { 183 , 184 };
//+
Point( 185 ) = { -1.293099 , -0.5598324 , -0.5250713 , 1.0};
//+
Line( 184 ) = { 184 , 185 };
//+
Point( 186 ) = { -1.292168 , -0.5556367 , -0.5161688 , 1.0};
//+
Line( 185 ) = { 185 , 186 };
//+
Point( 187 ) = { -1.289783 , -0.5389895 , -0.4824925 , 1.0};
//+
Line( 186 ) = { 186 , 187 };
//+
Point( 188 ) = { -1.291672 , -0.5185437 , -0.4448951 , 1.0};
//+
Line( 187 ) = { 187 , 188 };
//+
Point( 189 ) = { -1.292602 , -0.5129458 , -0.4353469 , 1.0};
//+
Line( 188 ) = { 188 , 189 };
//+
Point( 190 ) = { -1.295642 , -0.4965797 , -0.4039322 , 1.0};
//+
Line( 189 ) = { 189 , 190 };
//+
Point( 191 ) = { -1.30145 , -0.4754371 , -0.3650394 , 1.0};
//+
Line( 190 ) = { 190 , 191 };
//+
Point( 192 ) = { -1.301672 , -0.4748113 , -0.3636458 , 1.0};
//+
Line( 191 ) = { 191 , 192 };
//+
Point( 193 ) = { -1.312036 , -0.453141 , -0.3211807 , 1.0};
//+
Line( 192 ) = { 192 , 193 };
//+
Point( 194 ) = { -1.319013 , -0.4418826 , -0.2960992 , 1.0};
//+
Line( 193 ) = { 193 , 194 };
//+
Point( 195 ) = { -1.324202 , -0.4340842 , -0.277389 , 1.0};
//+
Line( 194 ) = { 194 , 195 };
//+
Point( 196 ) = { -1.33687 , -0.4151997 , -0.2293721 , 1.0};
//+
Line( 195 ) = { 195 , 196 };
//+
Point( 197 ) = { -1.341765 , -0.4078301 , -0.2101046 , 1.0};
//+
Line( 196 ) = { 196 , 197 };
//+
Point( 198 ) = { -1.348939 , -0.3969532 , -0.1818038 , 1.0};
//+
Line( 197 ) = { 197 , 198 };
//+
Point( 199 ) = { -1.359158 , -0.3787493 , -0.1334098 , 1.0};
//+
Line( 198 ) = { 198 , 199 };
//+
Point( 200 ) = { -1.362125 , -0.370552 , -0.1095898 , 1.0};
//+
Line( 199 ) = { 199 , 200 };
//+
Point( 201 ) = { -1.364018 , -0.3621639 , -0.08694538 , 1.0};
//+
Line( 200 ) = { 200 , 201 };
//+
Point( 202 ) = { -1.363808 , -0.3475799 , -0.03985989 , 1.0};
//+
Line( 201 ) = { 201 , 202 };
//+
Point( 203 ) = { -1.357809 , -0.3350299 , 0.009355298 , 1.0};
//+
Line( 202 ) = { 202 , 203 };
//+
Point( 204 ) = { -1.351626 , -0.3288154 , 0.0365979 , 1.0};
//+
Line( 203 ) = { 203 , 204 };
//+
Point( 205 ) = { -1.345374 , -0.3232349 , 0.05923122 , 1.0};
//+
Line( 204 ) = { 204 , 205 };
//+
Point( 206 ) = { -1.32765 , -0.3102969 , 0.1099282 , 1.0};
//+
Line( 205 ) = { 205 , 206 };
//+
Point( 207 ) = { -1.306076 , -0.2963803 , 0.1576494 , 1.0};
//+
Line( 206 ) = { 206 , 207 };
//+
Point( 208 ) = { -1.280195 , -0.2820992 , 0.2009187 , 1.0};
//+
Line( 207 ) = { 207 , 208 };
//+
Point( 209 ) = { -1.256438 , -0.2705197 , 0.2335334 , 1.0};
//+
Line( 208 ) = { 208 , 209 };
//+
Point( 210 ) = { -1.251696 , -0.2683073 , 0.23947 , 1.0};
//+
Line( 209 ) = { 209 , 210 };
//+
Point( 211 ) = { -1.21882 , -0.2538709 , 0.2770904 , 1.0};
//+
Line( 210 ) = { 210 , 211 };
//+
Point( 212 ) = { -1.184638 , -0.2392101 , 0.3124966 , 1.0};
//+
Line( 211 ) = { 211 , 212 };
//+
Point( 213 ) = { -1.151537 , -0.2245075 , 0.3481201 , 1.0};
//+
Line( 212 ) = { 212 , 213 };
//+
Point( 214 ) = { -1.129368 , -0.2145131 , 0.3740035 , 1.0};
//+
Line( 213 ) = { 213 , 214 };
//+
Point( 215 ) = { -1.120765 , -0.2105857 , 0.3846902 , 1.0};
//+
Line( 214 ) = { 214 , 215 };
//+
Point( 216 ) = { -1.093019 , -0.1988408 , 0.4222238 , 1.0};
//+
Line( 215 ) = { 215 , 216 };
//+
Point( 217 ) = { -1.070588 , -0.1900282 , 0.4599482 , 1.0};
//+
Line( 216 ) = { 216 , 217 };
//+
Point( 218 ) = { -1.052619 , -0.1864163 , 0.4968619 , 1.0};
//+
Line( 217 ) = { 217 , 218 };
//+
Point( 219 ) = { -1.038677 , -0.1920116 , 0.5385537 , 1.0};
//+
Line( 218 ) = { 218 , 219 };
//+
Point( 220 ) = { -1.037132 , -0.1986292 , 0.5585772 , 1.0};
//+
Line( 219 ) = { 219 , 220 };
//+
Point( 221 ) = { -1.0481 , -0.2129829 , 0.5917655 , 1.0};
//+
Line( 220 ) = { 220 , 221 };
//+
Point( 222 ) = { -1.062763 , -0.2233906 , 0.607473 , 1.0};
//+
Line( 221 ) = { 221 , 222 };
//+
Point( 223 ) = { -1.086266 , -0.237887 , 0.6192255 , 1.0};
//+
Line( 222 ) = { 222 , 223 };
//+
Point( 224 ) = { -1.125405 , -0.2564784 , 0.6230095 , 1.0};
//+
Line( 223 ) = { 223 , 224 };
//+
Point( 225 ) = { -1.13765 , -0.2615384 , 0.6221534 , 1.0};
//+
Line( 224 ) = { 224 , 225 };
//+
Point( 226 ) = { -1.162091 , -0.2713813 , 0.618546 , 1.0};
//+
Line( 225 ) = { 225 , 226 };
//+
Point( 227 ) = { -1.195708 , -0.2850114 , 0.6099325 , 1.0};
//+
Line( 226 ) = { 226 , 227 };
//+
Point( 228 ) = { -1.230238 , -0.3006043 , 0.5974478 , 1.0};
//+
Line( 227 ) = { 227 , 228 };
//+
Point( 229 ) = { -1.268661 , -0.3168164 , 0.581664 , 1.0};
//+
Line( 228 ) = { 228 , 229 };
//+
Point( 230 ) = { -1.310148 , -0.3323125 , 0.5624602 , 1.0};
//+
Line( 229 ) = { 229 , 230 };
//+
Point( 231 ) = { -1.354078 , -0.3485745 , 0.539125 , 1.0};
//+
Line( 230 ) = { 230 , 231 };
//+
Point( 232 ) = { -1.385716 , -0.3607363 , 0.5197849 , 1.0};
//+
Line( 231 ) = { 231 , 232 };
//+
Point( 233 ) = { -1.398583 , -0.3656736 , 0.5112021 , 1.0};
//+
Line( 232 ) = { 232 , 233 };
//+
Point( 234 ) = { -1.443452 , -0.3830221 , 0.4776175 , 1.0};
//+
Line( 233 ) = { 233 , 234 };
//+
Point( 235 ) = { -1.487035 , -0.399412 , 0.4399594 , 1.0};
//+
Line( 234 ) = { 234 , 235 };
//+
Point( 236 ) = { -1.528615 , -0.4146174 , 0.398296 , 1.0};
//+
Line( 235 ) = { 235 , 236 };
//+
Point( 237 ) = { -1.568258 , -0.4292336 , 0.3521385 , 1.0};
//+
Line( 236 ) = { 236 , 237 };
//+
Point( 238 ) = { -1.605058 , -0.4436799 , 0.3017281 , 1.0};
//+
Line( 237 ) = { 237 , 238 };
//+
Point( 239 ) = { -1.63729 , -0.4585419 , 0.2465559 , 1.0};
//+
Line( 238 ) = { 238 , 239 };
//+
Point( 240 ) = { -1.66444 , -0.4740071 , 0.1868269 , 1.0};
//+
Line( 239 ) = { 239 , 240 };
//+
Point( 241 ) = { -1.686009 , -0.4881444 , 0.1241364 , 1.0};
//+
Line( 240 ) = { 240 , 241 };
//+
Point( 242 ) = { -1.701825 , -0.4994488 , 0.05985072 , 1.0};
//+
Line( 241 ) = { 241 , 242 };
//+
Point( 243 ) = { -1.709556 , -0.5060326 , 0.01529187 , 1.0};
//+
Line( 242 ) = { 242 , 243 };
//+
Point( 244 ) = { -1.712093 , -0.5086698 , -0.004358216 , 1.0};
//+
Line( 243 ) = { 243 , 244 };
//+
Point( 245 ) = { -1.715801 , -0.5171268 , -0.06938302 , 1.0};
//+
Line( 244 ) = { 244 , 245 };
//+
Point( 246 ) = { -1.712885 , -0.5250882 , -0.1345613 , 1.0};
//+
Line( 245 ) = { 245 , 246 };
//+
Line( 246 ) = { 246 , 165 };
//+
Point( 247 ) = { -1.73019 , -0.4366545 , -0.2115613 , 1.0};
//+
Line( 247 ) = { 1 , 83 };
//+
Line( 248 ) = { 83 , 165 };
//+
Line( 249 ) = { 165 , 247 };
//+
Line( 250 ) = { 247 , 1 };
//+
Point( 248 ) = { -1.713369 , -0.4420398 , -0.2719707 , 1.0};
//+
Line( 251 ) = { 247 , 248 };
//+
Line( 252 ) = { 2 , 84 };
//+
Line( 253 ) = { 84 , 166 };
//+
Line( 254 ) = { 166 , 248 };
//+
Line( 255 ) = { 248 , 2 };
//+
Point( 249 ) = { -1.692853 , -0.4461352 , -0.3280603 , 1.0};
//+
Line( 256 ) = { 248 , 249 };
//+
Line( 257 ) = { 3 , 85 };
//+
Line( 258 ) = { 85 , 167 };
//+
Line( 259 ) = { 167 , 249 };
//+
Line( 260 ) = { 249 , 3 };
//+
Point( 250 ) = { -1.669351 , -0.4478687 , -0.3794664 , 1.0};
//+
Line( 261 ) = { 249 , 250 };
//+
Line( 262 ) = { 4 , 86 };
//+
Line( 263 ) = { 86 , 168 };
//+
Line( 264 ) = { 168 , 250 };
//+
Line( 265 ) = { 250 , 4 };
//+
Point( 251 ) = { -1.641721 , -0.4487902 , -0.4278984 , 1.0};
//+
Line( 266 ) = { 250 , 251 };
//+
Line( 267 ) = { 5 , 87 };
//+
Line( 268 ) = { 87 , 169 };
//+
Line( 269 ) = { 169 , 251 };
//+
Line( 270 ) = { 251 , 5 };
//+
Point( 252 ) = { -1.639866 , -0.4488981 , -0.4309361 , 1.0};
//+
Line( 271 ) = { 251 , 252 };
//+
Line( 272 ) = { 6 , 88 };
//+
Line( 273 ) = { 88 , 170 };
//+
Line( 274 ) = { 170 , 252 };
//+
Line( 275 ) = { 252 , 6 };
//+
Point( 253 ) = { -1.610466 , -0.450596 , -0.4742635 , 1.0};
//+
Line( 276 ) = { 252 , 253 };
//+
Line( 277 ) = { 7 , 89 };
//+
Line( 278 ) = { 89 , 171 };
//+
Line( 279 ) = { 171 , 253 };
//+
Line( 280 ) = { 253 , 7 };
//+
Point( 254 ) = { -1.578149 , -0.4528439 , -0.513804 , 1.0};
//+
Line( 281 ) = { 253 , 254 };
//+
Line( 282 ) = { 8 , 90 };
//+
Line( 283 ) = { 90 , 172 };
//+
Line( 284 ) = { 172 , 254 };
//+
Line( 285 ) = { 254 , 8 };
//+
Point( 255 ) = { -1.54606 , -0.4548933 , -0.5484164 , 1.0};
//+
Line( 286 ) = { 254 , 255 };
//+
Line( 287 ) = { 9 , 91 };
//+
Line( 288 ) = { 91 , 173 };
//+
Line( 289 ) = { 173 , 255 };
//+
Line( 290 ) = { 255 , 9 };
//+
Point( 256 ) = { -1.516193 , -0.4571042 , -0.5773354 , 1.0};
//+
Line( 291 ) = { 255 , 256 };
//+
Line( 292 ) = { 10 , 92 };
//+
Line( 293 ) = { 92 , 174 };
//+
Line( 294 ) = { 174 , 256 };
//+
Line( 295 ) = { 256 , 10 };
//+
Point( 257 ) = { -1.48973 , -0.461196 , -0.5990782 , 1.0};
//+
Line( 296 ) = { 256 , 257 };
//+
Line( 297 ) = { 11 , 93 };
//+
Line( 298 ) = { 93 , 175 };
//+
Line( 299 ) = { 175 , 257 };
//+
Line( 300 ) = { 257 , 11 };
//+
Point( 258 ) = { -1.486794 , -0.4616986 , -0.6014148 , 1.0};
//+
Line( 301 ) = { 257 , 258 };
//+
Line( 302 ) = { 12 , 94 };
//+
Line( 303 ) = { 94 , 176 };
//+
Line( 304 ) = { 176 , 258 };
//+
Line( 305 ) = { 258 , 12 };
//+
Point( 259 ) = { -1.461124 , -0.4648906 , -0.6220208 , 1.0};
//+
Line( 306 ) = { 258 , 259 };
//+
Line( 307 ) = { 13 , 95 };
//+
Line( 308 ) = { 95 , 177 };
//+
Line( 309 ) = { 177 , 259 };
//+
Line( 310 ) = { 259 , 13 };
//+
Point( 260 ) = { -1.430596 , -0.4674746 , -0.6415515 , 1.0};
//+
Line( 311 ) = { 259 , 260 };
//+
Line( 312 ) = { 14 , 96 };
//+
Line( 313 ) = { 96 , 178 };
//+
Line( 314 ) = { 178 , 260 };
//+
Line( 315 ) = { 260 , 14 };
//+
Point( 261 ) = { -1.393899 , -0.4756581 , -0.658142 , 1.0};
//+
Line( 316 ) = { 260 , 261 };
//+
Line( 317 ) = { 15 , 97 };
//+
Line( 318 ) = { 97 , 179 };
//+
Line( 319 ) = { 179 , 261 };
//+
Line( 320 ) = { 261 , 15 };
//+
Point( 262 ) = { -1.392663 , -0.4778895 , -0.6581959 , 1.0};
//+
Line( 321 ) = { 261 , 262 };
//+
Line( 322 ) = { 16 , 98 };
//+
Line( 323 ) = { 98 , 180 };
//+
Line( 324 ) = { 180 , 262 };
//+
Line( 325 ) = { 262 , 16 };
//+
Point( 263 ) = { -1.34946 , -0.4809552 , -0.6577811 , 1.0};
//+
Line( 326 ) = { 262 , 263 };
//+
Line( 327 ) = { 17 , 99 };
//+
Line( 328 ) = { 99 , 181 };
//+
Line( 329 ) = { 181 , 263 };
//+
Line( 330 ) = { 263 , 17 };
//+
Point( 264 ) = { -1.323574 , -0.478914 , -0.6444943 , 1.0};
//+
Line( 331 ) = { 263 , 264 };
//+
Line( 332 ) = { 18 , 100 };
//+
Line( 333 ) = { 100 , 182 };
//+
Line( 334 ) = { 182 , 264 };
//+
Line( 335 ) = { 264 , 18 };
//+
Point( 265 ) = { -1.305312 , -0.4802558 , -0.6239123 , 1.0};
//+
Line( 336 ) = { 264 , 265 };
//+
Line( 337 ) = { 19 , 101 };
//+
Line( 338 ) = { 101 , 183 };
//+
Line( 339 ) = { 183 , 265 };
//+
Line( 340 ) = { 265 , 19 };
//+
Point( 266 ) = { -1.292641 , -0.476961 , -0.5913317 , 1.0};
//+
Line( 341 ) = { 265 , 266 };
//+
Line( 342 ) = { 20 , 102 };
//+
Line( 343 ) = { 102 , 184 };
//+
Line( 344 ) = { 184 , 266 };
//+
Line( 345 ) = { 266 , 20 };
//+
Point( 267 ) = { -1.289635 , -0.4662136 , -0.5598303 , 1.0};
//+
Line( 346 ) = { 266 , 267 };
//+
Line( 347 ) = { 21 , 103 };
//+
Line( 348 ) = { 103 , 185 };
//+
Line( 349 ) = { 185 , 267 };
//+
Line( 350 ) = { 267 , 21 };
//+
Point( 268 ) = { -1.289917 , -0.4668425 , -0.5620237 , 1.0};
//+
Line( 351 ) = { 267 , 268 };
//+
Line( 352 ) = { 22 , 104 };
//+
Line( 353 ) = { 104 , 186 };
//+
Line( 354 ) = { 186 , 268 };
//+
Line( 355 ) = { 268 , 22 };
//+
Point( 269 ) = { -1.288449 , -0.4505664 , -0.5291669 , 1.0};
//+
Line( 356 ) = { 268 , 269 };
//+
Line( 357 ) = { 23 , 105 };
//+
Line( 358 ) = { 105 , 187 };
//+
Line( 359 ) = { 187 , 269 };
//+
Line( 360 ) = { 269 , 23 };
//+
Point( 270 ) = { -1.290274 , -0.4311564 , -0.4933517 , 1.0};
//+
Line( 361 ) = { 269 , 270 };
//+
Line( 362 ) = { 24 , 106 };
//+
Line( 363 ) = { 106 , 188 };
//+
Line( 364 ) = { 188 , 270 };
//+
Line( 365 ) = { 270 , 24 };
//+
Point( 271 ) = { -1.291356 , -0.4263584 , -0.4853433 , 1.0};
//+
Line( 366 ) = { 270 , 271 };
//+
Line( 367 ) = { 25 , 107 };
//+
Line( 368 ) = { 107 , 189 };
//+
Line( 369 ) = { 189 , 271 };
//+
Line( 370 ) = { 271 , 25 };
//+
Point( 272 ) = { -1.29706 , -0.4101015 , -0.454123 , 1.0};
//+
Line( 371 ) = { 271 , 272 };
//+
Line( 372 ) = { 26 , 108 };
//+
Line( 373 ) = { 108 , 190 };
//+
Line( 374 ) = { 190 , 272 };
//+
Line( 375 ) = { 272 , 26 };
//+
Point( 273 ) = { -1.305607 , -0.3893594 , -0.4157034 , 1.0};
//+
Line( 376 ) = { 272 , 273 };
//+
Line( 377 ) = { 27 , 109 };
//+
Line( 378 ) = { 109 , 191 };
//+
Line( 379 ) = { 191 , 273 };
//+
Line( 380 ) = { 273 , 27 };
//+
Point( 274 ) = { -1.306622 , -0.3871183 , -0.4113256 , 1.0};
//+
Line( 381 ) = { 273 , 274 };
//+
Line( 382 ) = { 28 , 110 };
//+
Line( 383 ) = { 110 , 192 };
//+
Line( 384 ) = { 192 , 274 };
//+
Line( 385 ) = { 274 , 28 };
//+
Point( 275 ) = { -1.318699 , -0.3651666 , -0.3682244 , 1.0};
//+
Line( 386 ) = { 274 , 275 };
//+
Line( 387 ) = { 29 , 111 };
//+
Line( 388 ) = { 111 , 193 };
//+
Line( 389 ) = { 193 , 275 };
//+
Line( 390 ) = { 275 , 29 };
//+
Point( 276 ) = { -1.328066 , -0.3531716 , -0.3413548 , 1.0};
//+
Line( 391 ) = { 275 , 276 };
//+
Line( 392 ) = { 30 , 112 };
//+
Line( 393 ) = { 112 , 194 };
//+
Line( 394 ) = { 194 , 276 };
//+
Line( 395 ) = { 276 , 30 };
//+
Point( 277 ) = { -1.335594 , -0.3449128 , -0.3211906 , 1.0};
//+
Line( 396 ) = { 276 , 277 };
//+
Line( 397 ) = { 31 , 113 };
//+
Line( 398 ) = { 113 , 195 };
//+
Line( 399 ) = { 195 , 277 };
//+
Line( 400 ) = { 277 , 31 };
//+
Point( 278 ) = { -1.353339 , -0.326937 , -0.2733991 , 1.0};
//+
Line( 401 ) = { 277 , 278 };
//+
Line( 402 ) = { 32 , 114 };
//+
Line( 403 ) = { 114 , 196 };
//+
Line( 404 ) = { 196 , 278 };
//+
Line( 405 ) = { 278 , 32 };
//+
Point( 279 ) = { -1.360426 , -0.319613 , -0.253342 , 1.0};
//+
Line( 406 ) = { 278 , 279 };
//+
Line( 407 ) = { 33 , 115 };
//+
Line( 408 ) = { 115 , 197 };
//+
Line( 409 ) = { 197 , 279 };
//+
Line( 410 ) = { 279 , 33 };
//+
Point( 280 ) = { -1.370168 , -0.3092068 , -0.2248019 , 1.0};
//+
Line( 411 ) = { 279 , 280 };
//+
Line( 412 ) = { 34 , 116 };
//+
Line( 413 ) = { 116 , 198 };
//+
Line( 414 ) = { 198 , 280 };
//+
Line( 415 ) = { 280 , 34 };
//+
Point( 281 ) = { -1.385542 , -0.2920935 , -0.175754 , 1.0};
//+
Line( 416 ) = { 280 , 281 };
//+
Line( 417 ) = { 35 , 117 };
//+
Line( 418 ) = { 117 , 199 };
//+
Line( 419 ) = { 199 , 281 };
//+
Line( 420 ) = { 281 , 35 };
//+
Point( 282 ) = { -1.392 , -0.2841951 , -0.1502096 , 1.0};
//+
Line( 421 ) = { 281 , 282 };
//+
Line( 422 ) = { 36 , 118 };
//+
Line( 423 ) = { 118 , 200 };
//+
Line( 424 ) = { 200 , 282 };
//+
Line( 425 ) = { 282 , 36 };
//+
Point( 283 ) = { -1.397522 , -0.2748824 , -0.1223702 , 1.0};
//+
Line( 426 ) = { 282 , 283 };
//+
Line( 427 ) = { 37 , 119 };
//+
Line( 428 ) = { 119 , 201 };
//+
Line( 429 ) = { 201 , 283 };
//+
Line( 430 ) = { 283 , 37 };
//+
Point( 284 ) = { -1.402682 , -0.2597112 , -0.06756814 , 1.0};
//+
Line( 431 ) = { 283 , 284 };
//+
Line( 432 ) = { 38 , 120 };
//+
Line( 433 ) = { 120 , 202 };
//+
Line( 434 ) = { 202 , 284 };
//+
Line( 435 ) = { 284 , 38 };
//+
Point( 285 ) = { -1.401091 , -0.2471385 , -0.01058606 , 1.0};
//+
Line( 436 ) = { 284 , 285 };
//+
Line( 437 ) = { 39 , 121 };
//+
Line( 438 ) = { 121 , 203 };
//+
Line( 439 ) = { 203 , 285 };
//+
Line( 440 ) = { 285 , 39 };
//+
Point( 286 ) = { -1.396662 , -0.2407043 , 0.02218039 , 1.0};
//+
Line( 441 ) = { 285 , 286 };
//+
Line( 442 ) = { 40 , 122 };
//+
Line( 443 ) = { 122 , 204 };
//+
Line( 444 ) = { 204 , 286 };
//+
Line( 445 ) = { 286 , 40 };
//+
Point( 287 ) = { -1.391553 , -0.2352764 , 0.04801802 , 1.0};
//+
Line( 446 ) = { 286 , 287 };
//+
Line( 447 ) = { 41 , 123 };
//+
Line( 448 ) = { 123 , 205 };
//+
Line( 449 ) = { 205 , 287 };
//+
Line( 450 ) = { 287 , 41 };
//+
Point( 288 ) = { -1.376718 , -0.223535 , 0.1018886 , 1.0};
//+
Line( 451 ) = { 287 , 288 };
//+
Line( 452 ) = { 42 , 124 };
//+
Line( 453 ) = { 124 , 206 };
//+
Line( 454 ) = { 206 , 288 };
//+
Line( 455 ) = { 288 , 42 };
//+
Point( 289 ) = { -1.35706 , -0.2104456 , 0.1536797 , 1.0};
//+
Line( 456 ) = { 288 , 289 };
//+
Line( 457 ) = { 43 , 125 };
//+
Line( 458 ) = { 125 , 207 };
//+
Line( 459 ) = { 207 , 289 };
//+
Line( 460 ) = { 289 , 43 };
//+
Point( 290 ) = { -1.332102 , -0.1966389 , 0.201806 , 1.0};
//+
Line( 461 ) = { 289 , 290 };
//+
Line( 462 ) = { 44 , 126 };
//+
Line( 463 ) = { 126 , 208 };
//+
Line( 464 ) = { 208 , 290 };
//+
Line( 465 ) = { 290 , 44 };
//+
Point( 291 ) = { -1.308816 , -0.1854797 , 0.2378989 , 1.0};
//+
Line( 466 ) = { 290 , 291 };
//+
Line( 467 ) = { 45 , 127 };
//+
Line( 468 ) = { 127 , 209 };
//+
Line( 469 ) = { 209 , 291 };
//+
Line( 470 ) = { 291 , 45 };
//+
Point( 292 ) = { -1.302555 , -0.1825613 , 0.2466979 , 1.0};
//+
Line( 471 ) = { 291 , 292 };
//+
Line( 472 ) = { 46 , 128 };
//+
Line( 473 ) = { 128 , 210 };
//+
Line( 474 ) = { 210 , 292 };
//+
Line( 475 ) = { 292 , 46 };
//+
Point( 293 ) = { -1.270697 , -0.1689741 , 0.2871201 , 1.0};
//+
Line( 476 ) = { 292 , 293 };
//+
Line( 477 ) = { 47 , 129 };
//+
Line( 478 ) = { 129 , 211 };
//+
Line( 479 ) = { 211 , 293 };
//+
Line( 480 ) = { 293 , 47 };
//+
Point( 294 ) = { -1.237704 , -0.1553452 , 0.3247413 , 1.0};
//+
Line( 481 ) = { 293 , 294 };
//+
Line( 482 ) = { 48 , 130 };
//+
Line( 483 ) = { 130 , 212 };
//+
Line( 484 ) = { 212 , 294 };
//+
Line( 485 ) = { 294 , 48 };
//+
Point( 295 ) = { -1.206158 , -0.141793 , 0.3613394 , 1.0};
//+
Line( 486 ) = { 294 , 295 };
//+
Line( 487 ) = { 49 , 131 };
//+
Line( 488 ) = { 131 , 213 };
//+
Line( 489 ) = { 213 , 295 };
//+
Line( 490 ) = { 295 , 49 };
//+
Point( 296 ) = { -1.185017 , -0.1325455 , 0.3875497 , 1.0};
//+
Line( 491 ) = { 295 , 296 };
//+
Line( 492 ) = { 50 , 132 };
//+
Line( 493 ) = { 132 , 214 };
//+
Line( 494 ) = { 214 , 296 };
//+
Line( 495 ) = { 296 , 50 };
//+
Point( 297 ) = { -1.17641 , -0.1287421 , 0.3987557 , 1.0};
//+
Line( 496 ) = { 296 , 297 };
//+
Line( 497 ) = { 51 , 133 };
//+
Line( 498 ) = { 133 , 215 };
//+
Line( 499 ) = { 215 , 297 };
//+
Line( 500 ) = { 297 , 51 };
//+
Point( 298 ) = { -1.14916 , -0.1173916 , 0.4368516 , 1.0};
//+
Line( 501 ) = { 297 , 298 };
//+
Line( 502 ) = { 52 , 134 };
//+
Line( 503 ) = { 134 , 216 };
//+
Line( 504 ) = { 216 , 298 };
//+
Line( 505 ) = { 298 , 52 };
//+
Point( 299 ) = { -1.125619 , -0.1082116 , 0.476601 , 1.0};
//+
Line( 506 ) = { 298 , 299 };
//+
Line( 507 ) = { 53 , 135 };
//+
Line( 508 ) = { 135 , 217 };
//+
Line( 509 ) = { 217 , 299 };
//+
Line( 510 ) = { 299 , 53 };
//+
Point( 300 ) = { -1.104284 , -0.1041656 , 0.5201167 , 1.0};
//+
Line( 511 ) = { 299 , 300 };
//+
Line( 512 ) = { 54 , 136 };
//+
Line( 513 ) = { 136 , 218 };
//+
Line( 514 ) = { 218 , 300 };
//+
Line( 515 ) = { 300 , 54 };
//+
Point( 301 ) = { -1.08906 , -0.1107863 , 0.5663418 , 1.0};
//+
Line( 516 ) = { 300 , 301 };
//+
Line( 517 ) = { 55 , 137 };
//+
Line( 518 ) = { 137 , 219 };
//+
Line( 519 ) = { 219 , 301 };
//+
Line( 520 ) = { 301 , 55 };
//+
Point( 302 ) = { -1.087674 , -0.1165881 , 0.5828762 , 1.0};
//+
Line( 521 ) = { 301 , 302 };
//+
Line( 522 ) = { 56 , 138 };
//+
Line( 523 ) = { 138 , 220 };
//+
Line( 524 ) = { 220 , 302 };
//+
Line( 525 ) = { 302 , 56 };
//+
Point( 303 ) = { -1.096208 , -0.1283527 , 0.6130962 , 1.0};
//+
Line( 526 ) = { 302 , 303 };
//+
Line( 527 ) = { 57 , 139 };
//+
Line( 528 ) = { 139 , 221 };
//+
Line( 529 ) = { 221 , 303 };
//+
Line( 530 ) = { 303 , 57 };
//+
Point( 304 ) = { -1.108654 , -0.1372162 , 0.6288834 , 1.0};
//+
Line( 531 ) = { 303 , 304 };
//+
Line( 532 ) = { 58 , 140 };
//+
Line( 533 ) = { 140 , 222 };
//+
Line( 534 ) = { 222 , 304 };
//+
Line( 535 ) = { 304 , 58 };
//+
Point( 305 ) = { -1.130016 , -0.1509575 , 0.6420717 , 1.0};
//+
Line( 536 ) = { 304 , 305 };
//+
Line( 537 ) = { 59 , 141 };
//+
Line( 538 ) = { 141 , 223 };
//+
Line( 539 ) = { 223 , 305 };
//+
Line( 540 ) = { 305 , 59 };
//+
Point( 306 ) = { -1.166224 , -0.1691835 , 0.6470199 , 1.0};
//+
Line( 541 ) = { 305 , 306 };
//+
Line( 542 ) = { 60 , 142 };
//+
Line( 543 ) = { 142 , 224 };
//+
Line( 544 ) = { 224 , 306 };
//+
Line( 545 ) = { 306 , 60 };
//+
Point( 307 ) = { -1.175917 , -0.1724776 , 0.6465821 , 1.0};
//+
Line( 546 ) = { 306 , 307 };
//+
Line( 547 ) = { 61 , 143 };
//+
Line( 548 ) = { 143 , 225 };
//+
Line( 549 ) = { 225 , 307 };
//+
Line( 550 ) = { 307 , 61 };
//+
Point( 308 ) = { -1.202189 , -0.1829755 , 0.6425323 , 1.0};
//+
Line( 551 ) = { 307 , 308 };
//+
Line( 552 ) = { 62 , 144 };
//+
Line( 553 ) = { 144 , 226 };
//+
Line( 554 ) = { 226 , 308 };
//+
Line( 555 ) = { 308 , 62 };
//+
Point( 309 ) = { -1.238672 , -0.1975777 , 0.6324894 , 1.0};
//+
Line( 556 ) = { 308 , 309 };
//+
Line( 557 ) = { 63 , 145 };
//+
Line( 558 ) = { 145 , 227 };
//+
Line( 559 ) = { 227 , 309 };
//+
Line( 560 ) = { 309 , 63 };
//+
Point( 310 ) = { -1.274471 , -0.2133866 , 0.618341 , 1.0};
//+
Line( 561 ) = { 309 , 310 };
//+
Line( 562 ) = { 64 , 146 };
//+
Line( 563 ) = { 146 , 228 };
//+
Line( 564 ) = { 228 , 310 };
//+
Line( 565 ) = { 310 , 64 };
//+
Point( 311 ) = { -1.310763 , -0.2284184 , 0.6019875 , 1.0};
//+
Line( 566 ) = { 310 , 311 };
//+
Line( 567 ) = { 65 , 147 };
//+
Line( 568 ) = { 147 , 229 };
//+
Line( 569 ) = { 229 , 311 };
//+
Line( 570 ) = { 311 , 65 };
//+
Point( 312 ) = { -1.350936 , -0.2430821 , 0.5818054 , 1.0};
//+
Line( 571 ) = { 311 , 312 };
//+
Line( 572 ) = { 66 , 148 };
//+
Line( 573 ) = { 148 , 230 };
//+
Line( 574 ) = { 230 , 312 };
//+
Line( 575 ) = { 312 , 66 };
//+
Point( 313 ) = { -1.395146 , -0.2590137 , 0.5562116 , 1.0};
//+
Line( 576 ) = { 312 , 313 };
//+
Line( 577 ) = { 67 , 149 };
//+
Line( 578 ) = { 149 , 231 };
//+
Line( 579 ) = { 231 , 313 };
//+
Line( 580 ) = { 313 , 67 };
//+
Point( 314 ) = { -1.42733 , -0.2710862 , 0.5349148 , 1.0};
//+
Line( 581 ) = { 313 , 314 };
//+
Line( 582 ) = { 68 , 150 };
//+
Line( 583 ) = { 150 , 232 };
//+
Line( 584 ) = { 232 , 314 };
//+
Line( 585 ) = { 314 , 68 };
//+
Point( 315 ) = { -1.440918 , -0.2761977 , 0.5251345 , 1.0};
//+
Line( 586 ) = { 314 , 315 };
//+
Line( 587 ) = { 69 , 151 };
//+
Line( 588 ) = { 151 , 233 };
//+
Line( 589 ) = { 233 , 315 };
//+
Line( 590 ) = { 315 , 69 };
//+
Point( 316 ) = { -1.485028 , -0.292872 , 0.4896347 , 1.0};
//+
Line( 591 ) = { 315 , 316 };
//+
Line( 592 ) = { 70 , 152 };
//+
Line( 593 ) = { 152 , 234 };
//+
Line( 594 ) = { 234 , 316 };
//+
Line( 595 ) = { 316 , 70 };
//+
Point( 317 ) = { -1.527609 , -0.3085751 , 0.4500797 , 1.0};
//+
Line( 596 ) = { 316 , 317 };
//+
Line( 597 ) = { 71 , 153 };
//+
Line( 598 ) = { 153 , 235 };
//+
Line( 599 ) = { 235 , 317 };
//+
Line( 600 ) = { 317 , 71 };
//+
Point( 318 ) = { -1.568333 , -0.3232046 , 0.4064289 , 1.0};
//+
Line( 601 ) = { 317 , 318 };
//+
Line( 602 ) = { 72 , 154 };
//+
Line( 603 ) = { 154 , 236 };
//+
Line( 604 ) = { 236 , 318 };
//+
Line( 605 ) = { 318 , 72 };
//+
Point( 319 ) = { -1.607435 , -0.3373973 , 0.3577227 , 1.0};
//+
Line( 606 ) = { 318 , 319 };
//+
Line( 607 ) = { 73 , 155 };
//+
Line( 608 ) = { 155 , 237 };
//+
Line( 609 ) = { 237 , 319 };
//+
Line( 610 ) = { 319 , 73 };
//+
Point( 320 ) = { -1.644233 , -0.3516959 , 0.3037784 , 1.0};
//+
Line( 611 ) = { 319 , 320 };
//+
Line( 612 ) = { 74 , 156 };
//+
Line( 613 ) = { 156 , 238 };
//+
Line( 614 ) = { 238 , 320 };
//+
Line( 615 ) = { 320 , 74 };
//+
Point( 321 ) = { -1.676594 , -0.3666137 , 0.2444624 , 1.0};
//+
Line( 616 ) = { 320 , 321 };
//+
Line( 617 ) = { 75 , 157 };
//+
Line( 618 ) = { 157 , 239 };
//+
Line( 619 ) = { 239 , 321 };
//+
Line( 620 ) = { 321 , 75 };
//+
Point( 322 ) = { -1.702953 , -0.3818673 , 0.1816365 , 1.0};
//+
Line( 621 ) = { 321 , 322 };
//+
Line( 622 ) = { 76 , 158 };
//+
Line( 623 ) = { 158 , 240 };
//+
Line( 624 ) = { 240 , 322 };
//+
Line( 625 ) = { 322 , 76 };
//+
Point( 323 ) = { -1.722768 , -0.3953482 , 0.1180071 , 1.0};
//+
Line( 626 ) = { 322 , 323 };
//+
Line( 627 ) = { 77 , 159 };
//+
Line( 628 ) = { 159 , 241 };
//+
Line( 629 ) = { 241 , 323 };
//+
Line( 630 ) = { 323 , 77 };
//+
Point( 324 ) = { -1.736603 , -0.4059101 , 0.05361508 , 1.0};
//+
Line( 631 ) = { 323 , 324 };
//+
Line( 632 ) = { 78 , 160 };
//+
Line( 633 ) = { 160 , 242 };
//+
Line( 634 ) = { 242 , 324 };
//+
Line( 635 ) = { 324 , 78 };
//+
Point( 325 ) = { -1.742975 , -0.4120233 , 0.008750307 , 1.0};
//+
Line( 636 ) = { 324 , 325 };
//+
Line( 637 ) = { 79 , 161 };
//+
Line( 638 ) = { 161 , 243 };
//+
Line( 639 ) = { 243 , 325 };
//+
Line( 640 ) = { 325 , 79 };
//+
Point( 326 ) = { -1.745034 , -0.4146795 , -0.01257761 , 1.0};
//+
Line( 641 ) = { 325 , 326 };
//+
Line( 642 ) = { 80 , 162 };
//+
Line( 643 ) = { 162 , 244 };
//+
Line( 644 ) = { 244 , 326 };
//+
Line( 645 ) = { 326 , 80 };
//+
Point( 327 ) = { -1.746745 , -0.4225616 , -0.07937344 , 1.0};
//+
Line( 646 ) = { 326 , 327 };
//+
Line( 647 ) = { 81 , 163 };
//+
Line( 648 ) = { 163 , 245 };
//+
Line( 649 ) = { 245 , 327 };
//+
Line( 650 ) = { 327 , 81 };
//+
Point( 328 ) = { -1.741533 , -0.4300248 , -0.1464883 , 1.0};
//+
Line( 651 ) = { 327 , 328 };
//+
Line( 652 ) = { 328 , 247 };
//+
Line( 653 ) = { 82 , 164 };
//+
Line( 654 ) = { 164 , 246 };
//+
Line( 655 ) = { 246 , 328 };
//+
Line( 656 ) = { 328 , 82 };
//+
Curve Loop( 1 ) = { 1 , -255 , -251 , 250 };
//+
Surface( 1 ) = { 1 };
//+
Curve Loop( 3 ) = { 1 , 252 , -83 , -247 };
//+
Surface( 3 ) = { 3 };
//+
Curve Loop( 5 ) = { 251 , -254 , -165 , 249 };
//+
Surface( 5 ) = { 5 };
//+
Curve Loop( 7 ) = { 83 , 253 , -165 , -248 };
//+
Surface( 7 ) = { 7 };
//+
Curve Loop( 9 ) = { 2 , -260 , -256 , 255 };
//+
Surface( 9 ) = { 9 };
//+
Curve Loop( 11 ) = { 2 , 257 , -84 , -252 };
//+
Surface( 11 ) = { 11 };
//+
Curve Loop( 13 ) = { 256 , -259 , -166 , 254 };
//+
Surface( 13 ) = { 13 };
//+
Curve Loop( 15 ) = { 84 , 258 , -166 , -253 };
//+
Surface( 15 ) = { 15 };
//+
Curve Loop( 17 ) = { 3 , -265 , -261 , 260 };
//+
Surface( 17 ) = { 17 };
//+
Curve Loop( 19 ) = { 3 , 262 , -85 , -257 };
//+
Surface( 19 ) = { 19 };
//+
Curve Loop( 21 ) = { 261 , -264 , -167 , 259 };
//+
Surface( 21 ) = { 21 };
//+
Curve Loop( 23 ) = { 85 , 263 , -167 , -258 };
//+
Surface( 23 ) = { 23 };
//+
Curve Loop( 25 ) = { 4 , -270 , -266 , 265 };
//+
Surface( 25 ) = { 25 };
//+
Curve Loop( 27 ) = { 4 , 267 , -86 , -262 };
//+
Surface( 27 ) = { 27 };
//+
Curve Loop( 29 ) = { 266 , -269 , -168 , 264 };
//+
Surface( 29 ) = { 29 };
//+
Curve Loop( 31 ) = { 86 , 268 , -168 , -263 };
//+
Surface( 31 ) = { 31 };
//+
Curve Loop( 33 ) = { 5 , -275 , -271 , 270 };
//+
Surface( 33 ) = { 33 };
//+
Curve Loop( 35 ) = { 5 , 272 , -87 , -267 };
//+
Surface( 35 ) = { 35 };
//+
Curve Loop( 37 ) = { 271 , -274 , -169 , 269 };
//+
Surface( 37 ) = { 37 };
//+
Curve Loop( 39 ) = { 87 , 273 , -169 , -268 };
//+
Surface( 39 ) = { 39 };
//+
Curve Loop( 41 ) = { 6 , -280 , -276 , 275 };
//+
Surface( 41 ) = { 41 };
//+
Curve Loop( 43 ) = { 6 , 277 , -88 , -272 };
//+
Surface( 43 ) = { 43 };
//+
Curve Loop( 45 ) = { 276 , -279 , -170 , 274 };
//+
Surface( 45 ) = { 45 };
//+
Curve Loop( 47 ) = { 88 , 278 , -170 , -273 };
//+
Surface( 47 ) = { 47 };
//+
Curve Loop( 49 ) = { 7 , -285 , -281 , 280 };
//+
Surface( 49 ) = { 49 };
//+
Curve Loop( 51 ) = { 7 , 282 , -89 , -277 };
//+
Surface( 51 ) = { 51 };
//+
Curve Loop( 53 ) = { 281 , -284 , -171 , 279 };
//+
Surface( 53 ) = { 53 };
//+
Curve Loop( 55 ) = { 89 , 283 , -171 , -278 };
//+
Surface( 55 ) = { 55 };
//+
Curve Loop( 57 ) = { 8 , -290 , -286 , 285 };
//+
Surface( 57 ) = { 57 };
//+
Curve Loop( 59 ) = { 8 , 287 , -90 , -282 };
//+
Surface( 59 ) = { 59 };
//+
Curve Loop( 61 ) = { 286 , -289 , -172 , 284 };
//+
Surface( 61 ) = { 61 };
//+
Curve Loop( 63 ) = { 90 , 288 , -172 , -283 };
//+
Surface( 63 ) = { 63 };
//+
Curve Loop( 65 ) = { 9 , -295 , -291 , 290 };
//+
Surface( 65 ) = { 65 };
//+
Curve Loop( 67 ) = { 9 , 292 , -91 , -287 };
//+
Surface( 67 ) = { 67 };
//+
Curve Loop( 69 ) = { 291 , -294 , -173 , 289 };
//+
Surface( 69 ) = { 69 };
//+
Curve Loop( 71 ) = { 91 , 293 , -173 , -288 };
//+
Surface( 71 ) = { 71 };
//+
Curve Loop( 73 ) = { 10 , -300 , -296 , 295 };
//+
Surface( 73 ) = { 73 };
//+
Curve Loop( 75 ) = { 10 , 297 , -92 , -292 };
//+
Surface( 75 ) = { 75 };
//+
Curve Loop( 77 ) = { 296 , -299 , -174 , 294 };
//+
Surface( 77 ) = { 77 };
//+
Curve Loop( 79 ) = { 92 , 298 , -174 , -293 };
//+
Surface( 79 ) = { 79 };
//+
Curve Loop( 81 ) = { 11 , -305 , -301 , 300 };
//+
Surface( 81 ) = { 81 };
//+
Curve Loop( 83 ) = { 11 , 302 , -93 , -297 };
//+
Surface( 83 ) = { 83 };
//+
Curve Loop( 85 ) = { 301 , -304 , -175 , 299 };
//+
Surface( 85 ) = { 85 };
//+
Curve Loop( 87 ) = { 93 , 303 , -175 , -298 };
//+
Surface( 87 ) = { 87 };
//+
Curve Loop( 89 ) = { 12 , -310 , -306 , 305 };
//+
Surface( 89 ) = { 89 };
//+
Curve Loop( 91 ) = { 12 , 307 , -94 , -302 };
//+
Surface( 91 ) = { 91 };
//+
Curve Loop( 93 ) = { 306 , -309 , -176 , 304 };
//+
Surface( 93 ) = { 93 };
//+
Curve Loop( 95 ) = { 94 , 308 , -176 , -303 };
//+
Surface( 95 ) = { 95 };
//+
Curve Loop( 97 ) = { 13 , -315 , -311 , 310 };
//+
Surface( 97 ) = { 97 };
//+
Curve Loop( 99 ) = { 13 , 312 , -95 , -307 };
//+
Surface( 99 ) = { 99 };
//+
Curve Loop( 101 ) = { 311 , -314 , -177 , 309 };
//+
Surface( 101 ) = { 101 };
//+
Curve Loop( 103 ) = { 95 , 313 , -177 , -308 };
//+
Surface( 103 ) = { 103 };
//+
Curve Loop( 105 ) = { 14 , -320 , -316 , 315 };
//+
Surface( 105 ) = { 105 };
//+
Curve Loop( 107 ) = { 14 , 317 , -96 , -312 };
//+
Surface( 107 ) = { 107 };
//+
Curve Loop( 109 ) = { 316 , -319 , -178 , 314 };
//+
Surface( 109 ) = { 109 };
//+
Curve Loop( 111 ) = { 96 , 318 , -178 , -313 };
//+
Surface( 111 ) = { 111 };
//+
Curve Loop( 113 ) = { 15 , -325 , -321 , 320 };
//+
Surface( 113 ) = { 113 };
//+
Curve Loop( 115 ) = { 15 , 322 , -97 , -317 };
//+
Surface( 115 ) = { 115 };
//+
Curve Loop( 117 ) = { 321 , -324 , -179 , 319 };
//+
Surface( 117 ) = { 117 };
//+
Curve Loop( 119 ) = { 97 , 323 , -179 , -318 };
//+
Surface( 119 ) = { 119 };
//+
Curve Loop( 121 ) = { 16 , -330 , -326 , 325 };
//+
Surface( 121 ) = { 121 };
//+
Curve Loop( 123 ) = { 16 , 327 , -98 , -322 };
//+
Surface( 123 ) = { 123 };
//+
Curve Loop( 125 ) = { 326 , -329 , -180 , 324 };
//+
Surface( 125 ) = { 125 };
//+
Curve Loop( 127 ) = { 98 , 328 , -180 , -323 };
//+
Surface( 127 ) = { 127 };
//+
Curve Loop( 129 ) = { 17 , -335 , -331 , 330 };
//+
Surface( 129 ) = { 129 };
//+
Curve Loop( 131 ) = { 17 , 332 , -99 , -327 };
//+
Surface( 131 ) = { 131 };
//+
Curve Loop( 133 ) = { 331 , -334 , -181 , 329 };
//+
Surface( 133 ) = { 133 };
//+
Curve Loop( 135 ) = { 99 , 333 , -181 , -328 };
//+
Surface( 135 ) = { 135 };
//+
Curve Loop( 137 ) = { 18 , -340 , -336 , 335 };
//+
Surface( 137 ) = { 137 };
//+
Curve Loop( 139 ) = { 18 , 337 , -100 , -332 };
//+
Surface( 139 ) = { 139 };
//+
Curve Loop( 141 ) = { 336 , -339 , -182 , 334 };
//+
Surface( 141 ) = { 141 };
//+
Curve Loop( 143 ) = { 100 , 338 , -182 , -333 };
//+
Surface( 143 ) = { 143 };
//+
Curve Loop( 145 ) = { 19 , -345 , -341 , 340 };
//+
Surface( 145 ) = { 145 };
//+
Curve Loop( 147 ) = { 19 , 342 , -101 , -337 };
//+
Surface( 147 ) = { 147 };
//+
Curve Loop( 149 ) = { 341 , -344 , -183 , 339 };
//+
Surface( 149 ) = { 149 };
//+
Curve Loop( 151 ) = { 101 , 343 , -183 , -338 };
//+
Surface( 151 ) = { 151 };
//+
Curve Loop( 153 ) = { 20 , -350 , -346 , 345 };
//+
Surface( 153 ) = { 153 };
//+
Curve Loop( 155 ) = { 20 , 347 , -102 , -342 };
//+
Surface( 155 ) = { 155 };
//+
Curve Loop( 157 ) = { 346 , -349 , -184 , 344 };
//+
Surface( 157 ) = { 157 };
//+
Curve Loop( 159 ) = { 102 , 348 , -184 , -343 };
//+
Surface( 159 ) = { 159 };
//+
Surface Loop(1)= {
//+
Volume( 1 ) = { 1 };
//+
Surface Loop(3)= {0.0};
//+
Volume( 2 ) = { 3 };
//+
Surface Loop(5)= {0.0};
//+
Volume( 3 ) = { 5 };
//+
Surface Loop(7)= {0.0};
//+
Volume( 4 ) = { 7 };
//+
Surface Loop(9)= {0.0};
//+
Volume( 5 ) = { 9 };
//+
Surface Loop(11)= {0.0};
//+
Volume( 6 ) = { 11 };
//+
Surface Loop(13)= {0.0};
//+
Volume( 7 ) = { 13 };
//+
Surface Loop(15)= {0.0};
//+
Volume( 8 ) = { 15 };
//+
Surface Loop(17)= {0.0};
//+
Volume( 9 ) = { 17 };
//+
Surface Loop(19)= {0.0};
//+
Volume( 10 ) = { 19 };
//+
Surface Loop(21)= {0.0};
//+
Volume( 11 ) = { 21 };
//+
Surface Loop(23)= {0.0};
//+
Volume( 12 ) = { 23 };
//+
